<?xml version="1.0" encoding="iso-8859-1"?>
<!-- Generator: Adobe Illustrator 19.0.0, SVG Export Plug-In . SVG Version: 6.00 Build 0)  -->
<svg xmlns="http://www.w3.org/2000/svg" xmlns:xlink="http://www.w3.org/1999/xlink" version="1.1" id="Capa_1" x="0px" y="0px" viewBox="0 0 512 512" style="enable-background:new 0 0 512 512;" xml:space="preserve" width="512px" height="512px">
<g>
	<g>
		<polygon points="374.725,105.477 293.996,91.756 256,19.218 218.005,91.756 137.275,105.477 194.522,164.028 182.624,245.046     256,208.695 329.376,245.046 317.478,164.028   " fill="#F5F5F5"/>
	</g>
</g>
<g>
	<g>
		<polygon points="143.656,225.054 169.793,168.72 108.599,179.309 63.098,137.041 54.261,198.514 0,228.725 55.733,256.127     67.699,317.067 110.981,272.53 172.636,279.982   " fill="#F5F5F5"/>
	</g>
</g>
<g>
	<g>
		<polygon points="457.739,198.514 448.901,137.041 403.401,179.309 342.206,168.72 368.345,225.054 339.363,279.982     401.019,272.53 444.302,317.067 456.268,256.127 512,228.725   " fill="#F5F5F5"/>
	</g>
</g>
<g>
	<g>
		<rect x="211.983" y="274.657" width="30.739" height="218.56" fill="#F5F5F5"/>
	</g>
</g>
<g>
	<g>
		<path d="M145.785,303.334l-3.676-8.27l-28.089,12.485l3.676,8.27c15.649,35.211,26.579,72.37,32.484,110.447l30.376-4.711    C174.234,380.799,162.535,341.024,145.785,303.334z" fill="#F5F5F5"/>
	</g>
</g>
<g>
	<g>
		<path d="M369.892,295.065l-3.676,8.27c-16.752,37.692-28.45,77.467-34.77,118.221l30.376,4.711    c5.905-38.074,16.834-75.234,32.485-110.447l3.676-8.27L369.892,295.065z" fill="#F5F5F5"/>
	</g>
</g>
<g>
	<g>
		<rect x="269.284" y="274.657" width="30.739" height="218.56" fill="#F5F5F5"/>
	</g>
</g>
<g>
	<g>
		
			<rect x="401.043" y="88.957" transform="matrix(0.7071 -0.7071 0.7071 0.7071 48.3504 324.6268)" width="29.985" height="29.985" fill="#F5F5F5"/>
	</g>
</g>
<g>
	<g>
		
			<rect x="315.059" y="24.993" transform="matrix(0.7071 -0.7071 0.7071 0.7071 68.3963 245.0932)" width="29.985" height="29.985" fill="#F5F5F5"/>
	</g>
</g>
<g>
	<g>
		<rect x="81.082" y="89.08" transform="matrix(0.7071 -0.7071 0.7071 0.7071 -45.4504 98.4173)" width="29.985" height="29.985" fill="#F5F5F5"/>
	</g>
</g>
<g>
</g>
<g>
</g>
<g>
</g>
<g>
</g>
<g>
</g>
<g>
</g>
<g>
</g>
<g>
</g>
<g>
</g>
<g>
</g>
<g>
</g>
<g>
</g>
<g>
</g>
<g>
</g>
<g>
</g>
</svg>
