<svg width="1280" height="337" viewBox="0 0 1280 337" version="1.1" xmlns="http://www.w3.org/2000/svg" xmlns:xlink="http://www.w3.org/1999/xlink">
<title>Confetti Top</title>
<desc>Created using Figma</desc>
<g id="Canvas" transform="translate(-209 -794)">
<g id="Confetti Top">
<g id="White">
<g id="artifice">
<g id="g4163">
<g id="path4171">
<use xlink:href="#path0_fill" transform="matrix(1.25 0 0 -1.25 777.791 815.476)" fill="#F5F5F5"/>
</g>
<g id="path4187">
<use xlink:href="#path1_fill" transform="matrix(1.25 0 0 -1.25 1034.02 887.002)" fill="#F5F5F5"/>
</g>
<g id="path4209">
<use xlink:href="#path2_fill" transform="matrix(1.25 0 0 -1.25 455.318 928.106)" fill="#F5F5F5"/>
</g>
<g id="path4215">
<use xlink:href="#path3_fill" transform="matrix(1.25 0 0 -1.25 434.987 895.869)" fill="#F5F5F5"/>
</g>
<g id="path4219">
<use xlink:href="#path4_fill" transform="matrix(1.25 0 0 -1.25 388.663 934.538)" fill="#F5F5F5"/>
</g>
<g id="path4227">
<use xlink:href="#path5_fill" transform="matrix(1.25 0 0 -1.25 652.847 851.074)" fill="#F5F5F5"/>
</g>
<g id="path4231">
<use xlink:href="#path6_fill" transform="matrix(1.25 0 0 -1.25 655.123 887.767)" fill="#F5F5F5"/>
</g>
<g id="path4233">
<use xlink:href="#path7_fill" transform="matrix(1.25 0 0 -1.25 514.684 796.386)" fill="#F5F5F5"/>
</g>
<g id="path4237">
<use xlink:href="#path8_fill" transform="matrix(1.25 0 0 -1.25 808.732 876.879)" fill="#F5F5F5"/>
</g>
<g id="path4241">
<use xlink:href="#path9_fill" transform="matrix(1.25 0 0 -1.25 893.085 1054.76)" fill="#F5F5F5"/>
</g>
<g id="path4243">
<use xlink:href="#path10_fill" transform="matrix(1.25 0 0 -1.25 973.148 861.151)" fill="#F5F5F5"/>
</g>
<g id="path4245">
<use xlink:href="#path11_fill" transform="matrix(1.25 0 0 -1.25 1025.04 836.409)" fill="#F5F5F5"/>
</g>
<g id="path4247">
<use xlink:href="#path12_fill" transform="matrix(1.25 0 0 -1.25 805.172 947.176)" fill="#F5F5F5"/>
</g>
<g id="path4253">
<use xlink:href="#path13_fill" transform="matrix(1.25 0 0 -1.25 973.4 1072.08)" fill="#F5F5F5"/>
</g>
<g id="path4255">
<use xlink:href="#path14_fill" transform="matrix(1.25 0 0 -1.25 258.102 927.419)" fill="#F5F5F5"/>
</g>
<g id="path4269">
<use xlink:href="#path15_fill" transform="matrix(1.25 0 0 -1.25 684.123 850.272)" fill="#F5F5F5"/>
</g>
<g id="path4273">
<use xlink:href="#path16_fill" transform="matrix(1.25 0 0 -1.25 957.934 870.071)" fill="#F5F5F5"/>
</g>
<g id="path4279">
<use xlink:href="#path17_fill" transform="matrix(1.25 0 0 -1.25 845.933 794.167)" fill="#F5F5F5"/>
</g>
<g id="path4283">
<use xlink:href="#path18_fill" transform="matrix(1.25 0 0 -1.25 401.501 809.009)" fill="#F5F5F5"/>
</g>
<g id="path4309">
<use xlink:href="#path19_fill" transform="matrix(1.25 0 0 -1.25 1012.16 801.173)" fill="#F5F5F5"/>
</g>
<g id="path4327">
<use xlink:href="#path20_fill" transform="matrix(1.25 0 0 -1.25 1021.2 808.92)" fill="#F5F5F5"/>
</g>
<g id="path4381">
<use xlink:href="#path21_fill" transform="matrix(1.25 0 0 -1.25 468.505 956.059)" fill="#F5F5F5"/>
</g>
<g id="path4385">
<use xlink:href="#path22_fill" transform="matrix(1.25 0 0 -1.25 497.753 899.348)" fill="#F5F5F5"/>
</g>
<g id="path4387">
<use xlink:href="#path23_fill" transform="matrix(1.25 0 0 -1.25 365.402 801.169)" fill="#F5F5F5"/>
</g>
<g id="path4399">
<use xlink:href="#path24_fill" transform="matrix(1.25 0 0 -1.25 718.087 986.002)" fill="#F5F5F5"/>
</g>
<g id="path4403">
<use xlink:href="#path25_fill" transform="matrix(1.25 0 0 -1.25 883.677 811.93)" fill="#F5F5F5"/>
</g>
<g id="path4413">
<use xlink:href="#path26_fill" transform="matrix(1.25 0 0 -1.25 860.758 843.051)" fill="#F5F5F5"/>
</g>
<g id="path4423">
<use xlink:href="#path27_fill" transform="matrix(1.25 0 0 -1.25 239.78 849.251)" fill="#F5F5F5"/>
</g>
<g id="path4427">
<use xlink:href="#path28_fill" transform="matrix(1.25 0 0 -1.25 382.607 916.171)" fill="#F5F5F5"/>
</g>
<g id="path4443">
<use xlink:href="#path29_fill" transform="matrix(1.25 0 0 -1.25 1134.83 842.079)" fill="#F5F5F5"/>
</g>
<g id="path4467">
<use xlink:href="#path30_fill" transform="matrix(1.25 0 0 -1.25 841.46 919.597)" fill="#F5F5F5"/>
</g>
<g id="path4473">
<use xlink:href="#path31_fill" transform="matrix(1.25 0 0 -1.25 1068.63 1002.93)" fill="#F5F5F5"/>
</g>
<g id="path4487">
<use xlink:href="#path32_fill" transform="matrix(1.25 0 0 -1.25 936.978 908.187)" fill="#F5F5F5"/>
</g>
<g id="path4493">
<use xlink:href="#path33_fill" transform="matrix(1.25 0 0 -1.25 764.72 929.914)" fill="#F5F5F5"/>
</g>
<g id="path4515">
<use xlink:href="#path34_fill" transform="matrix(1.25 0 0 -1.25 297.05 948.04)" fill="#F5F5F5"/>
</g>
<g id="path4585">
<use xlink:href="#path35_fill" transform="matrix(1.25 0 0 -1.25 681.306 887.453)" fill="#F5F5F5"/>
</g>
<g id="path4591">
<use xlink:href="#path36_fill" transform="matrix(1.25 0 0 -1.25 739.979 870.483)" fill="#F5F5F5"/>
</g>
<g id="path4595">
<use xlink:href="#path37_fill" transform="matrix(1.25 0 0 -1.25 688.92 842.774)" fill="#F5F5F5"/>
</g>
<g id="path4599">
<use xlink:href="#path38_fill" transform="matrix(1.25 0 0 -1.25 674.72 818.142)" fill="#F5F5F5"/>
</g>
<g id="path4605">
<use xlink:href="#path39_fill" transform="matrix(1.25 0 0 -1.25 904.753 969.661)" fill="#F5F5F5"/>
</g>
<g id="path4611">
<use xlink:href="#path40_fill" transform="matrix(1.25 0 0 -1.25 751.828 858.748)" fill="#F5F5F5"/>
</g>
<g id="path4613">
<use xlink:href="#path41_fill" transform="matrix(1.25 0 0 -1.25 1110.01 811.133)" fill="#F5F5F5"/>
</g>
<g id="path4615">
<use xlink:href="#path42_fill" transform="matrix(1.25 0 0 -1.25 1078.93 805.548)" fill="#F5F5F5"/>
</g>
<g id="path4617">
<use xlink:href="#path43_fill" transform="matrix(1.25 0 0 -1.25 262.928 862.322)" fill="#F5F5F5"/>
</g>
<g id="path4629">
<use xlink:href="#path44_fill" transform="matrix(1.25 0 0 -1.25 1162.3 794.823)" fill="#F5F5F5"/>
</g>
<g id="path4675">
<use xlink:href="#path45_fill" transform="matrix(1.25 0 0 -1.25 1087.44 824.39)" fill="#F5F5F5"/>
</g>
<g id="path4709">
<use xlink:href="#path46_fill" transform="matrix(1.25 0 0 -1.25 784.81 917.76)" fill="#F5F5F5"/>
</g>
<g id="path4755">
<use xlink:href="#path47_fill" transform="matrix(1.25 0 0 -1.25 819.047 848.954)" fill="#F5F5F5"/>
</g>
<g id="path4757">
<use xlink:href="#path48_fill" transform="matrix(1.25 0 0 -1.25 626.228 816.654)" fill="#F5F5F5"/>
</g>
<g id="path4761">
<use xlink:href="#path49_fill" transform="matrix(1.25 0 0 -1.25 951.5 1008.11)" fill="#F5F5F5"/>
</g>
<g id="path4767">
<use xlink:href="#path50_fill" transform="matrix(1.25 0 0 -1.25 900.528 857.825)" fill="#F5F5F5"/>
</g>
<g id="path4769">
<use xlink:href="#path51_fill" transform="matrix(1.25 0 0 -1.25 1200.44 848.805)" fill="#F5F5F5"/>
</g>
<g id="path4771">
<use xlink:href="#path52_fill" transform="matrix(1.25 0 0 -1.25 721.703 878.468)" fill="#F5F5F5"/>
</g>
<g id="path4773">
<use xlink:href="#path53_fill" transform="matrix(1.25 0 0 -1.25 711.193 801.286)" fill="#F5F5F5"/>
</g>
<g id="path4781">
<use xlink:href="#path54_fill" transform="matrix(1.25 0 0 -1.25 277.666 814.532)" fill="#F5F5F5"/>
</g>
<g id="path4787">
<use xlink:href="#path55_fill" transform="matrix(1.25 0 0 -1.25 374.078 824.531)" fill="#F5F5F5"/>
</g>
<g id="path4789">
<use xlink:href="#path56_fill" transform="matrix(1.25 0 0 -1.25 783.502 810.704)" fill="#F5F5F5"/>
</g>
<g id="path4801">
<use xlink:href="#path57_fill" transform="matrix(1.25 0 0 -1.25 988.557 852.584)" fill="#F5F5F5"/>
</g>
<g id="path4847">
<use xlink:href="#path58_fill" transform="matrix(1.25 0 0 -1.25 850.033 838.586)" fill="#F5F5F5"/>
</g>
<g id="path4855">
<use xlink:href="#path59_fill" transform="matrix(1.25 0 0 -1.25 493.763 891.391)" fill="#F5F5F5"/>
</g>
</g>
</g>
<g id="artifice">
<g id="g4163">
<g id="path4215">
<use xlink:href="#path3_fill" transform="matrix(1.23606 0.186174 0.186174 -1.23606 1482.71 875.975)" fill="#F5F5F5"/>
</g>
<g id="path4219">
<use xlink:href="#path4_fill" transform="matrix(1.23606 0.186174 0.186174 -1.23606 1431.14 907.312)" fill="#F5F5F5"/>
</g>
<g id="path4255">
<use xlink:href="#path14_fill" transform="matrix(1.23606 0.186174 0.186174 -1.23606 1303.1 880.827)" fill="#F5F5F5"/>
</g>
<g id="path4423">
<use xlink:href="#path27_fill" transform="matrix(1.23606 0.186174 0.186174 -1.23606 1296.62 800.802)" fill="#F5F5F5"/>
</g>
<g id="path4427">
<use xlink:href="#path28_fill" transform="matrix(1.23606 0.186174 0.186174 -1.23606 1427.89 888.248)" fill="#F5F5F5"/>
</g>
<g id="path4515">
<use xlink:href="#path34_fill" transform="matrix(1.23606 0.186174 0.186174 -1.23606 1338.54 907.019)" fill="#F5F5F5"/>
</g>
<g id="path4617">
<use xlink:href="#path43_fill" transform="matrix(1.23606 0.186174 0.186174 -1.23606 1317.57 817.175)" fill="#F5F5F5"/>
</g>
<g id="path4787">
<use xlink:href="#path55_fill" transform="matrix(1.23606 0.186174 0.186174 -1.23606 1433.11 796.36)" fill="#F5F5F5"/>
</g>
</g>
</g>
</g>
<g id="Colors">
<g id="artifice">
<g id="g4163">
<g id="path4171">
<use xlink:href="#path60_fill" transform="matrix(1.24431 -0.119134 -0.119134 -1.24431 1130.94 835.111)" fill="#F2B120"/>
</g>
<g id="path4173">
<use xlink:href="#path61_fill" transform="matrix(1.24431 -0.119134 -0.119134 -1.24431 963.143 801.341)" fill="#039598"/>
</g>
<g id="path4187">
<use xlink:href="#path62_fill" transform="matrix(1.24431 -0.119134 -0.119134 -1.24431 1327.97 870.183)" fill="#F2B120"/>
</g>
<g id="path4203">
<use xlink:href="#path63_fill" transform="matrix(1.24431 -0.119134 -0.119134 -1.24431 784.379 796.554)" fill="#E7413B"/>
</g>
<g id="path4209">
<use xlink:href="#path64_fill" transform="matrix(1.24431 -0.119134 -0.119134 -1.24431 897.458 942.398)" fill="#FDCC65"/>
</g>
<g id="path4215">
<use xlink:href="#path65_fill" transform="matrix(1.24431 -0.119134 -0.119134 -1.24431 879.923 919.767)" fill="#F2B120"/>
</g>
<g id="path4219">
<use xlink:href="#path66_fill" transform="matrix(1.24431 -0.119134 -0.119134 -1.24431 847.993 951.984)" fill="#FDCC65"/>
</g>
<g id="path4227">
<use xlink:href="#path67_fill" transform="matrix(1.24431 -0.119134 -0.119134 -1.24431 1039.9 870.671)" fill="#039598"/>
</g>
<g id="path4231">
<use xlink:href="#path68_fill" transform="matrix(1.24431 -0.119134 -0.119134 -1.24431 1044.23 897.926)" fill="#09C6C8"/>
</g>
<g id="path4233">
<use xlink:href="#path69_fill" transform="matrix(1.24431 -0.119134 -0.119134 -1.24431 932.5 839.714)" fill="#E7413B"/>
</g>
<g id="path4237">
<use xlink:href="#path70_fill" transform="matrix(1.24431 -0.119134 -0.119134 -1.24431 1158.51 878.774)" fill="#039598"/>
</g>
<g id="path4239">
<use xlink:href="#path71_fill" transform="matrix(1.24431 -0.119134 -0.119134 -1.24431 1243.97 795.899)" fill="#C20054"/>
</g>
<g id="path4241">
<use xlink:href="#path72_fill" transform="matrix(1.24431 -0.119134 -0.119134 -1.24431 1234.42 1005.64)" fill="#FDCC65"/>
</g>
<g id="path4243">
<use xlink:href="#path73_fill" transform="matrix(1.24431 -0.119134 -0.119134 -1.24431 1280.53 855.231)" fill="#09C6C8"/>
</g>
<g id="path4245">
<use xlink:href="#path74_fill" transform="matrix(1.24431 -0.119134 -0.119134 -1.24431 1317.63 833.022)" fill="#E7413B"/>
</g>
<g id="path4247">
<use xlink:href="#path75_fill" transform="matrix(1.24431 -0.119134 -0.119134 -1.24431 1160.87 931.558)" fill="#F2B120"/>
</g>
<g id="path4253">
<use xlink:href="#path76_fill" transform="matrix(1.24431 -0.119134 -0.119134 -1.24431 1295.81 1012.83)" fill="#FDCC65"/>
</g>
<g id="path4255">
<use xlink:href="#path77_fill" transform="matrix(1.24431 -0.119134 -0.119134 -1.24431 749.69 956.027)" fill="#F2B120"/>
</g>
<g id="path4265">
<use xlink:href="#path78_fill" transform="matrix(1.24431 -0.119134 -0.119134 -1.24431 1145.24 802.952)" fill="#039598"/>
</g>
<g id="path4269">
<use xlink:href="#path79_fill" transform="matrix(1.24431 -0.119134 -0.119134 -1.24431 1063.27 867.829)" fill="#FDCC65"/>
</g>
<g id="path4273">
<use xlink:href="#path80_fill" transform="matrix(1.24431 -0.119134 -0.119134 -1.24431 1269.78 862.988)" fill="#F2B120"/>
</g>
<g id="path4279">
<use xlink:href="#path81_fill" transform="matrix(1.24431 -0.119134 -0.119134 -1.24431 1180.45 814.301)" fill="#E7413B"/>
</g>
<g id="path4283">
<use xlink:href="#path82_fill" transform="matrix(1.24431 -0.119134 -0.119134 -1.24431 848.628 857.263)" fill="#FDCC65"/>
</g>
<g id="path4289">
<use xlink:href="#path83_fill" transform="matrix(1.24431 -0.119134 -0.119134 -1.24431 929.289 807.992)" fill="#039598"/>
</g>
<g id="path4309">
<use xlink:href="#path84_fill" transform="matrix(1.24431 -0.119134 -0.119134 -1.24431 1305.46 807.616)" fill="#09C6C8"/>
</g>
<g id="path4327">
<use xlink:href="#path85_fill" transform="matrix(1.24431 -0.119134 -0.119134 -1.24431 1312.79 812.756)" fill="#039598"/>
</g>
<g id="path4381">
<use xlink:href="#path86_fill" transform="matrix(1.24431 -0.119134 -0.119134 -1.24431 909.335 962.34)" fill="#039598"/>
</g>
<g id="path4385">
<use xlink:href="#path87_fill" transform="matrix(1.24431 -0.119134 -0.119134 -1.24431 927.185 917.866)" fill="#09C6C8"/>
</g>
<g id="path4387">
<use xlink:href="#path88_fill" transform="matrix(1.24431 -0.119134 -0.119134 -1.24431 821.028 853.994)" fill="#F2B120"/>
</g>
<g id="path4393">
<use xlink:href="#path89_fill" transform="matrix(1.24431 -0.119134 -0.119134 -1.24431 919.914 838.069)" fill="#FDCC65"/>
</g>
<g id="path4399">
<use xlink:href="#path90_fill" transform="matrix(1.24431 -0.119134 -0.119134 -1.24431 1098.42 966.816)" fill="#039598"/>
</g>
<g id="path4403">
<use xlink:href="#path91_fill" transform="matrix(1.24431 -0.119134 -0.119134 -1.24431 1210 824.868)" fill="#FDCC65"/>
</g>
<g id="path4413">
<use xlink:href="#path92_fill" transform="matrix(1.24431 -0.119134 -0.119134 -1.24431 1195.06 849.766)" fill="#FDCC65"/>
</g>
<g id="path4423">
<use xlink:href="#path93_fill" transform="matrix(1.24431 -0.119134 -0.119134 -1.24431 730.374 898.931)" fill="#E7413B"/>
</g>
<g id="path4427">
<use xlink:href="#path94_fill" transform="matrix(1.24431 -0.119134 -0.119134 -1.24431 842.142 938.694)" fill="#09C6C8"/>
</g>
<g id="path4443">
<use xlink:href="#path95_fill" transform="matrix(1.24431 -0.119134 -0.119134 -1.24431 1400.27 829.385)" fill="#C20054"/>
</g>
<g id="path4467">
<use xlink:href="#path96_fill" transform="matrix(1.24431 -0.119134 -0.119134 -1.24431 1186.08 908.348)" fill="#E7413B"/>
</g>
<g id="path4473">
<use xlink:href="#path97_fill" transform="matrix(1.24431 -0.119134 -0.119134 -1.24431 1362.19 954.326)" fill="#FDCC65"/>
</g>
<g id="path4487">
<use xlink:href="#path98_fill" transform="matrix(1.24431 -0.119134 -0.119134 -1.24431 1256.81 892.972)" fill="#E7413B"/>
</g>
<g id="path4493">
<use xlink:href="#path99_fill" transform="matrix(1.24431 -0.119134 -0.119134 -1.24431 1129.34 921.561)" fill="#C20054"/>
</g>
<g id="path4497">
<use xlink:href="#path100_fill" transform="matrix(1.24431 -0.119134 -0.119134 -1.24431 869.025 823.559)" fill="#FDCC65"/>
</g>
<g id="path4505">
<use xlink:href="#path101_fill" transform="matrix(1.24431 -0.119134 -0.119134 -1.24431 1201.91 794.831)" fill="#FDCC65"/>
</g>
<g id="path4515">
<use xlink:href="#path102_fill" transform="matrix(1.24431 -0.119134 -0.119134 -1.24431 780.338 968.643)" fill="#F2B120"/>
</g>
<g id="path4573">
<use xlink:href="#path103_fill" transform="matrix(1.24431 -0.119134 -0.119134 -1.24431 878.083 798.146)" fill="#FDCC65"/>
</g>
<g id="path4575">
<use xlink:href="#path104_fill" transform="matrix(1.24431 -0.119134 -0.119134 -1.24431 843 802.185)" fill="#09C6C8"/>
</g>
<g id="path4583">
<use xlink:href="#path105_fill" transform="matrix(1.24431 -0.119134 -0.119134 -1.24431 784.454 851.637)" fill="#FDCC65"/>
</g>
<g id="path4585">
<use xlink:href="#path106_fill" transform="matrix(1.24431 -0.119134 -0.119134 -1.24431 1063.82 895.814)" fill="#09C6C8"/>
</g>
<g id="path4591">
<use xlink:href="#path107_fill" transform="matrix(1.24431 -0.119134 -0.119134 -1.24431 1106.55 878.925)" fill="#039598"/>
</g>
<g id="path4595">
<use xlink:href="#path108_fill" transform="matrix(1.24431 -0.119134 -0.119134 -1.24431 1066.33 861.882)" fill="#09C6C8"/>
</g>
<g id="path4599">
<use xlink:href="#path109_fill" transform="matrix(1.24431 -0.119134 -0.119134 -1.24431 1053.93 844.494)" fill="#F2B120"/>
</g>
<g id="path4605">
<use xlink:href="#path110_fill" transform="matrix(1.24431 -0.119134 -0.119134 -1.24431 1237.07 941.219)" fill="#FDCC65"/>
</g>
<g id="path4611">
<use xlink:href="#path111_fill" transform="matrix(1.24431 -0.119134 -0.119134 -1.24431 1114.59 869.307)" fill="#F2B120"/>
</g>
<g id="path4613">
<use xlink:href="#path112_fill" transform="matrix(1.24431 -0.119134 -0.119134 -1.24431 1379.47 808.041)" fill="#C20054"/>
</g>
<g id="path4615">
<use xlink:href="#path113_fill" transform="matrix(1.24431 -0.119134 -0.119134 -1.24431 1355.79 806.096)" fill="#FDCC65"/>
</g>
<g id="path4617">
<use xlink:href="#path114_fill" transform="matrix(1.24431 -0.119134 -0.119134 -1.24431 748.648 907.038)" fill="#F2B120"/>
</g>
<g id="path4649">
<use xlink:href="#path115_fill" transform="matrix(1.24431 -0.119134 -0.119134 -1.24431 754.132 811.249)" fill="#FDCC65"/>
</g>
<g id="path4651">
<use xlink:href="#path116_fill" transform="matrix(1.24431 -0.119134 -0.119134 -1.24431 851.316 832.51)" fill="#F2B120"/>
</g>
<g id="path4675">
<use xlink:href="#path117_fill" transform="matrix(1.24431 -0.119134 -0.119134 -1.24431 1363.51 819.565)" fill="#09C6C8"/>
</g>
<g id="path4699">
<use xlink:href="#path118_fill" transform="matrix(1.24431 -0.119134 -0.119134 -1.24431 984.075 820.168)" fill="#09C6C8"/>
</g>
<g id="path4709">
<use xlink:href="#path119_fill" transform="matrix(1.24431 -0.119134 -0.119134 -1.24431 1143.51 911.038)" fill="#09C6C8"/>
</g>
<g id="path4737">
<use xlink:href="#path120_fill" transform="matrix(1.24431 -0.119134 -0.119134 -1.24431 792.711 839.345)" fill="#039598"/>
</g>
<g id="path4755">
<use xlink:href="#path121_fill" transform="matrix(1.24431 -0.119134 -0.119134 -1.24431 1164.24 857.168)" fill="#F2B120"/>
</g>
<g id="path4757">
<use xlink:href="#path122_fill" transform="matrix(1.24431 -0.119134 -0.119134 -1.24431 1017.5 846.86)" fill="#039598"/>
</g>
<g id="path4761">
<use xlink:href="#path123_fill" transform="matrix(1.24431 -0.119134 -0.119134 -1.24431 1272.87 946.082)" fill="#FDCC65"/>
</g>
<g id="path4767">
<use xlink:href="#path124_fill" transform="matrix(1.24431 -0.119134 -0.119134 -1.24431 1225.9 857.953)" fill="#039598"/>
</g>
<g id="path4769">
<use xlink:href="#path125_fill" transform="matrix(1.24431 -0.119134 -0.119134 -1.24431 1449.9 829.705)" fill="#C20054"/>
</g>
<g id="path4771">
<use xlink:href="#path126_fill" transform="matrix(1.24431 -0.119134 -0.119134 -1.24431 1093.43 886.203)" fill="#FDCC65"/>
</g>
<g id="path4773">
<use xlink:href="#path127_fill" transform="matrix(1.24431 -0.119134 -0.119134 -1.24431 1080.04 829.284)" fill="#E7413B"/>
</g>
<g id="path4781">
<use xlink:href="#path128_fill" transform="matrix(1.24431 -0.119134 -0.119134 -1.24431 756.268 870.271)" fill="#E7413B"/>
</g>
<g id="path4787">
<use xlink:href="#path129_fill" transform="matrix(1.24431 -0.119134 -0.119134 -1.24431 829.197 870.829)" fill="#09C6C8"/>
</g>
<g id="path4789">
<use xlink:href="#path130_fill" transform="matrix(1.24431 -0.119134 -0.119134 -1.24431 1134.88 831.135)" fill="#E7413B"/>
</g>
<g id="path4801">
<use xlink:href="#path131_fill" transform="matrix(1.24431 -0.119134 -0.119134 -1.24431 1291.46 847.725)" fill="#C20054"/>
</g>
<g id="path4823">
<use xlink:href="#path132_fill" transform="matrix(1.24431 -0.119134 -0.119134 -1.24431 1206.58 805.404)" fill="#E7413B"/>
</g>
<g id="path4829">
<use xlink:href="#path133_fill" transform="matrix(1.24431 -0.119134 -0.119134 -1.24431 1248.43 805.798)" fill="#FDCC65"/>
</g>
<g id="path4847">
<use xlink:href="#path134_fill" transform="matrix(1.24431 -0.119134 -0.119134 -1.24431 1186.7 847.199)" fill="#C20054"/>
</g>
<g id="path4855">
<use xlink:href="#path135_fill" transform="matrix(1.24431 -0.119134 -0.119134 -1.24431 923.628 912.206)" fill="#FDCC65"/>
</g>
</g>
</g>
<g id="artifice">
<g id="g4163">
<g id="path4203">
<use xlink:href="#path136_fill" transform="matrix(1.18125 -0.408836 -0.408836 -1.18125 267.281 812.804)" fill="#E7413B"/>
</g>
<g id="path4209">
<use xlink:href="#path137_fill" transform="matrix(1.18125 -0.408836 -0.408836 -1.18125 373.899 897.886)" fill="#FDCC65"/>
</g>
<g id="path4215">
<use xlink:href="#path138_fill" transform="matrix(1.18125 -0.408836 -0.408836 -1.18125 357.363 884.682)" fill="#F2B120"/>
</g>
<g id="path4219">
<use xlink:href="#path139_fill" transform="matrix(1.18125 -0.408836 -0.408836 -1.18125 340.034 913.383)" fill="#FDCC65"/>
</g>
<g id="path4227">
<use xlink:href="#path140_fill" transform="matrix(1.18125 -0.408836 -0.408836 -1.18125 463.734 821.566)" fill="#039598"/>
</g>
<g id="path4231">
<use xlink:href="#path141_fill" transform="matrix(1.18125 -0.408836 -0.408836 -1.18125 471.589 840.391)" fill="#09C6C8"/>
</g>
<g id="path4233">
<use xlink:href="#path142_fill" transform="matrix(1.18125 -0.408836 -0.408836 -1.18125 381.196 818.024)" fill="#E7413B"/>
</g>
<g id="path4237">
<use xlink:href="#path143_fill" transform="matrix(1.18125 -0.408836 -0.408836 -1.18125 550.345 806.74)" fill="#039598"/>
</g>
<g id="path4241">
<use xlink:href="#path144_fill" transform="matrix(1.18125 -0.408836 -0.408836 -1.18125 626.957 884.66)" fill="#FDCC65"/>
</g>
<g id="path4247">
<use xlink:href="#path145_fill" transform="matrix(1.18125 -0.408836 -0.408836 -1.18125 561.231 844.245)" fill="#F2B120"/>
</g>
<g id="path4253">
<use xlink:href="#path146_fill" transform="matrix(1.18125 -0.408836 -0.408836 -1.18125 672.312 879.134)" fill="#FDCC65"/>
</g>
<g id="path4255">
<use xlink:href="#path147_fill" transform="matrix(1.18125 -0.408836 -0.408836 -1.18125 270.123 933.399)" fill="#F2B120"/>
</g>
<g id="path4269">
<use xlink:href="#path148_fill" transform="matrix(1.18125 -0.408836 -0.408836 -1.18125 480.027 815.456)" fill="#FDCC65"/>
</g>
<g id="path4283">
<use xlink:href="#path149_fill" transform="matrix(1.18125 -0.408836 -0.408836 -1.18125 324.002 845.23)" fill="#FDCC65"/>
</g>
<g id="path4289">
<use xlink:href="#path150_fill" transform="matrix(1.18125 -0.408836 -0.408836 -1.18125 373.367 795.796)" fill="#039598"/>
</g>
<g id="path4311">
<use xlink:href="#path151_fill" transform="matrix(1.18125 -0.408836 -0.408836 -1.18125 248.576 802.875)" fill="#F2B120"/>
</g>
<g id="path4381">
<use xlink:href="#path152_fill" transform="matrix(1.18125 -0.408836 -0.408836 -1.18125 385.902 910.143)" fill="#039598"/>
</g>
<g id="path4385">
<use xlink:href="#path153_fill" transform="matrix(1.18125 -0.408836 -0.408836 -1.18125 390.982 875.089)" fill="#09C6C8"/>
</g>
<g id="path4387">
<use xlink:href="#path154_fill" transform="matrix(1.18125 -0.408836 -0.408836 -1.18125 303.607 847.686)" fill="#F2B120"/>
</g>
<g id="path4393">
<use xlink:href="#path155_fill" transform="matrix(1.18125 -0.408836 -0.408836 -1.18125 371.869 819.033)" fill="#FDCC65"/>
</g>
<g id="path4399">
<use xlink:href="#path156_fill" transform="matrix(1.18125 -0.408836 -0.408836 -1.18125 522.508 880.443)" fill="#039598"/>
</g>
<g id="path4423">
<use xlink:href="#path157_fill" transform="matrix(1.18125 -0.408836 -0.408836 -1.18125 246.309 895.747)" fill="#E7413B"/>
</g>
<g id="path4427">
<use xlink:href="#path158_fill" transform="matrix(1.18125 -0.408836 -0.408836 -1.18125 333.518 904.854)" fill="#09C6C8"/>
</g>
<g id="path4467">
<use xlink:href="#path159_fill" transform="matrix(1.18125 -0.408836 -0.408836 -1.18125 575.298 823.184)" fill="#E7413B"/>
</g>
<g id="path4473">
<use xlink:href="#path160_fill" transform="matrix(1.18125 -0.408836 -0.408836 -1.18125 709.813 825.555)" fill="#FDCC65"/>
</g>
<g id="path4487">
<use xlink:href="#path161_fill" transform="matrix(1.18125 -0.408836 -0.408836 -1.18125 623.428 799.828)" fill="#E7413B"/>
</g>
<g id="path4493">
<use xlink:href="#path162_fill" transform="matrix(1.18125 -0.408836 -0.408836 -1.18125 536.838 842.553)" fill="#C20054"/>
</g>
<g id="path4497">
<use xlink:href="#path163_fill" transform="matrix(1.18125 -0.408836 -0.408836 -1.18125 332.787 817.468)" fill="#FDCC65"/>
</g>
<g id="path4515">
<use xlink:href="#path164_fill" transform="matrix(1.18125 -0.408836 -0.408836 -1.18125 294.335 937.127)" fill="#F2B120"/>
</g>
<g id="path4573">
<use xlink:href="#path165_fill" transform="matrix(1.18125 -0.408836 -0.408836 -1.18125 334.87 797.637)" fill="#FDCC65"/>
</g>
<g id="path4575">
<use xlink:href="#path166_fill" transform="matrix(1.18125 -0.408836 -0.408836 -1.18125 310.371 806.645)" fill="#09C6C8"/>
</g>
<g id="path4583">
<use xlink:href="#path167_fill" transform="matrix(1.18125 -0.408836 -0.408836 -1.18125 276.924 852.36)" fill="#FDCC65"/>
</g>
<g id="path4585">
<use xlink:href="#path168_fill" transform="matrix(1.18125 -0.408836 -0.408836 -1.18125 485.293 835.463)" fill="#09C6C8"/>
</g>
<g id="path4591">
<use xlink:href="#path169_fill" transform="matrix(1.18125 -0.408836 -0.408836 -1.18125 513.05 815.893)" fill="#039598"/>
</g>
<g id="path4595">
<use xlink:href="#path170_fill" transform="matrix(1.18125 -0.408836 -0.408836 -1.18125 481.187 810.652)" fill="#09C6C8"/>
</g>
<g id="path4599">
<use xlink:href="#path171_fill" transform="matrix(1.18125 -0.408836 -0.408836 -1.18125 469.254 800.32)" fill="#F2B120"/>
</g>
<g id="path4605">
<use xlink:href="#path172_fill" transform="matrix(1.18125 -0.408836 -0.408836 -1.18125 617.648 837.921)" fill="#FDCC65"/>
</g>
<g id="path4611">
<use xlink:href="#path173_fill" transform="matrix(1.18125 -0.408836 -0.408836 -1.18125 517.148 807.585)" fill="#F2B120"/>
</g>
<g id="path4617">
<use xlink:href="#path174_fill" transform="matrix(1.18125 -0.408836 -0.408836 -1.18125 260.847 898.39)" fill="#F2B120"/>
</g>
<g id="path4649">
<use xlink:href="#path175_fill" transform="matrix(1.18125 -0.408836 -0.408836 -1.18125 248.112 828.626)" fill="#FDCC65"/>
</g>
<g id="path4651">
<use xlink:href="#path176_fill" transform="matrix(1.18125 -0.408836 -0.408836 -1.18125 321.624 826.981)" fill="#F2B120"/>
</g>
<g id="path4695">
<use xlink:href="#path177_fill" transform="matrix(1.18125 -0.408836 -0.408836 -1.18125 223.852 820.906)" fill="#E7413B"/>
</g>
<g id="path4699">
<use xlink:href="#path178_fill" transform="matrix(1.18125 -0.408836 -0.408836 -1.18125 414.842 795.005)" fill="#09C6C8"/>
</g>
<g id="path4709">
<use xlink:href="#path179_fill" transform="matrix(1.18125 -0.408836 -0.408836 -1.18125 545.191 832.526)" fill="#09C6C8"/>
</g>
<g id="path4737">
<use xlink:href="#path180_fill" transform="matrix(1.18125 -0.408836 -0.408836 -1.18125 280.716 842.092)" fill="#039598"/>
</g>
<g id="path4757">
<use xlink:href="#path181_fill" transform="matrix(1.18125 -0.408836 -0.408836 -1.18125 443.498 808.361)" fill="#039598"/>
</g>
<g id="path4761">
<use xlink:href="#path182_fill" transform="matrix(1.18125 -0.408836 -0.408836 -1.18125 644.211 835.182)" fill="#FDCC65"/>
</g>
<g id="path4771">
<use xlink:href="#path183_fill" transform="matrix(1.18125 -0.408836 -0.408836 -1.18125 504.894 823.404)" fill="#FDCC65"/>
</g>
<g id="path4781">
<use xlink:href="#path184_fill" transform="matrix(1.18125 -0.408836 -0.408836 -1.18125 259.921 870.652)" fill="#E7413B"/>
</g>
<g id="path4787">
<use xlink:href="#path185_fill" transform="matrix(1.18125 -0.408836 -0.408836 -1.18125 312.406 858.358)" fill="#09C6C8"/>
</g>
<g id="path4855">
<use xlink:href="#path186_fill" transform="matrix(1.18125 -0.408836 -0.408836 -1.18125 387.441 871.642)" fill="#FDCC65"/>
</g>
</g>
</g>
</g>
</g>
</g>
<defs>
<path id="path0_fill" d="M 9.12148 4.50498C 9.12148 2.01394 7.07534 -1.58664e-06 4.56017 -1.58664e-06C 2.04501 -1.58664e-06 -1.28873e-05 2.01394 -1.28873e-05 4.50498C -1.28873e-05 6.98294 2.04501 9.00022 4.56017 9.00022C 7.07534 9.00022 9.12148 6.98294 9.12148 4.50498Z"/>
<path id="path1_fill" d="M 19.65 9.6984C 19.65 4.34272 15.2499 -2.765e-05 9.82338 -2.765e-05C 4.39465 -2.765e-05 -1.94852e-05 4.34272 -1.94852e-05 9.6984C -1.94852e-05 15.053 4.39465 19.3989 9.82338 19.3989C 15.2499 19.3989 19.65 15.053 19.65 9.6984Z"/>
<path id="path2_fill" d="M 4.30525 2.12722C 4.30525 0.958482 3.34287 1.29446e-05 2.15316 1.29446e-05C 0.964557 1.29446e-05 -6.51597e-06 0.958482 -6.51597e-06 2.12722C -6.51597e-06 3.29594 0.964557 4.25122 2.15316 4.25122C 3.34287 4.25122 4.30525 3.29594 4.30525 2.12722Z"/>
<path id="path3_fill" d="M 2.84956 1.40397C 2.84956 0.629528 2.21386 5.43713e-06 1.42588 5.43713e-06C 0.636779 5.43713e-06 -6.57867e-06 0.629528 -6.57867e-06 1.40397C -6.57867e-06 2.18167 0.636779 2.81344 1.42588 2.81344C 2.21386 2.81344 2.84956 2.18167 2.84956 1.40397Z"/>
<path id="path4_fill" d="M 11.779 5.81204C 11.779 2.59775 9.14244 2.51733e-05 5.88784 2.51733e-05C 2.63656 2.51733e-05 -1.0659e-06 2.59775 -1.0659e-06 5.81204C -1.0659e-06 9.02631 2.63656 11.6263 5.88784 11.6263C 9.14244 11.6263 11.779 9.02631 11.779 5.81204Z"/>
<path id="path5_fill" d="M 5.03251 2.48448C 5.03251 1.11207 3.90793 -2.34125e-05 2.51626 -2.34125e-05C 1.12569 -2.34125e-05 -2.90349e-06 1.11207 -2.90349e-06 2.48448C -2.90349e-06 3.86015 1.12569 4.9723 2.51626 4.9723C 3.90793 4.9723 5.03251 3.86015 5.03251 2.48448Z"/>
<path id="path6_fill" d="M 3.61217 1.78087C 3.61217 0.79621 2.80542 1.30801e-05 1.80994 1.30801e-05C 0.808961 1.30801e-05 -6.48221e-06 0.79621 -6.48221e-06 1.78087C -6.48221e-06 2.76551 0.808961 3.56498 1.80994 3.56498C 2.80542 3.56498 3.61217 2.76551 3.61217 1.78087Z"/>
<path id="path7_fill" d="M 8.04874 3.97676C 8.04874 1.77544 6.24761 1.6621e-05 4.02491 1.6621e-05C 1.80001 1.6621e-05 -5.38255e-06 1.77544 -5.38255e-06 3.97676C -5.38255e-06 6.16934 1.80001 7.94474 4.02491 7.94474C 6.24761 7.94474 8.04874 6.16934 8.04874 3.97676Z"/>
<path id="path8_fill" d="M 16.3624 8.08418C 16.3624 3.62167 12.6972 2.24257e-05 8.18008 2.24257e-05C 3.66514 2.24257e-05 -8.48861e-06 3.62167 -8.48861e-06 8.08418C -8.48861e-06 12.5369 3.66514 16.1618 8.18008 16.1618C 12.6972 16.1618 16.3624 12.5369 16.3624 8.08418Z"/>
<path id="path9_fill" d="M 3.40913 1.68284C 3.40913 0.756998 2.64427 2.22516e-07 1.70399 2.22516e-07C 0.763695 2.22516e-07 -3.31828e-06 0.756998 -3.31828e-06 1.68284C -3.31828e-06 2.60976 0.763695 3.36676 1.70399 3.36676C 2.64427 3.36676 3.40913 2.60976 3.40913 1.68284Z"/>
<path id="path10_fill" d="M 2.62108 1.29943C 2.62108 0.578375 2.03505 1.12999e-05 1.31107 1.12999e-05C 0.589292 1.12999e-05 -2.03534e-05 0.578375 -2.03534e-05 1.29943C -2.03534e-05 2.00851 0.589292 2.58688 1.31107 2.58688C 2.03505 2.58688 2.62108 2.00851 2.62108 1.29943Z"/>
<path id="path11_fill" d="M 2.28563 1.13169C 2.28563 0.509751 1.77356 2.53475e-06 1.14118 2.53475e-06C 0.511003 2.53475e-06 -2.17617e-05 0.509751 -2.17617e-05 1.13169C -2.17617e-05 1.75254 0.511003 2.25793 1.14118 2.25793C 1.77356 2.25793 2.28563 1.75254 2.28563 1.13169Z"/>
<path id="path12_fill" d="M 4.32841 2.13378C 4.32841 0.950888 3.36274 -1.56729e-05 2.16752 -1.56729e-05C 0.971191 -1.56729e-05 3.33757e-06 0.950888 3.33757e-06 2.13378C 3.33757e-06 3.3134 0.971191 4.26649 2.16752 4.26649C 3.36274 4.26649 4.32841 3.3134 4.32841 2.13378Z"/>
<path id="path13_fill" d="M 2.37939 1.17417C 2.37939 0.523909 1.84858 7.16888e-06 1.1864 7.16888e-06C 0.530843 7.16888e-06 -1.2675e-05 0.523909 -1.2675e-05 1.17417C -1.2675e-05 1.82443 0.530843 2.34837 1.1864 2.34837C 1.84858 2.34837 2.37939 1.82443 2.37939 1.17417Z"/>
<path id="path14_fill" d="M 4.20161 2.07063C 4.20161 0.924767 3.26177 1.96975e-05 2.10208 1.96975e-05C 0.939848 1.96975e-05 -4.6609e-08 0.924767 -4.6609e-08 2.07063C -4.6609e-08 3.21649 0.939848 4.1477 2.10208 4.1477C 3.26177 4.1477 4.20161 3.21649 4.20161 2.07063Z"/>
<path id="path15_fill" d="M 0.621349 0.30606C 0.621349 0.136148 0.481178 -2.04328e-05 0.313426 -2.04328e-05C 0.141268 -2.04328e-05 -1.39387e-05 0.136148 -1.39387e-05 0.30606C -1.39387e-05 0.475981 0.141268 0.61214 0.313426 0.61214C 0.481178 0.61214 0.621349 0.475981 0.621349 0.30606Z"/>
<path id="path16_fill" d="M 3.94876 1.94861C 3.94876 0.873557 3.06033 2.68374e-05 1.97106 2.68374e-05C 0.882884 2.68374e-05 -1.36397e-05 0.873557 -1.36397e-05 1.94861C -1.36397e-05 3.02586 0.882884 3.90046 1.97106 3.90046C 3.06033 3.90046 3.94876 3.02586 3.94876 1.94861Z"/>
<path id="path17_fill" d="M 5.89445 2.90711C 5.89445 1.3016 4.57564 1.09323e-05 2.94559 1.09323e-05C 1.31664 1.09323e-05 -1.11702e-05 1.3016 -1.11702e-05 2.90711C -1.11702e-05 4.51587 1.31664 5.81753 2.94559 5.81753C 4.57564 5.81753 5.89445 4.51587 5.89445 2.90711Z"/>
<path id="path18_fill" d="M 7.30931 3.6075C 7.30931 1.61641 5.67484 2.13422e-05 3.6541 2.13422e-05C 1.63668 2.13422e-05 1.39387e-06 1.61641 1.39387e-06 3.6075C 1.39387e-06 5.5986 1.63668 7.21607 3.6541 7.21607C 5.67484 7.21607 7.30931 5.5986 7.30931 3.6075Z"/>
<path id="path19_fill" d="M 7.83793 3.86344C 7.83793 1.7362 6.08209 4.08268e-06 3.92008 4.08268e-06C 1.75588 4.08268e-06 1.06301e-05 1.7362 1.06301e-05 3.86344C 1.06301e-05 6.00156 1.75588 7.73775 3.92008 7.73775C 6.08209 7.73775 7.83793 6.00156 7.83793 3.86344Z"/>
<path id="path20_fill" d="M 2.58359 1.27985C 2.58359 0.572953 2.00862 2.34899e-05 1.29348 2.34899e-05C 0.579423 2.34899e-05 -9.64615e-06 0.572953 -9.64615e-06 1.27985C -9.64615e-06 1.98239 0.579423 2.54983 1.29348 2.54983C 2.00862 2.54983 2.58359 1.98239 2.58359 1.27985Z"/>
<path id="path21_fill" d="M 10.7372 5.30123C 10.7372 2.37451 8.33129 -2.67987e-05 5.36694 -2.67987e-05C 2.40371 -2.67987e-05 4.90024e-06 2.37451 4.90024e-06 5.30123C 4.90024e-06 8.22578 2.40371 10.597 5.36694 10.597C 8.33129 10.597 10.7372 8.22578 10.7372 5.30123Z"/>
<path id="path22_fill" d="M 10.0684 4.96464C 10.0684 2.2209 7.81256 -7.50749e-06 5.03142 -7.50749e-06C 2.25249 -7.50749e-06 -3.762e-07 2.2209 -3.762e-07 4.96464C -3.762e-07 7.70946 2.25249 9.9369 5.03142 9.9369C 7.81256 9.9369 10.0684 7.70946 10.0684 4.96464Z"/>
<path id="path23_fill" d="M 2.58469 1.2733C 2.58469 0.572938 2.00418 1.93491e-08 1.29013 1.93491e-08C 0.57609 1.93491e-08 5.83592e-08 0.572938 5.83592e-08 1.2733C 5.83592e-08 1.97912 0.57609 2.55531 1.29013 2.55531C 2.00418 2.55531 2.58469 1.97912 2.58469 1.2733Z"/>
<path id="path24_fill" d="M 4.4079 2.17516C 4.4079 0.974847 3.42123 1.10387e-05 2.20173 1.10387e-05C 0.985526 1.10387e-05 -1.59161e-06 0.974847 -1.59161e-06 2.17516C -1.59161e-06 3.38311 0.985526 4.35685 2.20173 4.35685C 3.42123 4.35685 4.4079 3.38311 4.4079 2.17516Z"/>
<path id="path25_fill" d="M 12.1885 6.01903C 12.1885 2.698 9.45254 -2.52894e-05 6.09201 -2.52894e-05C 2.72927 -2.52894e-05 1.24049e-05 2.698 1.24049e-05 6.01903C 1.24049e-05 9.34004 2.72927 12.0326 6.09201 12.0326C 9.45254 12.0326 12.1885 9.34004 12.1885 6.01903Z"/>
<path id="path26_fill" d="M 3.2546 1.60553C 3.2546 0.717815 2.5295 -2.73985e-05 1.62784 -2.73985e-05C 0.731695 -2.73985e-05 -1.27908e-05 0.717815 -1.27908e-05 1.60553C -1.27908e-05 2.48779 0.731695 3.2143 1.62784 3.2143C 2.5295 3.2143 3.2546 2.48779 3.2546 1.60553Z"/>
<path id="path27_fill" d="M 1.35625 0.668782C 1.35625 0.299526 1.05187 2.51346e-05 0.677737 2.51346e-05C 0.302616 2.51346e-05 -4.86045e-07 0.299526 -4.86045e-07 0.668782C -4.86045e-07 1.03802 0.302616 1.33863 0.677737 1.33863C 1.05187 1.33863 1.35625 1.03802 1.35625 0.668782Z"/>
<path id="path28_fill" d="M 3.67507 1.8092C 3.67507 0.804951 2.85177 -8.43626e-06 1.83643 -8.43626e-06C 0.822203 -8.43626e-06 -3.52084e-06 0.804951 -3.52084e-06 1.8092C -3.52084e-06 2.80802 0.822203 3.61835 1.83643 3.61835C 2.85177 3.61835 3.67507 2.80802 3.67507 1.8092Z"/>
<path id="path29_fill" d="M 13.0868 6.45797C 13.0868 2.89624 10.1544 -1.3351e-05 6.54448 -1.3351e-05C 2.93121 -1.3351e-05 -1.30609e-05 2.89624 -1.30609e-05 6.45797C -1.30609e-05 10.0241 2.93121 12.9148 6.54448 12.9148C 10.1544 12.9148 13.0868 10.0241 13.0868 6.45797Z"/>
<path id="path30_fill" d="M 8.95263 4.41894C 8.95263 1.97692 6.95286 6.07565e-06 4.47853 6.07565e-06C 2.00641 6.07565e-06 5.20892e-06 1.97692 5.20892e-06 4.41894C 5.20892e-06 6.85552 2.00641 8.83788 4.47853 8.83788C 6.95286 8.83788 8.95263 6.85552 8.95263 4.41894Z"/>
<path id="path31_fill" d="M 1.62453 0.799499C 1.62453 0.351821 1.25596 1.43087e-05 0.810094 1.43087e-05C 0.365322 1.43087e-05 -2.08357e-06 0.351821 -2.08357e-06 0.799499C -2.08357e-06 1.24608 0.365322 1.60004 0.810094 1.60004C 1.25596 1.60004 1.62453 1.24608 1.62453 0.799499Z"/>
<path id="path32_fill" d="M 5.72008 2.81997C 5.72008 1.26241 4.44099 7.04311e-06 2.85729 7.04311e-06C 1.28463 7.04311e-06 -2.28807e-05 1.26241 -2.28807e-05 2.81997C -2.28807e-05 4.38518 1.28463 5.64756 2.85729 5.64756C 4.44099 5.64756 5.72008 4.38518 5.72008 2.81997Z"/>
<path id="path33_fill" d="M 18.3599 9.06228C 18.3599 4.0508 14.2522 1.98716e-05 9.18328 1.98716e-05C 4.11101 1.98716e-05 -7.69763e-06 4.0508 -7.69763e-06 9.06228C -7.69763e-06 14.0661 4.11101 18.1191 9.18328 18.1191C 14.2522 18.1191 18.3599 14.0661 18.3599 9.06228Z"/>
<path id="path34_fill" d="M 4.76104 2.35162C 4.76104 1.05001 3.69626 2.38382e-05 2.37964 2.38382e-05C 1.06654 2.38382e-05 8.28484e-07 1.05001 8.28484e-07 2.35162C 8.28484e-07 3.64778 1.06654 4.69777 2.37964 4.69777C 3.69626 4.69777 4.76104 3.64778 4.76104 2.35162Z"/>
<path id="path35_fill" d="M 3.06918 1.50966C 3.06918 0.678591 2.37941 4.8373e-07 1.53294 4.8373e-07C 0.688653 4.8373e-07 1.16043e-05 0.678591 1.16043e-05 1.50966C 1.16043e-05 2.34945 0.688653 3.03021 1.53294 3.03021C 2.37941 3.03021 3.06918 2.34945 3.06918 1.50966Z"/>
<path id="path36_fill" d="M 4.95859 2.45073C 4.95859 1.09792 3.84945 -2.49605e-05 2.47874 -2.49605e-05C 1.10914 -2.49605e-05 -1.4749e-05 1.09792 -1.4749e-05 2.45073C -1.4749e-05 3.80571 1.10914 4.90149 2.47874 4.90149C 3.84945 4.90149 4.95859 3.80571 4.95859 2.45073Z"/>
<path id="path37_fill" d="M 3.81081 1.88108C 3.81081 0.84306 2.95883 -2.1884e-05 1.90597 -2.1884e-05C 0.852006 -2.1884e-05 1.29065e-05 0.84306 1.29065e-05 1.88108C 1.29065e-05 2.91693 0.852006 3.76213 1.90597 3.76213C 2.95883 3.76213 3.81081 2.91693 3.81081 1.88108Z"/>
<path id="path38_fill" d="M 3.24909 1.60227C 3.24909 0.720004 2.51849 -2.2387e-05 1.62124 -2.2387e-05C 0.729519 -2.2387e-05 -2.59481e-06 0.720004 -2.59481e-06 1.60227C -2.59481e-06 2.48671 0.729519 3.20771 1.62124 3.20771C 2.51849 3.20771 3.24909 2.48671 3.24909 1.60227Z"/>
<path id="path39_fill" d="M 3.20492 1.58261C 3.20492 0.712323 2.48648 2.12067e-05 1.60137 2.12067e-05C 0.718467 2.12067e-05 -9.99341e-06 0.712323 -9.99341e-06 1.58261C -9.99341e-06 2.45398 0.718467 3.16525 1.60137 3.16525C 2.48648 3.16525 3.20492 2.45398 3.20492 1.58261Z"/>
<path id="path40_fill" d="M 4.51384 2.2242C 4.51384 0.993394 3.50511 1.30414e-05 2.25911 1.30414e-05C 1.01202 1.30414e-05 1.09966e-05 0.993394 1.09966e-05 2.2242C 1.09966e-05 3.45502 1.01202 4.45378 2.25911 4.45378C 3.50511 4.45378 4.51384 3.45502 4.51384 2.2242Z"/>
<path id="path41_fill" d="M 17.0433 8.4098C 17.0433 3.7643 13.2291 -2.81531e-05 8.52768 -2.81531e-05C 3.8141 -2.81531e-05 8.10276e-07 3.7643 8.10276e-07 8.4098C 8.10276e-07 13.0618 3.8141 16.8229 8.52768 16.8229C 13.2291 16.8229 17.0433 13.0618 17.0433 8.4098Z"/>
<path id="path42_fill" d="M 2.16422 1.06854C 2.16422 0.476006 1.68082 -1.84785e-05 1.07933 -1.84785e-05C 0.484477 -1.84785e-05 -1.43921e-05 0.476006 -1.43921e-05 1.06854C -1.43921e-05 1.65889 0.484477 2.13813 1.07933 2.13813C 1.68082 2.13813 2.16422 1.65889 2.16422 1.06854Z"/>
<path id="path43_fill" d="M 3.81954 1.88432C 3.81954 0.839773 2.96423 4.72121e-06 1.91148 4.72121e-06C 0.85531 4.72121e-06 -5.60547e-09 0.839773 -5.60547e-09 1.88432C -5.60547e-09 2.92235 0.85531 3.7676 1.91148 3.7676C 2.96423 3.7676 3.81954 2.92235 3.81954 1.88432Z"/>
<path id="path44_fill" d="M 1.83755 0.905153C 1.83755 0.399758 1.42807 -2.69728e-05 0.919297 -2.69728e-05C 0.411635 -2.69728e-05 1.92344e-05 0.399758 1.92344e-05 0.905153C 1.92344e-05 1.40729 0.411635 1.81027 0.919297 1.81027C 1.42807 1.81027 1.83755 1.40729 1.83755 0.905153Z"/>
<path id="path45_fill" d="M 8.07852 3.98219C 8.07852 1.78633 6.26749 -2.72824e-06 4.04148 -2.72824e-06C 1.80994 -2.72824e-06 -1.10738e-05 1.78633 -1.10738e-05 3.98219C -1.10738e-05 6.18676 1.80994 7.97308 4.04148 7.97308C 6.26749 7.97308 8.07852 6.18676 8.07852 3.98219Z"/>
<path id="path46_fill" d="M 5.0557 2.4932C 5.0557 1.11208 3.9256 -9.48111e-06 2.52952 -9.48111e-06C 1.12902 -9.48111e-06 1.38905e-06 1.11208 1.38905e-06 2.4932C 1.38905e-06 3.87105 1.12902 4.9864 2.52952 4.9864C 3.9256 4.9864 5.0557 3.87105 5.0557 2.4932Z"/>
<path id="path47_fill" d="M 8.40633 4.14771C 8.40633 1.84947 6.52683 3.01461e-05 4.19929 3.01461e-05C 1.88167 3.01461e-05 -1.45078e-05 1.84947 -1.45078e-05 4.14771C -1.45078e-05 6.43397 1.88167 8.29111 4.19929 8.29111C 6.52683 8.29111 8.40633 6.43397 8.40633 4.14771Z"/>
<path id="path48_fill" d="M 4.1033 2.02596C 4.1033 0.907326 3.18506 -2.12067e-05 2.04942 -2.12067e-05C 0.917109 -2.12067e-05 9.91624e-06 0.907326 9.91624e-06 2.02596C 9.91624e-06 3.14895 0.917109 4.05624 2.04942 4.05624C 3.18506 4.05624 4.1033 3.14895 4.1033 2.02596Z"/>
<path id="path49_fill" d="M 14.0844 6.95247C 14.0844 3.11733 10.927 -1.32542e-06 7.04113 -1.32542e-06C 3.15527 -1.32542e-06 -1.32152e-05 3.11733 -1.32152e-05 6.95247C -1.32152e-05 10.793 3.15527 13.9071 7.04113 13.9071C 10.927 13.9071 14.0844 10.793 14.0844 6.95247Z"/>
<path id="path50_fill" d="M 16.8083 8.29658C 16.8083 3.72077 13.0438 5.47583e-06 8.40194 5.47583e-06C 3.77222 5.47583e-06 1.84434e-05 3.72077 1.84434e-05 8.29658C 1.84434e-05 12.8778 3.77222 16.5931 8.40194 16.5931C 13.0438 16.5931 16.8083 12.8778 16.8083 8.29658Z"/>
<path id="path51_fill" d="M 4.89347 2.41696C 4.89347 1.07723 3.79537 1.06421e-06 2.44564 1.06421e-06C 1.0948 1.06421e-06 -2.44819e-05 1.07723 -2.44819e-05 2.41696C -2.44819e-05 3.7469 1.0948 4.82739 2.44564 4.82739C 3.79537 4.82739 4.89347 3.7469 4.89347 2.41696Z"/>
<path id="path52_fill" d="M 3.16741 1.56628C 3.16741 0.701446 2.4622 2.13809e-05 1.58261 2.13809e-05C 0.708532 2.13809e-05 4.61086e-06 0.701446 4.61086e-06 1.56628C 4.61086e-06 2.42241 0.708532 3.13151 1.58261 3.13151C 2.4622 3.13151 3.16741 2.42241 3.16741 1.56628Z"/>
<path id="path53_fill" d="M 2.18076 1.07721C 2.18076 0.479229 1.69408 6.50133e-06 1.08819 6.50133e-06C 0.491121 6.50133e-06 9.75226e-06 0.479229 9.75226e-06 1.07721C 9.75226e-06 1.67302 0.491121 2.15883 1.08819 2.15883C 1.69408 2.15883 2.18076 1.67302 2.18076 1.07721Z"/>
<path id="path54_fill" d="M 1.23463 0.606689C 1.23463 0.272295 0.957065 -2.94688e-05 0.616485 -2.94688e-05C 0.275906 -2.94688e-05 5.93238e-08 0.272295 5.93238e-08 0.606689C 5.93238e-08 0.941083 0.275906 1.21341 0.616485 1.21341C 0.957065 1.21341 1.23463 0.941083 1.23463 0.606689Z"/>
<path id="path55_fill" d="M 3.7457 1.84625C 3.7457 0.822378 2.90695 2.81338e-05 1.87285 2.81338e-05C 0.83765 2.81338e-05 -2.18003e-06 0.822378 -2.18003e-06 1.84625C -2.18003e-06 2.86465 0.83765 3.69246 1.87285 3.69246C 2.90695 3.69246 3.7457 2.86465 3.7457 1.84625Z"/>
<path id="path56_fill" d="M 11.1455 5.50275C 11.1455 2.46492 8.65022 1.59437e-05 5.57222 1.59437e-05C 2.4942 1.59437e-05 -2.66234e-06 2.46492 -2.66234e-06 5.50275C -2.66234e-06 8.54384 2.4942 11.0054 5.57222 11.0054C 8.65022 11.0054 11.1455 8.54384 11.1455 5.50275Z"/>
<path id="path57_fill" d="M 14.0823 6.95245C 14.0823 3.11732 10.9292 -2.27353e-05 7.04111 -2.27353e-05C 3.15304 -2.27353e-05 2.37102e-05 3.11732 2.37102e-05 6.95245C 2.37102e-05 10.7898 3.15304 13.9017 7.04111 13.9017C 10.9292 13.9017 14.0823 10.7898 14.0823 6.95245Z"/>
<path id="path58_fill" d="M 18.3566 9.05898C 18.3566 4.05076 14.2489 -1.39508e-05 9.17886 -1.39508e-05C 4.11321 -1.39508e-05 6.28929e-06 4.05076 6.28929e-06 9.05898C 6.28929e-06 14.0628 4.11321 18.117 9.17886 18.117C 14.2489 18.117 18.3566 14.0628 18.3566 9.05898Z"/>
<path id="path59_fill" d="M 5.21022 2.5673C 5.21022 1.15241 4.04368 2.5154e-05 2.60455 2.5154e-05C 1.16544 2.5154e-05 3.14947e-06 1.15241 3.14947e-06 2.5673C 3.14947e-06 3.99091 1.16544 5.13676 2.60455 5.13676C 4.04368 5.13676 5.21022 3.99091 5.21022 2.5673Z"/>
<path id="path60_fill" d="M 6.86341 3.38167C 6.86341 1.51177 5.32381 -1.19101e-06 3.43128 -1.19101e-06C 1.53876 -1.19101e-06 -9.69695e-06 1.51177 -9.69695e-06 3.38167C -9.69695e-06 5.24177 1.53876 6.75604 3.43128 6.75604C 5.32381 6.75604 6.86341 5.24177 6.86341 3.38167Z"/>
<path id="path61_fill" d="M 6.97883 3.43404C 6.97883 1.53879 5.41849 -1.51055e-05 3.4886 -1.51055e-05C 1.56369 -1.51055e-05 2.06496e-06 1.53879 2.06496e-06 3.43404C 2.06496e-06 5.33256 1.56369 6.86887 3.4886 6.86887C 5.41849 6.86887 6.97883 5.33256 6.97883 3.43404Z"/>
<path id="path62_fill" d="M 14.7856 7.28013C 14.7856 3.25987 11.4747 -2.07556e-05 7.39155 -2.07556e-05C 3.30673 -2.07556e-05 -1.46616e-05 3.25987 -1.46616e-05 7.28013C -1.46616e-05 11.2996 3.30673 14.5619 7.39155 14.5619C 11.4747 14.5619 14.7856 11.2996 14.7856 7.28013Z"/>
<path id="path63_fill" d="M 1.88372 0.928C 1.88372 0.414535 1.46203 1.83735e-05 0.942027 1.83735e-05C 0.423016 1.83735e-05 1.04119e-06 0.414535 1.04119e-06 0.928C 1.04119e-06 1.43984 0.423016 1.85435 0.942027 1.85435C 1.46203 1.85435 1.88372 1.43984 1.88372 0.928Z"/>
<path id="path64_fill" d="M 3.23946 1.5968C 3.23946 0.719487 2.51533 9.71691e-06 1.62014 9.71691e-06C 0.725776 9.71691e-06 -4.90291e-06 0.719487 -4.90291e-06 1.5968C -4.90291e-06 2.47411 0.725776 3.19119 1.62014 3.19119C 2.51533 3.19119 3.23946 2.47411 3.23946 1.5968Z"/>
<path id="path65_fill" d="M 2.14413 1.0539C 2.14413 0.472557 1.6658 4.08139e-06 1.07289 4.08139e-06C 0.479141 4.08139e-06 -4.95009e-06 0.472557 -4.95009e-06 1.0539C -4.95009e-06 1.63767 0.479141 2.11192 1.07289 2.11192C 1.6658 2.11192 2.14413 1.63767 2.14413 1.0539Z"/>
<path id="path66_fill" d="M 8.86305 4.36283C 8.86305 1.95001 6.87918 1.88964e-05 4.43028 1.88964e-05C 1.98387 1.88964e-05 -8.02031e-07 1.95001 -8.02031e-07 4.36283C -8.02031e-07 6.77563 1.98387 8.72731 4.43028 8.72731C 6.87918 8.72731 8.86305 6.77563 8.86305 4.36283Z"/>
<path id="path67_fill" d="M 3.78669 1.86498C 3.78669 0.834777 2.9405 -1.75747e-05 1.89334 -1.75747e-05C 0.847019 -1.75747e-05 -2.18472e-06 0.834777 -2.18472e-06 1.86498C -2.18472e-06 2.89763 0.847019 3.73247 1.89334 3.73247C 2.9405 3.73247 3.78669 2.89763 3.78669 1.86498Z"/>
<path id="path68_fill" d="M 2.71796 1.33681C 2.71796 0.597677 2.11093 9.81859e-06 1.36188 9.81859e-06C 0.608698 9.81859e-06 -4.87751e-06 0.597677 -4.87751e-06 1.33681C -4.87751e-06 2.07594 0.608698 2.67606 1.36188 2.67606C 2.11093 2.67606 2.71796 2.07594 2.71796 1.33681Z"/>
<path id="path69_fill" d="M 6.05623 2.98517C 6.05623 1.33274 4.70098 1.24766e-05 3.02852 1.24766e-05C 1.35441 1.24766e-05 -4.05007e-06 1.33274 -4.05007e-06 2.98517C -4.05007e-06 4.63104 1.35441 5.96374 3.02852 5.96374C 4.70098 5.96374 6.05623 4.63104 6.05623 2.98517Z"/>
<path id="path70_fill" d="M 12.3118 6.06841C 12.3118 2.71861 9.55396 1.68339e-05 6.15506 1.68339e-05C 2.75781 1.68339e-05 -6.38721e-06 2.71861 -6.38721e-06 6.06841C -6.38721e-06 9.41086 2.75781 12.1319 6.15506 12.1319C 9.55396 12.1319 12.3118 9.41086 12.3118 6.06841Z"/>
<path id="path71_fill" d="M 3.24362 1.59683C 3.24362 0.717072 2.51451 -4.82215e-06 1.61933 -4.82215e-06C 0.728287 -4.82215e-06 -2.16439e-05 0.717072 -2.16439e-05 1.59683C -2.16439e-05 2.47823 0.728287 3.19362 1.61933 3.19362C 2.51451 3.19362 3.24362 2.47823 3.24362 1.59683Z"/>
<path id="path72_fill" d="M 2.56518 1.26323C 2.56518 0.568242 1.98967 1.67032e-07 1.28216 1.67032e-07C 0.574639 1.67032e-07 -2.49682e-06 0.568242 -2.49682e-06 1.26323C -2.49682e-06 1.95902 0.574639 2.52727 1.28216 2.52727C 1.98967 2.52727 2.56518 1.95902 2.56518 1.26323Z"/>
<path id="path73_fill" d="M 1.97222 0.975422C 1.97222 0.434159 1.53127 8.48233e-06 0.98651 8.48233e-06C 0.44341 8.48233e-06 -1.53148e-05 0.434159 -1.53148e-05 0.975422C -1.53148e-05 1.50769 0.44341 1.94185 0.98651 1.94185C 1.53127 1.94185 1.97222 1.50769 1.97222 0.975422Z"/>
<path id="path74_fill" d="M 1.71981 0.849506C 1.71981 0.382646 1.3345 1.90271e-06 0.858674 1.90271e-06C 0.384502 1.90271e-06 -1.63745e-05 0.382646 -1.63745e-05 0.849506C -1.63745e-05 1.31555 0.384502 1.69492 0.858674 1.69492C 1.3345 1.69492 1.71981 1.31555 1.71981 0.849506Z"/>
<path id="path75_fill" d="M 3.25689 1.60173C 3.25689 0.713786 2.53028 -1.17649e-05 1.63094 -1.17649e-05C 0.730768 -1.17649e-05 2.51134e-06 0.713786 2.51134e-06 1.60173C 2.51134e-06 2.48721 0.730768 3.20265 1.63094 3.20265C 2.53028 3.20265 3.25689 2.48721 3.25689 1.60173Z"/>
<path id="path76_fill" d="M 1.79036 0.881395C 1.79036 0.393274 1.39096 5.38134e-06 0.892703 5.38134e-06C 0.39943 5.38134e-06 -9.53727e-06 0.393274 -9.53727e-06 0.881395C -9.53727e-06 1.36952 0.39943 1.76281 0.892703 1.76281C 1.39096 1.76281 1.79036 1.36952 1.79036 0.881395Z"/>
<path id="path77_fill" d="M 3.16148 1.55432C 3.16148 0.694179 2.4543 1.4786e-05 1.5817 1.4786e-05C 0.707184 1.4786e-05 -3.50707e-08 0.694179 -3.50707e-08 1.55432C -3.50707e-08 2.41446 0.707184 3.11349 1.5817 3.11349C 2.4543 3.11349 3.16148 2.41446 3.16148 1.55432Z"/>
<path id="path78_fill" d="M 4.60632 2.26156C 4.60632 1.00978 3.57494 1.16196e-07 2.30275 1.16196e-07C 1.03553 1.16196e-07 -9.07275e-07 1.00978 -9.07275e-07 2.26156C -9.07275e-07 3.51579 1.03553 4.52798 2.30275 4.52798C 3.57494 4.52798 4.60632 3.51579 4.60632 2.26156Z"/>
<path id="path79_fill" d="M 0.466966 0.229291C 0.466966 0.101998 0.361623 -1.53076e-05 0.235551 -1.53076e-05C 0.106168 -1.53076e-05 -1.04754e-05 0.101998 -1.04754e-05 0.229291C -1.04754e-05 0.356591 0.106168 0.458597 0.235551 0.458597C 0.361623 0.458597 0.466966 0.356591 0.466966 0.229291Z"/>
<path id="path80_fill" d="M 2.97122 1.46273C 2.97122 0.655738 2.30273 2.01455e-05 1.48311 2.01455e-05C 0.664322 2.01455e-05 -1.02631e-05 0.655738 -1.02631e-05 1.46273C -1.02631e-05 2.27137 0.664322 2.92789 1.48311 2.92789C 2.30273 2.92789 2.97122 2.27137 2.97122 1.46273Z"/>
<path id="path81_fill" d="M 4.43525 2.18223C 4.43525 0.977052 3.44292 8.20636e-06 2.2164 8.20636e-06C 0.990697 8.20636e-06 -8.40499e-06 0.977052 -8.40499e-06 2.18223C -8.40499e-06 3.38985 0.990697 4.36695 2.2164 4.36695C 3.44292 4.36695 4.43525 3.38985 4.43525 2.18223Z"/>
<path id="path82_fill" d="M 5.49985 2.70798C 5.49985 1.21336 4.27 1.60206e-05 2.74951 1.60206e-05C 1.23151 1.60206e-05 1.04881e-06 1.21336 1.04881e-06 2.70798C 1.04881e-06 4.2026 1.23151 5.41676 2.74951 5.41676C 4.27 5.41676 5.49985 4.2026 5.49985 2.70798Z"/>
<path id="path83_fill" d="M 4.27664 2.10537C 4.27664 0.943528 3.32001 -4.80762e-06 2.13665 -4.80762e-06C 0.958293 -4.80762e-06 5.80655e-08 0.943528 5.80655e-08 2.10537C 5.80655e-08 3.27048 0.958293 4.21075 2.13665 4.21075C 3.32001 4.21075 4.27664 3.27048 4.27664 2.10537Z"/>
<path id="path84_fill" d="M 5.89761 2.9001C 5.89761 1.30328 4.57644 3.06468e-06 2.94965 3.06468e-06C 1.3212 3.06468e-06 7.99853e-06 1.30328 7.99853e-06 2.9001C 7.99853e-06 4.50509 1.3212 5.80837 2.94965 5.80837C 4.57644 5.80837 5.89761 4.50509 5.89761 2.9001Z"/>
<path id="path85_fill" d="M 1.94401 0.960725C 1.94401 0.430089 1.51138 1.76328e-05 0.973271 1.76328e-05C 0.435984 1.76328e-05 -7.2582e-06 0.430089 -7.2582e-06 0.960725C -7.2582e-06 1.48809 0.435984 1.91403 0.973271 1.91403C 1.51138 1.91403 1.94401 1.48809 1.94401 0.960725Z"/>
<path id="path86_fill" d="M 8.07914 3.97939C 8.07914 1.78243 6.26883 -2.01165e-05 4.03833 -2.01165e-05C 1.80866 -2.01165e-05 3.68716e-06 1.78243 3.68716e-06 3.97939C 3.68716e-06 6.1747 1.80866 7.95466 4.03833 7.95466C 6.26883 7.95466 8.07914 6.1747 8.07914 3.97939Z"/>
<path id="path87_fill" d="M 7.5759 3.72672C 7.5759 1.66712 5.87852 -5.63552e-06 3.78586 -5.63552e-06C 1.69487 -5.63552e-06 -2.8307e-07 1.66712 -2.8307e-07 3.72672C -2.8307e-07 5.78713 1.69487 7.45916 3.78586 7.45916C 5.87852 7.45916 7.5759 5.78713 7.5759 3.72672Z"/>
<path id="path88_fill" d="M 1.94484 0.955805C 1.94484 0.430078 1.50804 1.45245e-08 0.970756 1.45245e-08C 0.433476 1.45245e-08 4.39121e-08 0.430078 4.39121e-08 0.955805C 4.39121e-08 1.48563 0.433476 1.91815 0.970756 1.91815C 1.50804 1.91815 1.94484 1.48563 1.94484 0.955805Z"/>
<path id="path89_fill" d="M 10.4491 5.14448C 10.4491 2.30161 8.11152 -2.2484e-05 5.2225 -2.2484e-05C 2.33846 -2.2484e-05 1.99963e-06 2.30161 1.99963e-06 5.14448C 1.99963e-06 7.98899 2.33846 10.2906 5.2225 10.2906C 8.11152 10.2906 10.4491 7.98899 10.4491 5.14448Z"/>
<path id="path90_fill" d="M 3.3167 1.63279C 3.3167 0.731772 2.57429 8.28625e-06 1.65668 8.28625e-06C 0.741554 8.28625e-06 -1.1976e-06 0.731772 -1.1976e-06 1.63279C -1.1976e-06 2.53954 0.741554 3.27048 1.65668 3.27048C 2.57429 3.27048 3.3167 2.53954 3.3167 1.63279Z"/>
<path id="path91_fill" d="M 9.17115 4.5182C 9.17115 2.02526 7.11252 -1.89836e-05 4.5839 -1.89836e-05C 2.05362 -1.89836e-05 9.33404e-06 2.02526 9.33404e-06 4.5182C 9.33404e-06 7.01113 2.05362 9.03229 4.5839 9.03229C 7.11252 9.03229 9.17115 7.01113 9.17115 4.5182Z"/>
<path id="path92_fill" d="M 2.44891 1.2052C 2.44891 0.53883 1.90331 -2.05667e-05 1.22486 -2.05667e-05C 0.55056 -2.05667e-05 -9.62437e-06 0.53883 -9.62437e-06 1.2052C -9.62437e-06 1.86747 0.55056 2.41282 1.22486 2.41282C 1.90331 2.41282 2.44891 1.86747 2.44891 1.2052Z"/>
<path id="path93_fill" d="M 1.0205 0.502023C 1.0205 0.22484 0.791472 1.88674e-05 0.50996 1.88674e-05C 0.227702 1.88674e-05 -3.65722e-07 0.22484 -3.65722e-07 0.502023C -3.65722e-07 0.779191 0.227702 1.00484 0.50996 1.00484C 0.791472 1.00484 1.0205 0.779191 1.0205 0.502023Z"/>
<path id="path94_fill" d="M 2.76529 1.35808C 2.76529 0.604239 2.1458 -6.3327e-06 1.38182 -6.3327e-06C 0.618663 -6.3327e-06 -2.64924e-06 0.604239 -2.64924e-06 1.35808C -2.64924e-06 2.10785 0.618663 2.71613 1.38182 2.71613C 2.1458 2.71613 2.76529 2.10785 2.76529 1.35808Z"/>
<path id="path95_fill" d="M 9.84709 4.84769C 9.84709 2.17407 7.64065 -1.00219e-05 4.92436 -1.00219e-05C 2.20557 -1.00219e-05 -9.8276e-06 2.17407 -9.8276e-06 4.84769C -9.8276e-06 7.52459 2.20557 9.69453 4.92436 9.69453C 7.64065 9.69453 9.84709 7.52459 9.84709 4.84769Z"/>
<path id="path96_fill" d="M 6.73636 3.31709C 6.73636 1.48398 5.23164 4.5607e-06 3.36985 4.5607e-06C 1.50971 4.5607e-06 3.91943e-06 1.48398 3.91943e-06 3.31709C 3.91943e-06 5.14611 1.50971 6.63418 3.36985 6.63418C 5.23164 6.63418 6.73636 5.14611 6.73636 3.31709Z"/>
<path id="path97_fill" d="M 1.22237 0.600146C 1.22237 0.264096 0.945042 1.07409e-05 0.609551 1.07409e-05C 0.274885 1.07409e-05 -1.56777e-06 0.264096 -1.56777e-06 0.600146C -1.56777e-06 0.935372 0.274885 1.20108 0.609551 1.20108C 0.945042 1.20108 1.22237 0.935372 1.22237 0.600146Z"/>
<path id="path98_fill" d="M 4.30405 2.11682C 4.30405 0.947629 3.3416 5.28693e-06 2.14995 5.28693e-06C 0.96661 5.28693e-06 -1.72164e-05 0.947629 -1.72164e-05 2.11682C -1.72164e-05 3.29174 0.96661 4.23935 2.14995 4.23935C 3.3416 4.23935 4.30405 3.29174 4.30405 2.11682Z"/>
<path id="path99_fill" d="M 13.8148 6.80263C 13.8148 3.04074 10.724 1.49167e-05 6.90991 1.49167e-05C 3.09331 1.49167e-05 -5.79204e-06 3.04074 -5.79204e-06 6.80263C -5.79204e-06 10.5588 3.09331 13.6012 6.90991 13.6012C 10.724 13.6012 13.8148 10.5588 13.8148 6.80263Z"/>
<path id="path100_fill" d="M 3.76594 1.8511C 3.76594 0.829884 2.92225 -1.14018e-05 1.88174 -1.14018e-05C 0.842059 -1.14018e-05 -5.16784e-06 0.829884 -5.16784e-06 1.8511C -5.16784e-06 2.8764 0.842059 3.70465 1.88174 3.70465C 2.92225 3.70465 3.76594 2.8764 3.76594 1.8511Z"/>
<path id="path101_fill" d="M 10.4674 5.1535C 10.4674 2.30653 8.12563 1.37983e-05 5.23329 1.37983e-05C 2.3451 1.37983e-05 -8.73887e-06 2.30653 -8.73887e-06 5.1535C -8.73887e-06 8.00128 2.3451 10.3069 5.23329 10.3069C 8.12563 10.3069 10.4674 8.00128 10.4674 5.1535Z"/>
<path id="path102_fill" d="M 3.58242 1.76525C 3.58242 0.788196 2.78123 1.78942e-05 1.79055 1.78942e-05C 0.802516 1.78942e-05 6.23388e-07 0.788196 6.23388e-07 1.76525C 6.23388e-07 2.73822 0.802516 3.52639 1.79055 3.52639C 2.78123 3.52639 3.58242 2.73822 3.58242 1.76525Z"/>
<path id="path103_fill" d="M 3.01856 1.48724C 3.01856 0.669614 2.3426 1.99131e-05 1.50969 1.99131e-05C 0.67595 1.99131e-05 -1.05244e-07 0.669614 -1.05244e-07 1.48724C -1.05244e-07 2.30404 0.67595 2.97369 1.50969 2.97369C 2.3426 2.97369 3.01856 2.30404 3.01856 1.48724Z"/>
<path id="path104_fill" d="M 7.64067 3.76269C 7.64067 1.68266 5.93084 1.67613e-05 3.81991 1.67613e-05C 1.709 1.67613e-05 -1.04155e-06 1.68266 -1.04155e-06 3.76269C -1.04155e-06 5.84027 1.709 7.52622 3.81991 7.52622C 5.93084 7.52622 7.64067 5.84027 7.64067 3.76269Z"/>
<path id="path105_fill" d="M 7.73974 3.80686C 7.73974 1.70312 6.00724 2.20047e-05 3.86958 2.20047e-05C 1.73184 2.20047e-05 7.78804e-07 1.70312 7.78804e-07 3.80686C 7.78804e-07 5.91469 1.73184 7.61778 3.86958 7.61778C 6.00724 7.61778 7.73974 5.91469 7.73974 3.80686Z"/>
<path id="path106_fill" d="M 2.30939 1.13323C 2.30939 0.509386 1.79038 3.63114e-07 1.15345 3.63114e-07C 0.518173 3.63114e-07 8.73161e-06 0.509386 8.73161e-06 1.13323C 8.73161e-06 1.76362 0.518173 2.27463 1.15345 2.27463C 1.79038 2.27463 2.30939 1.76362 2.30939 1.13323Z"/>
<path id="path107_fill" d="M 3.73106 1.83965C 3.73106 0.824158 2.8965 -1.87367e-05 1.86512 -1.87367e-05C 0.834565 -1.87367e-05 -1.10978e-05 0.824158 -1.10978e-05 1.83965C -1.10978e-05 2.85676 0.834565 3.67932 1.86512 3.67932C 2.8965 3.67932 3.73106 2.85676 3.73106 1.83965Z"/>
<path id="path108_fill" d="M 2.86743 1.41204C 2.86743 0.632845 2.22636 -1.64273e-05 1.43414 -1.64273e-05C 0.641087 -1.64273e-05 9.71147e-06 0.632845 9.71147e-06 1.41204C 9.71147e-06 2.1896 0.641087 2.82405 1.43414 2.82405C 2.22636 2.82405 2.86743 2.1896 2.86743 1.41204Z"/>
<path id="path109_fill" d="M 2.44476 1.20275C 2.44476 0.540473 1.89503 -1.68049e-05 1.2199 -1.68049e-05C 0.548923 -1.68049e-05 -1.95246e-06 0.540473 -1.95246e-06 1.20275C -1.95246e-06 1.86666 0.548923 2.40788 1.2199 2.40788C 1.89503 2.40788 2.44476 1.86666 2.44476 1.20275Z"/>
<path id="path110_fill" d="M 2.41153 1.18799C 2.41153 0.534707 1.87094 1.59189e-05 1.20494 1.59189e-05C 0.540607 1.59189e-05 -7.51949e-06 0.534707 -7.51949e-06 1.18799C -7.51949e-06 1.84208 0.540607 2.376 1.20494 2.376C 1.87094 2.376 2.41153 1.84208 2.41153 1.18799Z"/>
<path id="path111_fill" d="M 3.39641 1.66961C 3.39641 0.745694 2.6374 9.78954e-06 1.69986 9.78954e-06C 0.761486 9.78954e-06 8.27435e-06 0.745694 8.27435e-06 1.66961C 8.27435e-06 2.59352 0.761486 3.34324 1.69986 3.34324C 2.6374 3.34324 3.39641 2.59352 3.39641 1.66961Z"/>
<path id="path112_fill" d="M 12.8241 6.31284C 12.8241 2.82568 9.95419 -2.11332e-05 6.41661 -2.11332e-05C 2.8699 -2.11332e-05 6.09689e-07 2.82568 6.09689e-07 6.31284C 6.09689e-07 9.80491 2.8699 12.6282 6.41661 12.6282C 9.95419 12.6282 12.8241 9.80491 12.8241 6.31284Z"/>
<path id="path113_fill" d="M 1.62846 0.802104C 1.62846 0.357315 1.26472 -1.38709e-05 0.812136 -1.38709e-05C 0.364542 -1.38709e-05 -1.08292e-05 0.357315 -1.08292e-05 0.802104C -1.08292e-05 1.24525 0.364542 1.60499 0.812136 1.60499C 1.26472 1.60499 1.62846 1.24525 1.62846 0.802104Z"/>
<path id="path114_fill" d="M 2.87399 1.41447C 2.87399 0.630378 2.23042 3.54399e-06 1.43828 3.54399e-06C 0.643574 3.54399e-06 -4.21781e-09 0.630378 -4.21781e-09 1.41447C -4.21781e-09 2.19367 0.643574 2.82816 1.43828 2.82816C 2.23042 2.82816 2.87399 2.19367 2.87399 1.41447Z"/>
<path id="path115_fill" d="M 5.26925 2.59349C 5.26925 1.16184 4.09039 -4.53166e-06 2.63392 -4.53166e-06C 1.17977 -4.53166e-06 -5.13971e-08 1.16184 -5.13971e-08 2.59349C -5.13971e-08 4.02515 1.17977 5.18784 2.63392 5.18784C 4.09039 5.18784 5.26925 4.02515 5.26925 2.59349Z"/>
<path id="path116_fill" d="M 2.00296 0.988521C 2.00296 0.445608 1.55537 -9.51357e-06 1.00066 -9.51357e-06C 0.449261 -9.51357e-06 -3.12102e-07 0.445608 -3.12102e-07 0.988521C -3.12102e-07 1.53305 0.449261 1.9721 1.00066 1.9721C 1.55537 1.9721 2.00296 1.53305 2.00296 0.988521Z"/>
<path id="path117_fill" d="M 6.07864 2.98924C 6.07864 1.34092 4.71594 -2.04796e-06 3.04099 -2.04796e-06C 1.36188 -2.04796e-06 -8.33241e-06 1.34092 -8.33241e-06 2.98924C -8.33241e-06 4.64411 1.36188 5.98502 3.04099 5.98502C 4.71594 5.98502 6.07864 4.64411 6.07864 2.98924Z"/>
<path id="path118_fill" d="M 0.804664 0.395736C 0.804664 0.176617 0.624459 -1.27525e-05 0.401086 -1.27525e-05C 0.181852 -1.27525e-05 2.35891e-06 0.176617 2.35891e-06 0.395736C 2.35891e-06 0.613225 0.181852 0.791484 0.401086 0.791484C 0.624459 0.791484 0.804664 0.613225 0.804664 0.395736Z"/>
<path id="path119_fill" d="M 3.80414 1.87152C 3.80414 0.834786 2.9538 -7.11702e-06 1.90333 -7.11702e-06C 0.849525 -7.11702e-06 1.04518e-06 0.834786 1.04518e-06 1.87152C 1.04518e-06 2.90582 0.849525 3.74306 1.90333 3.74306C 2.9538 3.74306 3.80414 2.90582 3.80414 1.87152Z"/>
<path id="path120_fill" d="M 7.94801 3.91559C 7.94801 1.75216 6.16743 2.46917e-07 3.97263 2.46917e-07C 1.77983 2.46917e-07 1.20849e-07 1.75216 1.20849e-07 3.91559C 1.20849e-07 6.07656 1.77983 7.82464 3.97263 7.82464C 6.16743 7.82464 7.94801 6.07656 7.94801 3.91559Z"/>
<path id="path121_fill" d="M 6.3253 3.11349C 6.3253 1.38831 4.91108 2.26292e-05 3.15973 2.26292e-05C 1.41585 2.26292e-05 -1.09163e-05 1.38831 -1.09163e-05 3.11349C -1.09163e-05 4.82968 1.41585 6.22374 3.15973 6.22374C 4.91108 6.22374 6.3253 4.82968 6.3253 3.11349Z"/>
<path id="path122_fill" d="M 3.08751 1.52079C 3.08751 0.681087 2.39658 -1.59189e-05 1.54208 -1.59189e-05C 0.690074 -1.59189e-05 7.46143e-06 0.681087 7.46143e-06 1.52079C 7.46143e-06 2.36377 0.690074 3.04483 1.54208 3.04483C 2.39658 3.04483 3.08751 2.36377 3.08751 1.52079Z"/>
<path id="path123_fill" d="M 10.5978 5.21889C 10.5978 2.34003 8.22197 -9.94931e-07 5.29807 -9.94931e-07C 2.37417 -9.94931e-07 -9.94373e-06 2.34003 -9.94373e-06 5.21889C -9.94373e-06 8.10182 2.37417 10.4394 5.29807 10.4394C 8.22197 10.4394 10.5978 8.10182 10.5978 5.21889Z"/>
<path id="path124_fill" d="M 12.6473 6.22785C 12.6473 2.79301 9.81473 4.11044e-06 6.32199 4.11044e-06C 2.83839 4.11044e-06 1.38777e-05 2.79301 1.38777e-05 6.22785C 1.38777e-05 9.66677 2.83839 12.4557 6.32199 12.4557C 9.81473 12.4557 12.6473 9.66677 12.6473 6.22785Z"/>
<path id="path125_fill" d="M 3.68206 1.8143C 3.68206 0.808628 2.85581 7.9885e-07 1.84021 7.9885e-07C 0.823775 7.9885e-07 -1.84213e-05 0.808628 -1.84213e-05 1.8143C -1.84213e-05 2.81262 0.823775 3.62369 1.84021 3.62369C 2.85581 3.62369 3.68206 2.81262 3.68206 1.8143Z"/>
<path id="path126_fill" d="M 2.3833 1.17573C 2.3833 0.526542 1.85267 1.60496e-05 1.19082 1.60496e-05C 0.533132 1.60496e-05 3.46942e-06 0.526542 3.46942e-06 1.17573C 3.46942e-06 1.81838 0.533132 2.35068 1.19082 2.35068C 1.85267 2.35068 2.3833 1.81838 2.3833 1.17573Z"/>
<path id="path127_fill" d="M 1.6409 0.808613C 1.6409 0.359735 1.2747 4.88024e-06 0.8188 4.88024e-06C 0.369542 4.88024e-06 7.33804e-06 0.359735 7.33804e-06 0.808613C 7.33804e-06 1.25586 0.369542 1.62053 0.8188 1.62053C 1.2747 1.62053 1.6409 1.25586 1.6409 0.808613Z"/>
<path id="path128_fill" d="M 0.928988 0.455413C 0.928988 0.204399 0.720139 -2.21209e-05 0.463871 -2.21209e-05C 0.207604 -2.21209e-05 4.46379e-08 0.204399 4.46379e-08 0.455413C 4.46379e-08 0.706427 0.207604 0.910848 0.463871 0.910848C 0.720139 0.910848 0.928988 0.706427 0.928988 0.455413Z"/>
<path id="path129_fill" d="M 2.81844 1.38589C 2.81844 0.61732 2.18732 2.11187e-05 1.40922 2.11187e-05C 0.630286 2.11187e-05 -1.64035e-06 0.61732 -1.64035e-06 1.38589C -1.64035e-06 2.15036 0.630286 2.77176 1.40922 2.77176C 2.18732 2.77176 2.81844 2.15036 2.81844 1.38589Z"/>
<path id="path130_fill" d="M 8.38639 4.13065C 8.38639 1.8503 6.50882 1.19682e-05 4.19279 1.19682e-05C 1.87675 1.19682e-05 -2.00326e-06 1.8503 -2.00326e-06 4.13065C -2.00326e-06 6.41346 1.87675 8.26125 4.19279 8.26125C 6.50882 8.26125 8.38639 6.41346 8.38639 4.13065Z"/>
<path id="path131_fill" d="M 10.5961 5.21888C 10.5961 2.34003 8.22361 -1.70663e-05 5.29805 -1.70663e-05C 2.37249 -1.70663e-05 1.78406e-05 2.34003 1.78406e-05 5.21888C 1.78406e-05 8.09936 2.37249 10.4353 5.29805 10.4353C 8.22361 10.4353 10.5961 8.09936 10.5961 5.21888Z"/>
<path id="path132_fill" d="M 5.80627 2.86167C 5.80627 1.27958 4.50917 1.69647e-05 2.9048 1.69647e-05C 1.30044 1.69647e-05 4.41298e-06 1.27958 4.41298e-06 2.86167C 4.41298e-06 4.43723 1.30044 5.71928 2.9048 5.71928C 4.50917 5.71928 5.80627 4.43723 5.80627 2.86167Z"/>
<path id="path133_fill" d="M 1.19497 0.58705C 1.19497 0.257558 0.925089 -1.37547e-05 0.594585 -1.37547e-05C 0.265731 -1.37547e-05 2.80166e-06 0.257558 2.80166e-06 0.58705C 2.80166e-06 0.915739 0.265731 1.17493 0.594585 1.17493C 0.925089 1.17493 1.19497 0.915739 1.19497 0.58705Z"/>
<path id="path134_fill" d="M 13.8123 6.80015C 13.8123 3.04072 10.7215 -1.04722e-05 6.90659 -1.04722e-05C 3.09497 -1.04722e-05 4.73234e-06 3.04072 4.73234e-06 6.80015C 4.73234e-06 10.5563 3.09497 13.5995 6.90659 13.5995C 10.7215 13.5995 13.8123 10.5563 13.8123 6.80015Z"/>
<path id="path135_fill" d="M 3.9204 1.92715C 3.9204 0.865063 3.04265 1.88819e-05 1.95978 1.88819e-05C 0.876928 1.88819e-05 2.3698e-06 0.865063 2.3698e-06 1.92715C 2.3698e-06 2.99579 0.876928 3.85592 1.95978 3.85592C 3.04265 3.85592 3.9204 2.99579 3.9204 1.92715Z"/>
<path id="path136_fill" d="M 1.39231 0.685913C 1.39231 0.306396 1.08063 1.35804e-05 0.696281 1.35804e-05C 0.312664 1.35804e-05 7.69574e-07 0.306396 7.69574e-07 0.685913C 7.69574e-07 1.06423 0.312664 1.3706 0.696281 1.3706C 1.08063 1.3706 1.39231 1.06423 1.39231 0.685913Z"/>
<path id="path137_fill" d="M 2.39439 1.18024C 2.39439 0.531795 1.85915 7.18207e-06 1.19749 7.18207e-06C 0.536443 7.18207e-06 -3.62389e-06 0.531795 -3.62389e-06 1.18024C -3.62389e-06 1.82869 0.536443 2.3587 1.19749 2.3587C 1.85915 2.3587 2.39439 1.82869 2.39439 1.18024Z"/>
<path id="path138_fill" d="M 1.58479 0.778966C 1.58479 0.349281 1.23125 3.01668e-06 0.793007 3.01668e-06C 0.354148 3.01668e-06 -3.65876e-06 0.349281 -3.65876e-06 0.778966C -3.65876e-06 1.21045 0.354148 1.56098 0.793007 1.56098C 1.23125 1.56098 1.58479 1.21045 1.58479 0.778966Z"/>
<path id="path139_fill" d="M 6.55095 3.2247C 6.55095 1.44131 5.08461 1.39669e-05 3.27455 1.39669e-05C 1.46634 1.39669e-05 -5.92805e-07 1.44131 -5.92805e-07 3.2247C -5.92805e-07 5.00807 1.46634 6.45062 3.27455 6.45062C 5.08461 6.45062 6.55095 5.00807 6.55095 3.2247Z"/>
<path id="path140_fill" d="M 2.79886 1.37846C 2.79886 0.617009 2.17341 -1.299e-05 1.39943 -1.299e-05C 0.626057 -1.299e-05 -1.61479e-06 0.617009 -1.61479e-06 1.37846C -1.61479e-06 2.14173 0.626057 2.75878 1.39943 2.75878C 2.17341 2.75878 2.79886 2.14173 2.79886 1.37846Z"/>
<path id="path141_fill" d="M 2.00893 0.988078C 2.00893 0.441761 1.56025 7.25722e-06 1.00661 7.25722e-06C 0.449908 7.25722e-06 -3.60511e-06 0.441761 -3.60511e-06 0.988078C -3.60511e-06 1.53439 0.449908 1.97796 1.00661 1.97796C 1.56025 1.97796 2.00893 1.53439 2.00893 0.988078Z"/>
<path id="path142_fill" d="M 4.47635 2.20643C 4.47635 0.98507 3.47464 9.22182e-06 2.23847 9.22182e-06C 1.00108 9.22182e-06 -2.99353e-06 0.98507 -2.99353e-06 2.20643C -2.99353e-06 3.42294 1.00108 4.40798 2.23847 4.40798C 3.47464 4.40798 4.47635 3.42294 4.47635 2.20643Z"/>
<path id="path143_fill" d="M 9.10001 4.48535C 9.10001 2.00941 7.06162 1.24425e-05 4.54939 1.24425e-05C 2.03838 1.24425e-05 -4.72098e-06 2.00941 -4.72098e-06 4.48535C -4.72098e-06 6.95585 2.03838 8.96703 4.54939 8.96703C 7.06162 8.96703 9.10001 6.95585 9.10001 4.48535Z"/>
<path id="path144_fill" d="M 1.896 0.933689C 1.896 0.420005 1.47063 1.23459e-07 0.947682 1.23459e-07C 0.424733 1.23459e-07 -1.84548e-06 0.420005 -1.84548e-06 0.933689C -1.84548e-06 1.44797 0.424733 1.86798 0.947682 1.86798C 1.47063 1.86798 1.896 1.44797 1.896 0.933689Z"/>
<path id="path145_fill" d="M 2.40727 1.18389C 2.40727 0.527581 1.8702 -8.69578e-06 1.20548 -8.69578e-06C 0.540133 -8.69578e-06 1.8562e-06 0.527581 1.8562e-06 1.18389C 1.8562e-06 1.83837 0.540133 2.36717 1.20548 2.36717C 1.8702 2.36717 2.40727 1.83837 2.40727 1.18389Z"/>
<path id="path146_fill" d="M 1.32331 0.651466C 1.32331 0.290681 1.0281 3.97751e-06 0.659824 3.97751e-06C 0.295231 3.97751e-06 -7.04929e-06 0.290681 -7.04929e-06 0.651466C -7.04929e-06 1.01225 0.295231 1.30294 0.659824 1.30294C 1.0281 1.30294 1.32331 1.01225 1.32331 0.651466Z"/>
<path id="path147_fill" d="M 2.33675 1.14885C 2.33675 0.513089 1.81405 1.09288e-05 1.16908 1.09288e-05C 0.522701 1.09288e-05 -2.59218e-08 0.513089 -2.59218e-08 1.14885C -2.59218e-08 1.7846 0.522701 2.30127 1.16908 2.30127C 1.81405 2.30127 2.33675 1.7846 2.33675 1.14885Z"/>
<path id="path148_fill" d="M 0.345149 0.169476C 0.345149 0.07539 0.267286 -1.13143e-05 0.174103 -1.13143e-05C 0.078472 -1.13143e-05 -7.74271e-06 0.07539 -7.74271e-06 0.169476C -7.74271e-06 0.263567 0.078472 0.338963 0.174103 0.338963C 0.267286 0.338963 0.345149 0.263567 0.345149 0.169476Z"/>
<path id="path149_fill" d="M 4.06511 2.00155C 4.06511 0.896835 3.15609 1.18413e-05 2.03225 1.18413e-05C 0.910246 1.18413e-05 7.75207e-07 0.896835 7.75207e-07 2.00155C 7.75207e-07 3.10627 0.910246 4.00369 2.03225 4.00369C 3.15609 4.00369 4.06511 3.10627 4.06511 2.00155Z"/>
<path id="path150_fill" d="M 3.161 1.55614C 3.161 0.69739 2.45392 -3.55346e-06 1.57927 -3.55346e-06C 0.708303 -3.55346e-06 4.2918e-08 0.69739 4.2918e-08 1.55614C 4.2918e-08 2.41731 0.708303 3.11229 1.57927 3.11229C 2.45392 3.11229 3.161 2.41731 3.161 1.55614Z"/>
<path id="path151_fill" d="M 0.90773 0.446004C 0.90773 0.198229 0.704874 1.0349e-05 0.453896 1.0349e-05C 0.203778 1.0349e-05 -3.63932e-07 0.198229 -3.63932e-07 0.446004C -3.63932e-07 0.690757 0.203778 0.893206 0.453896 0.893206C 0.704874 0.893206 0.90773 0.690757 0.90773 0.446004Z"/>
<path id="path152_fill" d="M 5.97154 2.94129C 5.97154 1.31745 4.63349 -1.48687e-05 2.98485 -1.48687e-05C 1.33684 -1.48687e-05 2.7253e-06 1.31745 2.7253e-06 2.94129C 2.7253e-06 4.56391 1.33684 5.87953 2.98485 5.87953C 4.63349 5.87953 5.97154 4.56391 5.97154 2.94129Z"/>
<path id="path153_fill" d="M 5.59958 2.75453C 5.59958 1.23222 4.34499 -4.16538e-06 2.79825 -4.16538e-06C 1.25273 -4.16538e-06 -2.09225e-07 1.23222 -2.09225e-07 2.75453C -2.09225e-07 4.27744 1.25273 5.51329 2.79825 5.51329C 4.34499 5.51329 5.59958 4.27744 5.59958 2.75453Z"/>
<path id="path154_fill" d="M 1.43749 0.706465C 1.43749 0.317883 1.11464 1.07355e-08 0.717515 1.07355e-08C 0.320395 1.07355e-08 3.24568e-08 0.317883 3.24568e-08 0.706465C 3.24568e-08 1.09807 0.320395 1.41776 0.717515 1.41776C 1.11464 1.41776 1.43749 1.09807 1.43749 0.706465Z"/>
<path id="path155_fill" d="M 7.72328 3.80244C 7.72328 1.70119 5.99547 -1.66186e-05 3.86011 -1.66186e-05C 1.72843 -1.66186e-05 1.47799e-06 1.70119 1.47799e-06 3.80244C 1.47799e-06 5.90491 1.72843 7.6061 3.86011 7.6061C 5.99547 7.6061 7.72328 5.90491 7.72328 3.80244Z"/>
<path id="path156_fill" d="M 2.45147 1.20685C 2.45147 0.540875 1.90273 6.12462e-06 1.2245 6.12462e-06C 0.548105 6.12462e-06 -8.85184e-07 0.540875 -8.85184e-07 1.20685C -8.85184e-07 1.87705 0.548105 2.41731 1.2245 2.41731C 1.90273 2.41731 2.45147 1.87705 2.45147 1.20685Z"/>
<path id="path157_fill" d="M 0.754283 0.371061C 0.754283 0.166186 0.585001 1.39454e-05 0.376927 1.39454e-05C 0.168301 1.39454e-05 -2.70317e-07 0.166186 -2.70317e-07 0.371061C -2.70317e-07 0.575924 0.168301 0.742711 0.376927 0.742711C 0.585001 0.742711 0.754283 0.575924 0.754283 0.371061Z"/>
<path id="path158_fill" d="M 2.04391 1.0038C 2.04391 0.446611 1.58603 -4.68069e-06 1.02134 -4.68069e-06C 0.457272 -4.68069e-06 -1.95814e-06 0.446611 -1.95814e-06 1.0038C -1.95814e-06 1.55797 0.457272 2.00757 1.02134 2.00757C 1.58603 2.00757 2.04391 1.55797 2.04391 1.0038Z"/>
<path id="path159_fill" d="M 4.97905 2.45176C 4.97905 1.09685 3.86687 3.37096e-06 2.49076 3.37096e-06C 1.11588 3.37096e-06 2.89697e-06 1.09685 2.89697e-06 2.45176C 2.89697e-06 3.80365 1.11588 4.90352 2.49076 4.90352C 3.86687 4.90352 4.97905 3.80365 4.97905 2.45176Z"/>
<path id="path160_fill" d="M 0.90349 0.443587C 0.90349 0.195201 0.698509 7.93892e-06 0.450538 7.93892e-06C 0.203176 7.93892e-06 -1.15879e-06 0.195201 -1.15879e-06 0.443587C -1.15879e-06 0.691362 0.203176 0.887752 0.450538 0.887752C 0.698509 0.887752 0.90349 0.691362 0.90349 0.443587Z"/>
<path id="path161_fill" d="M 3.18125 1.56461C 3.18125 0.700422 2.46988 3.90773e-06 1.58909 3.90773e-06C 0.714451 3.90773e-06 -1.27252e-05 0.700422 -1.27252e-05 1.56461C -1.27252e-05 2.43303 0.714451 3.13344 1.58909 3.13344C 2.46988 3.13344 3.18125 2.43303 3.18125 1.56461Z"/>
<path id="path162_fill" d="M 10.211 5.02803C 10.211 2.24751 7.92645 1.10254e-05 5.10733 1.10254e-05C 2.28636 1.10254e-05 -4.28107e-06 2.24751 -4.28107e-06 5.02803C -4.28107e-06 7.80432 2.28636 10.053 5.10733 10.053C 7.92645 10.053 10.211 7.80432 10.211 5.02803Z"/>
<path id="path163_fill" d="M 2.78352 1.3682C 2.78352 0.613393 2.15993 -8.42739e-06 1.39085 -8.42739e-06C 0.622391 -8.42739e-06 -3.8197e-06 0.613393 -3.8197e-06 1.3682C -3.8197e-06 2.12603 0.622391 2.73822 1.39085 2.73822C 2.15993 2.73822 2.78352 2.12603 2.78352 1.3682Z"/>
<path id="path164_fill" d="M 2.64788 1.30475C 2.64788 0.582579 2.0557 1.32262e-05 1.32345 1.32262e-05C 0.593164 1.32262e-05 4.60765e-07 0.582579 4.60765e-07 1.30475C 4.60765e-07 2.0239 0.593164 2.60646 1.32345 2.60646C 2.0557 2.60646 2.64788 2.0239 2.64788 1.30475Z"/>
<path id="path165_fill" d="M 2.23111 1.09927C 2.23111 0.494932 1.73148 1.47184e-05 1.11586 1.47184e-05C 0.499615 1.47184e-05 -7.77889e-08 0.494932 -7.77889e-08 1.09927C -7.77889e-08 1.70299 0.499615 2.19795 1.11586 2.19795C 1.73148 2.19795 2.23111 1.70299 2.23111 1.09927Z"/>
<path id="path166_fill" d="M 5.64745 2.78112C 5.64745 1.24371 4.38366 1.23888e-05 2.82342 1.23888e-05C 1.26318 1.23888e-05 -7.69842e-07 1.24371 -7.69842e-07 2.78112C -7.69842e-07 4.31672 1.26318 5.56286 2.82342 5.56286C 4.38366 5.56286 5.64745 4.31672 5.64745 2.78112Z"/>
<path id="path167_fill" d="M 5.72068 2.81376C 5.72068 1.25883 4.44013 1.62643e-05 2.86012 1.62643e-05C 1.28005 1.62643e-05 5.75638e-07 1.25883 5.75638e-07 2.81376C 5.75638e-07 4.37173 1.28005 5.63053 2.86012 5.63053C 4.44013 5.63053 5.72068 4.37173 5.72068 2.81376Z"/>
<path id="path168_fill" d="M 1.70694 0.837606C 1.70694 0.376503 1.32332 2.68388e-07 0.85255 2.68388e-07C 0.382998 2.68388e-07 6.4538e-06 0.376503 6.4538e-06 0.837606C 6.4538e-06 1.30355 0.382998 1.68125 0.85255 1.68125C 1.32332 1.68125 1.70694 1.30355 1.70694 0.837606Z"/>
<path id="path169_fill" d="M 2.75774 1.35974C 2.75774 0.60916 2.14089 -1.38488e-05 1.37857 -1.38488e-05C 0.616853 -1.38488e-05 -8.20271e-06 0.60916 -8.20271e-06 1.35974C -8.20271e-06 2.11152 0.616853 2.7195 1.37857 2.7195C 2.14089 2.7195 2.75774 2.11152 2.75774 1.35974Z"/>
<path id="path170_fill" d="M 2.1194 1.04368C 2.1194 0.467755 1.64557 -1.21419e-05 1.06002 -1.21419e-05C 0.473847 -1.21419e-05 7.17804e-06 0.467755 7.17804e-06 1.04368C 7.17804e-06 1.6184 0.473847 2.08734 1.06002 2.08734C 1.64557 2.08734 2.1194 1.6184 2.1194 1.04368Z"/>
<path id="path171_fill" d="M 1.807 0.88899C 1.807 0.39948 1.40067 -1.2421e-05 0.901663 -1.2421e-05C 0.405725 -1.2421e-05 -1.44312e-06 0.39948 -1.44312e-06 0.88899C -1.44312e-06 1.3797 0.405725 1.77974 0.901663 1.77974C 1.40067 1.77974 1.807 1.3797 1.807 0.88899Z"/>
<path id="path172_fill" d="M 1.78243 0.878077C 1.78243 0.395218 1.38287 1.17661e-05 0.890611 1.17661e-05C 0.399579 1.17661e-05 -5.55788e-06 0.395218 -5.55788e-06 0.878077C -5.55788e-06 1.36154 0.399579 1.75618 0.890611 1.75618C 1.38287 1.75618 1.78243 1.36154 1.78243 0.878077Z"/>
<path id="path173_fill" d="M 2.51039 1.23406C 2.51039 0.551165 1.94938 7.23575e-06 1.25641 7.23575e-06C 0.562837 7.23575e-06 6.11582e-06 0.551165 6.11582e-06 1.23406C 6.11582e-06 1.91695 0.562837 2.47109 1.25641 2.47109C 1.94938 2.47109 2.51039 1.91695 2.51039 1.23406Z"/>
<path id="path174_fill" d="M 2.12426 1.04548C 2.12426 0.465931 1.64857 2.61947e-06 1.06308 2.61947e-06C 0.475685 2.61947e-06 -3.11751e-09 0.465931 -3.11751e-09 1.04548C -3.11751e-09 1.62141 0.475685 2.09038 1.06308 2.09038C 1.64857 2.09038 2.12426 1.62141 2.12426 1.04548Z"/>
<path id="path175_fill" d="M 3.89466 1.91693C 3.89466 0.85875 3.02333 -3.34948e-06 1.94681 -3.34948e-06C 0.872007 -3.34948e-06 -3.79892e-08 0.85875 -3.79892e-08 1.91693C -3.79892e-08 2.97511 0.872007 3.83449 1.94681 3.83449C 3.02333 3.83449 3.89466 2.97511 3.89466 1.91693Z"/>
<path id="path176_fill" d="M 1.48045 0.730646C 1.48045 0.329362 1.14962 -7.03177e-06 0.739615 -7.03177e-06C 0.332062 -7.03177e-06 -2.30684e-07 0.329362 -2.30684e-07 0.730646C -2.30684e-07 1.13312 0.332062 1.45764 0.739615 1.45764C 1.14962 1.45764 1.48045 1.13312 1.48045 0.730646Z"/>
<path id="path177_fill" d="M 1.61358 0.796495C 1.61358 0.355944 1.25249 -1.372e-05 0.806577 -1.372e-05C 0.360599 -1.372e-05 -1.81664e-07 0.355944 -1.81664e-07 0.796495C -1.81664e-07 1.23645 0.360599 1.5924 0.806577 1.5924C 1.25249 1.5924 1.61358 1.23645 1.61358 0.796495Z"/>
<path id="path178_fill" d="M 0.594752 0.2925C 0.594752 0.130543 0.461557 -9.42579e-06 0.296455 -9.42579e-06C 0.134413 -9.42579e-06 1.74355e-06 0.130543 1.74355e-06 0.2925C 1.74355e-06 0.453253 0.134413 0.58501 0.296455 0.58501C 0.461557 0.58501 0.594752 0.453253 0.594752 0.2925Z"/>
<path id="path179_fill" d="M 2.81175 1.3833C 2.81175 0.617016 2.18324 -5.26041e-06 1.40681 -5.26041e-06C 0.62791 -5.26041e-06 7.72525e-07 0.617016 7.72525e-07 1.3833C 7.72525e-07 2.14778 0.62791 2.76661 1.40681 2.76661C 2.18324 2.76661 2.81175 2.14778 2.81175 1.3833Z"/>
<path id="path180_fill" d="M 5.87462 2.89413C 5.87462 1.29507 4.55853 1.82504e-07 2.9363 1.82504e-07C 1.31553 1.82504e-07 8.93232e-08 1.29507 8.93232e-08 2.89413C 8.93232e-08 4.49137 1.31553 5.78343 2.9363 5.78343C 4.55853 5.78343 5.87462 4.49137 5.87462 2.89413Z"/>
<path id="path181_fill" d="M 2.28207 1.12407C 2.28207 0.503412 1.77139 -1.17661e-05 1.1398 -1.17661e-05C 0.510055 -1.17661e-05 5.51497e-06 0.503412 5.51497e-06 1.12407C 5.51497e-06 1.74713 0.510055 2.25052 1.1398 2.25052C 1.77139 2.25052 2.28207 1.74713 2.28207 1.12407Z"/>
<path id="path182_fill" d="M 7.83314 3.85744C 7.83314 1.72959 6.07711 -7.35384e-07 3.91596 -7.35384e-07C 1.75482 -7.35384e-07 -7.34971e-06 1.72959 -7.34971e-06 3.85744C -7.34971e-06 5.98831 1.75482 7.71609 3.91596 7.71609C 6.07711 7.71609 7.83314 5.98831 7.83314 3.85744Z"/>
<path id="path183_fill" d="M 1.76157 0.869019C 1.76157 0.389183 1.36937 1.18628e-05 0.880174 1.18628e-05C 0.394054 1.18628e-05 2.56435e-06 0.389183 2.56435e-06 0.869019C 2.56435e-06 1.34402 0.394054 1.73746 0.880174 1.73746C 1.36937 1.73746 1.76157 1.34402 1.76157 0.869019Z"/>
<path id="path184_fill" d="M 0.686644 0.33661C 0.686644 0.151078 0.532276 -1.63502e-05 0.342861 -1.63502e-05C 0.153447 -1.63502e-05 3.29932e-08 0.151078 3.29932e-08 0.33661C 3.29932e-08 0.522141 0.153447 0.673235 0.342861 0.673235C 0.532276 0.673235 0.686644 0.522141 0.686644 0.33661Z"/>
<path id="path185_fill" d="M 2.08319 1.02435C 2.08319 0.45628 1.61671 1.56095e-05 1.0416 1.56095e-05C 0.465863 1.56095e-05 -1.21243e-06 0.45628 -1.21243e-06 1.02435C -1.21243e-06 1.5894 0.465863 2.04869 1.0416 2.04869C 1.61671 2.04869 2.08319 1.5894 2.08319 1.02435Z"/>
<path id="path186_fill" d="M 2.89769 1.42442C 2.89769 0.639394 2.24891 1.39562e-05 1.44854 1.39562e-05C 0.648164 1.39562e-05 1.75159e-06 0.639394 1.75159e-06 1.42442C 1.75159e-06 2.21428 0.648164 2.85003 1.44854 2.85003C 2.24891 2.85003 2.89769 2.21428 2.89769 1.42442Z"/>
</defs>
</svg>
