<?xml version="1.0" encoding="UTF-8" standalone="no"?>
<!-- Created with Inkscape (http://www.inkscape.org/) -->

<svg
   xmlns:dc="http://purl.org/dc/elements/1.1/"
   xmlns:cc="http://creativecommons.org/ns#"
   xmlns:rdf="http://www.w3.org/1999/02/22-rdf-syntax-ns#"
   xmlns:svg="http://www.w3.org/2000/svg"
   xmlns="http://www.w3.org/2000/svg"
   xmlns:sodipodi="http://sodipodi.sourceforge.net/DTD/sodipodi-0.dtd"
   xmlns:inkscape="http://www.inkscape.org/namespaces/inkscape"
   id="svg33393"
   version="1.1"
   inkscape:version="0.91 r13725"
   width="300"
   height="137"
   viewBox="0 0 300 137"
   sodipodi:docname="logo_ex.svg">
  <metadata
     id="metadata33399">
    <rdf:RDF>
      <cc:Work
         rdf:about="">
        <dc:format>image/svg+xml</dc:format>
        <dc:type
           rdf:resource="http://purl.org/dc/dcmitype/StillImage" />
        <dc:title></dc:title>
      </cc:Work>
    </rdf:RDF>
  </metadata>
  <defs
     id="defs33397" />
  <sodipodi:namedview
     pagecolor="#ffffff"
     bordercolor="#666666"
     borderopacity="1"
     objecttolerance="10"
     gridtolerance="10"
     guidetolerance="10"
     inkscape:pageopacity="0"
     inkscape:pageshadow="2"
     inkscape:window-width="1863"
     inkscape:window-height="1056"
     id="namedview33395"
     showgrid="false"
     inkscape:zoom="3.8391406"
     inkscape:cx="150"
     inkscape:cy="68.5"
     inkscape:window-x="57"
     inkscape:window-y="24"
     inkscape:window-maximized="1"
     inkscape:current-layer="svg33393" />
  <path
     style="fill:#ffffff;fill-opacity:1"
     d="m 60.413872,113.08626 c 0.06301,-2.93676 0.43552,-3.49753 2.325026,-3.5 2.789448,-0.004 3.11284,3.62159 0.5,5.60501 -2.592458,1.96796 -2.907373,1.73331 -2.825026,-2.10501 z m 3.575026,-1.00294 c 0,-0.825 -0.45,-1.5 -1,-1.5 -0.55,0 -1,0.675 -1,1.5 0,0.825 0.45,1.5 1,1.5 0.55,0 1,-0.675 1,-1.5 z m 118.491522,1.25 c -0.30062,-1.2375 -0.42169,-22.500001 -0.26905,-47.250003 l 0.27753,-45 49,0 49,0 0.27753,45 c 0.15264,24.750002 0.0316,46.012503 -0.26905,47.250003 l -0.54658,2.25 -48.4619,0 -48.4619,0 -0.54658,-2.25 z m 96.26857,-45.500003 -0.26009,-45.75 -47.25,-0.259792 -47.25,-0.259791 0,46.009791 0,46.009795 47.51009,0 47.51009,0 -0.26009,-45.750003 z m -86.76009,24.186642 0,-9.563359 3.14915,0.313359 c 4.43784,0.441589 5.81949,3.031625 3.64603,6.83483 -1.53771,2.69075 -1.56222,3.38736 -0.25,7.10658 1.71704,4.866621 1.71763,4.871951 0.53519,4.871951 -0.5058,0 -1.7433,-2.362501 -2.75,-5.250001 l -1.83037,-5.25 -0.30226,5.25 c -0.5213,9.054591 -2.19774,5.764351 -2.19774,-4.31336 z m 5.81955,-5.19686 c 0.2427,-1.701143 -0.17815,-2.239782 -1.75,-2.239782 -1.55658,0 -2.06955,0.63784 -2.06955,2.573322 0,3.28234 3.34535,2.99021 3.81955,-0.33354 z m 5.60409,13.421831 c -0.28247,-0.736121 -0.38085,-4.898621 -0.21861,-9.250001 l 0.29497,-7.911612 3.25,-0.313358 c 1.82556,-0.176017 3.25,0.152701 3.25,0.75 0,0.584847 -1.125,1.063358 -2.5,1.063358 -3.28039,0 -3.46465,3.671422 -0.25,4.981162 l 2.25,0.91672 -2.25,0.66769 c -1.83245,0.54378 -2.25,1.38836 -2.25,4.55106 0,3.47559 0.26251,3.88337 2.5,3.88337 1.375,0 2.5,0.450001 2.5,1.000001 0,1.5085 -5.98583,1.2005 -6.57636,-0.33839 z m 10.57636,-8.161611 c 0,-5.225 0.39237,-9.500002 0.87193,-9.500002 0.47956,0 1.56826,2.3625 2.41933,5.250002 l 1.54741,5.25 0.0807,-5.25 c 0.0443,-2.887502 0.53063,-5.250002 1.08063,-5.250002 0.59794,0 1,3.900002 1,9.700002 0,10.386771 -0.8997,11.242441 -3.40899,3.24214 l -1.39327,-4.44214 -0.0989,5.25 c -0.0543,2.8875 -0.54884,5.250001 -1.09884,5.250001 -0.59649,0 -1,-3.833331 -1,-9.500001 z m 10.75,8.924601 c -0.4125,-0.41686 -0.75,-4.770431 -0.75,-9.674601 0,-10.336164 1.30156,-11.207006 4.03941,-2.70267 l 1.75541,5.45267 0.10259,-5.75 c 0.0578,-3.239396 0.5556,-5.750002 1.14012,-5.750002 0.66264,0 0.93363,3.34221 0.75,9.250002 -0.15814,5.0875 -0.68251,9.250001 -1.16527,9.250001 -0.48275,0 -1.6606,-2.475001 -2.61744,-5.500001 l -1.73972,-5.5 -0.38255,5.84127 c -0.2104,3.21269 -0.72005,5.500191 -1.13255,5.083331 z m 10.91667,-0.0913 c -0.36667,-0.36663 -0.66667,-4.641631 -0.66667,-9.499971 l 0,-8.833332 3.55902,0 c 2.11803,0 3.30878,0.404882 2.94098,1 -0.33992,0.55 -1.49148,1 -2.55902,1 -1.40371,0 -1.94098,0.692005 -1.94098,2.500002 0,1.55555 0.56667,2.5 1.5,2.5 0.825,0 1.5,0.45 1.5,1 0,0.55 -0.675,1 -1.5,1 -1.08333,0 -1.5,1.11111 -1.5,4 0,3.6 0.25,4 2.5,4 1.375,0 2.5,0.450001 2.5,1.000001 0,1.10888 -5.2799,1.38676 -6.33333,0.33333 z m 11,0 c -1.26356,-1.263561 -0.66063,-1.991921 1.58333,-1.912731 1.89041,0.0667 2.21532,-0.39361 2.03303,-2.8803 -0.11934,-1.62783 -1.16045,-4.23581 -2.31359,-5.79551 -2.75817,-3.73059 -2.29871,-7.244762 0.94723,-7.244762 1.32916,0 2.59236,0.527091 2.8071,1.171314 0.24839,0.745175 -0.35796,0.975602 -1.66667,0.633368 -2.68416,-0.701926 -2.59457,0.474805 0.48866,6.41758 2.08819,4.02491 2.36224,5.38951 1.52475,7.59229 -0.9615,2.528931 -3.82423,3.598401 -5.40384,2.018781 z M 19.388898,111.03619 c 0,-1.89908 0.507063,-3.45287 1.126807,-3.45287 0.683187,0 0.95346,1.18109 0.686501,3 -0.50104,3.4138 0.998782,3.96299 3.004096,1.1 1.630996,-2.32857 8.782596,-2.73572 8.782596,-0.5 0,0.77 0.0904,1.7375 0.200898,2.15 0.110494,0.4125 -2.949506,0.84129 -6.8,0.95287 l -7.000898,0.20287 0,-3.45287 z m 16.964193,2.05382 c -0.346367,-0.90262 -0.150254,-2.12063 0.435807,-2.70669 1.523609,-1.52361 4.41041,-0.13109 4.012423,1.93549 -0.443302,2.30188 -3.647668,2.85743 -4.44823,0.7712 z m 2.318921,-1.69419 c -0.319226,-0.79773 -0.556183,-0.56078 -0.604167,0.60417 -0.04342,1.05416 0.192928,1.64479 0.52522,1.3125 0.332291,-0.3323 0.367818,-1.1948 0.07895,-1.91667 z m 2.816886,0.66055 c 0,-1.89798 0.523205,-2.47305 2.25,-2.47305 1.60483,0 2.25,0.59041 2.25,2.05902 0,1.13246 0.407754,1.80701 0.90612,1.499 0.498366,-0.30801 0.655127,-1.51981 0.348358,-2.6929 -0.403096,-1.54144 -0.16909,-1.99766 0.84388,-1.64526 0.770903,0.2682 1.269415,1.22844 1.107805,2.13388 -0.16161,0.90544 0.17589,1.64626 0.75,1.64626 0.57411,0 1.043837,-0.64679 1.043837,-1.43732 0,-1.02024 1.164765,-1.42125 4.013958,-1.38192 4.357443,0.0601 5.32479,0.7729 4.382298,3.229 -0.864597,2.2531 -2.887047,1.97051 -4.721832,-0.65976 -1.520189,-2.17928 -1.571169,-2.18562 -1.621972,-0.20164 -0.04609,1.79992 -0.749831,2.06954 -5.802452,2.22305 -5.49705,0.16701 -5.75,0.0659 -5.75,-2.29836 z m 3.5,0.0269 c 0,-0.825 -0.45,-1.5 -1,-1.5 -0.55,0 -1,0.675 -1,1.5 0,0.825 0.45,1.5 1,1.5 0.55,0 1,-0.675 1,-1.5 z m 12.683114,-0.6875 c -0.319226,-0.79773 -0.556183,-0.56078 -0.604167,0.60417 -0.04342,1.05416 0.192928,1.64479 0.52522,1.3125 0.332291,-0.3323 0.367818,-1.1948 0.07895,-1.91667 z m 8.566886,0.6875 c 0,-1.93939 0.513889,-2.5 2.291667,-2.5 1.260416,0 2.51864,-0.5625 2.796052,-1.25 0.277413,-0.6875 0.539913,0.23906 0.583334,2.05902 0.04702,1.97098 0.489904,3.05503 1.095259,2.6809 0.558971,-0.34546 0.75545,-1.0502 0.436618,-1.56608 -0.318832,-0.51588 0.169244,-1.22536 1.084613,-1.57662 0.948981,-0.36416 2.044151,-0.0388 2.548069,0.75706 0.546798,0.86356 0.889601,0.95089 0.899075,0.22905 0.0093,-0.70677 1.720906,-1.16666 4.342055,-1.16666 3.818833,0 4.308022,0.25409 4.167274,2.16455 -0.147736,2.00533 -0.753228,2.18252 -8.231044,2.40872 -7.384333,0.22338 -8.030934,0.0887 -7.594228,-1.58122 0.312729,-1.19588 -0.06514,-1.82539 -1.095697,-1.82539 -0.865176,0 -1.573047,0.825 -1.573047,1.83334 0,1.00833 -0.39375,1.83333 -0.875,1.83333 -0.48125,0 -0.875,-1.125 -0.875,-2.5 z m 23.09686,0.96152 c -0.910516,-2.37277 0.52912,-3.28886 4.907252,-3.12268 3.525498,0.13382 4.245888,0.50049 4.245888,2.16116 0,1.66568 -0.72121,2.02735 -4.314527,2.16363 -2.846318,0.10795 -4.492871,-0.30112 -4.838613,-1.20211 z m 3.110435,-0.39242 c 0.316431,-0.512 0.117988,-1.21356 -0.440983,-1.55902 -0.558972,-0.34546 -1.016312,0.0734 -1.016312,0.9309 0,1.75653 0.600055,2.01516 1.457295,0.62812 z m 4.542705,-0.62812 c 0,-0.85746 -0.45734,-1.27636 -1.016312,-0.9309 -0.558971,0.34546 -0.757414,1.04702 -0.440983,1.55902 0.857235,1.38704 1.457295,1.12841 1.457295,-0.62812 z m 2.5,0.006 c 0,-1.8706 0.529752,-2.44665 2.250002,-2.44665 1.60483,0 2.25,0.59041 2.25,2.05902 0,1.13246 0.40775,1.80701 0.90612,1.499 0.49837,-0.30801 0.65513,-1.51981 0.34836,-2.6929 -0.4031,-1.54144 -0.16909,-1.99766 0.84388,-1.64526 0.7709,0.2682 1.26941,1.22844 1.1078,2.13388 -0.16161,0.90544 0.17589,1.64626 0.75,1.64626 0.57411,0 1.04384,-0.6699 1.04384,-1.48866 0,-2.30786 8.36102,-1.60408 8.81131,0.74168 0.56056,2.92025 -2.82801,3.37031 -4.91703,0.65307 -1.82676,-2.37611 -1.85009,-2.37906 -1.87204,-0.23695 -0.0202,1.96822 -0.55486,2.1717 -5.77224,2.19665 -5.440722,0.026 -5.750002,-0.1041 -5.750002,-2.41914 z m 3.500002,0.053 c 0,-0.825 -0.45,-1.5 -1,-1.5 -0.55,0 -1,0.675 -1,1.5 0,0.825 0.45,1.5 1,1.5 0.55,0 1,-0.675 1,-1.5 z m 12.68311,-0.6875 c -0.31922,-0.79773 -0.55618,-0.56078 -0.60416,0.60417 -0.0434,1.05416 0.19292,1.64479 0.52522,1.3125 0.33229,-0.3323 0.36781,-1.1948 0.0789,-1.91667 z m 5.1271,-0.3125 c -0.22474,-1.925 -0.049,-3.5 0.39059,-3.5 0.43956,0 0.7992,0.8632 0.7992,1.91821 0,1.05502 0.27314,2.63002 0.60699,3.5 0.33384,0.86999 0.15808,1.58179 -0.3906,1.58179 -0.54867,0 -1.18145,-1.575 -1.40618,-3.5 z m 4.96292,2.29909 c -0.78439,-2.12947 0.26145,-3.79907 2.37975,-3.79907 1.48555,0 1.90567,0.56459 1.66667,2.23978 -0.35324,2.47595 -3.29168,3.60829 -4.04642,1.55931 z m 5.59358,-1.43247 c 0.11751,-2.01221 0.63656,-2.27246 4.38329,-2.19773 2.3375,0.0466 4.25,0.47769 4.25,0.95793 0,0.48025 -0.3375,0.76068 -0.75,0.62318 -0.4125,-0.1375 -0.8175,0.2 -0.9,0.75 -0.0825,0.55 0.255,0.8875 0.75,0.75 0.495,-0.1375 0.9,0.15223 0.9,0.64384 0,0.49161 -1.97248,0.86265 -4.38329,0.82455 -3.91793,-0.0619 -4.36914,-0.31161 -4.25,-2.35177 z m 4.63329,0.0744 c 0,-0.85746 -0.45734,-1.27636 -1.01631,-0.9309 -0.55897,0.34546 -0.75742,1.04702 -0.44098,1.55902 0.85723,1.38704 1.45729,1.12841 1.45729,-0.62812 z m 5.19248,-0.94098 c 0.0724,-1.925 0.50867,-3.5 0.96955,-3.5 0.46088,0 0.83797,1.575 0.83797,3.5 0,1.925 -0.4363,3.5 -0.96955,3.5 -0.53325,0 -0.91034,-1.575 -0.83797,-3.5 z m 3.19183,2.05912 c -1.04157,-2.71429 0.32853,-4.19955 1.43823,-1.55912 1.02214,2.43207 1.05241,2.43886 1.11407,0.25 0.0349,-1.2375 0.56153,-2.25 1.17038,-2.25 0.60884,0 0.84797,0.675 0.53138,1.5 -0.31658,0.825 -0.13972,1.5 0.39301,1.5 0.53274,0 0.96862,-0.675 0.96862,-1.5 0,-0.825 0.6382,-1.5 1.41821,-1.5 0.78002,0 2.13002,-0.27314 3,-0.60699 1.22229,-0.46904 1.58179,0.0641 1.58179,2.34571 0,2.89196 -0.11357,2.95641 -5.52136,3.13313 -4.09563,0.13383 -5.66931,-0.20514 -6.09433,-1.31273 z m 10.21986,-2.28829 c -1.01652,-1.01651 -1.85525,0.51389 -1.02122,1.86338 0.63003,1.01942 0.86558,1.02021 1.2043,0.004 0.2316,-0.69479 0.14921,-1.53512 -0.18308,-1.86742 z m 3.0625,3.0625 c -0.36667,-0.36666 -0.66667,-1.49166 -0.66667,-2.5 0,-2.09345 3.57234,-2.58155 4.26936,-0.58333 0.9589,2.74898 -1.67923,5.0068 -3.60269,3.08333 z m 1.9375,-3.0625 c -1.01652,-1.01651 -1.85525,0.51389 -1.02122,1.86338 0.63003,1.01942 0.86558,1.02021 1.2043,0.004 0.2316,-0.69479 0.14921,-1.53512 -0.18308,-1.86742 z m 2.75162,1.22988 c 0.1086,-1.88223 0.69973,-2.49947 2.39421,-2.5 1.73352,-5.5e-4 2.25,0.57315 2.25,2.49929 0,1.375 -0.49814,2.5 -1.10699,2.5 -0.60884,0 -0.8535,-0.66059 -0.54367,-1.46797 0.30982,-0.80739 0.13297,-1.73395 -0.39301,-2.05902 -0.52598,-0.32508 -0.95633,0.33551 -0.95633,1.46797 0,1.13246 -0.4024,2.05902 -0.89421,2.05902 -0.49182,0 -0.82932,-1.12468 -0.75,-2.49929 z m -38.27684,-3.08404 c 0.048,-1.16495 0.28494,-1.4019 0.60416,-0.60417 0.28887,0.72187 0.25335,1.58437 -0.0789,1.91667 -0.3323,0.33229 -0.56864,-0.25834 -0.52522,-1.3125 z M 20.099476,101.21656 C 19.286444,100.23691 19.039335,88.836609 19.227031,60.966555 l 0.261867,-38.883238 13.32677,-0.27956 13.326769,-0.27956 -0.699158,2.27956 c -1.278506,4.168483 -2.414756,4.693802 -10.79447,4.990573 l -8.159911,0.288987 -0.282751,11.25 -0.282751,11.25 6.564136,0 c 7.262211,0 8.65767,1.166773 6.654264,5.56377 -0.997382,2.189015 -1.721042,2.43623 -7.131459,2.43623 l -6.021439,0 0,20.464816 c 0,19.209506 -0.118647,20.528317 -1.934259,21.500007 -2.463748,1.31855 -2.594789,1.30757 -3.955163,-0.33158 z m 86.629944,-0.0299 c -9.478672,-3.464661 -9.740522,-4.529281 -9.740522,-39.603343 0,-31.852448 0.31925,-33.954948 5.742132,-37.816383 8.85039,-6.302034 23.15351,-1.47353 23.5996,7.966843 0.13895,2.940671 -0.17044,3.387491 -2.53455,3.660445 -2.14167,0.24727 -3.01367,-0.309528 -4.26036,-2.720355 -0.86213,-1.667194 -2.43328,-3.494601 -3.49143,-4.060906 -3.10499,-1.661743 -7.88452,-1.200514 -10.05539,0.970356 -1.9109,1.910896 -2,3.333333 -2,31.92742 l 0,29.927422 2.63486,2.07258 c 1.44917,1.13992 3.49652,2.07258 4.54966,2.07258 3.29573,0 7.75959,-2.92915 8.4094,-5.51819 0.48548,-1.9343 1.26773,-2.48181 3.54587,-2.48181 3.88124,0 4.68749,2.42923 2.28018,6.87015 -3.40572,6.282761 -11.71623,9.278361 -18.67945,6.733171 z m -55.190078,-0.5217 c -0.351135,-0.56815 0.52536,-9.931441 1.947767,-20.807312 5.390721,-41.218005 7.545814,-56.536528 8.074127,-57.391356 0.75936,-1.228671 10.168399,-1.111468 10.939542,0.136267 0.83499,1.351043 9.394921,65.33907 9.728109,72.72051 0.253423,5.614321 0.190333,5.768291 -2.489989,6.076691 -1.5125,0.17403 -2.787866,0.17403 -2.834146,0 -0.04628,-0.17405 -0.83378,-5.716441 -1.75,-12.316441 l -1.665854,-12.000002 -6.25,-0.297717 c -3.4375,-0.163745 -6.280017,-0.163745 -6.316704,0 -0.03669,0.163744 -0.824187,5.697717 -1.75,12.297719 -1.648522,11.752101 -1.738155,12.006351 -4.33886,12.307311 -1.46056,0.16902 -2.942856,-0.15754 -3.293992,-0.72569 z M 71.427709,64.833317 c -0.321654,-2.0625 -1.382796,-10.5 -2.358094,-18.75 -1.97482,-16.70492 -2.230248,-16.48051 -4.552866,4 -0.873228,7.7 -1.807797,15.0125 -2.076821,16.25 -0.456523,2.099992 -0.153724,2.25 4.541736,2.25 l 5.030869,0 -0.584824,-3.75 z m 69.227861,36.083333 c -0.36667,-0.36666 -0.66667,-18.318521 -0.66667,-39.893011 0,-34.846805 0.1766,-39.294113 1.58179,-39.833333 2.30374,-0.88403 26.41821,-0.745001 26.41821,0.152311 0,0.417615 -4.6125,2.330115 -10.25,4.25 l -10.25,3.4907 0,32.447705 0,32.447707 9.69537,3.08099 c 5.33245,1.69455 10.01995,3.405581 10.41666,3.802301 0.39672,0.39671 -5.3537,0.7213 -12.7787,0.7213 -7.425,0 -13.8,-0.3 -14.16666,-0.66667 z m 11.03457,-37.96543 c -1.36736,-1.367359 -0.67281,-2.50255 1.33837,-2.187454 1.12179,0.175753 2.04556,0.769551 2.05282,1.319551 0.0161,1.217097 -2.41884,1.840261 -3.39119,0.867903 z"
     id="path33949"
     inkscape:connector-curvature="0" />
</svg>
