<?xml version="1.0" encoding="UTF-8" standalone="no"?>
<svg
   xmlns:dc="http://purl.org/dc/elements/1.1/"
   xmlns:cc="http://creativecommons.org/ns#"
   xmlns:rdf="http://www.w3.org/1999/02/22-rdf-syntax-ns#"
   xmlns:svg="http://www.w3.org/2000/svg"
   xmlns="http://www.w3.org/2000/svg"
   xmlns:xlink="http://www.w3.org/1999/xlink"
   xmlns:sodipodi="http://sodipodi.sourceforge.net/DTD/sodipodi-0.dtd"
   xmlns:inkscape="http://www.inkscape.org/namespaces/inkscape"
   enable-background="new 0 0 549.345 271.831"
   viewBox="0 0 802.00005 802.00002"
   id="svg4490"
   version="1.1"
   inkscape:version="0.91 r13725"
   sodipodi:docname="rainbow-circle4.svg"
   width="802"
   height="802">
  <metadata
     id="metadata4804">
    <rdf:RDF>
      <cc:Work
         rdf:about="">
        <dc:format>image/svg+xml</dc:format>
        <dc:type
           rdf:resource="http://purl.org/dc/dcmitype/StillImage" />
        <dc:title></dc:title>
      </cc:Work>
    </rdf:RDF>
  </metadata>
  <sodipodi:namedview
     pagecolor="#ffffff"
     bordercolor="#666666"
     borderopacity="1"
     objecttolerance="10"
     gridtolerance="10"
     guidetolerance="10"
     inkscape:pageopacity="0"
     inkscape:pageshadow="2"
     inkscape:window-width="1863"
     inkscape:window-height="1056"
     id="namedview4802"
     showgrid="false"
     showguides="false"
     inkscape:zoom="0.64983113"
     inkscape:cx="280.64821"
     inkscape:cy="175.30094"
     inkscape:window-x="57"
     inkscape:window-y="24"
     inkscape:window-maximized="1"
     inkscape:current-layer="svg4490" />
  <defs
     id="defs4492">
    <linearGradient
       inkscape:collect="always"
       id="linearGradient18827">
      <stop
         style="stop-color:#111111;stop-opacity:1;"
         offset="0"
         id="stop18829" />
      <stop
         style="stop-color:#111111;stop-opacity:0;"
         offset="1"
         id="stop18831" />
    </linearGradient>
    <linearGradient
       id="i"
       x1="154.97"
       x2="409.82999"
       gradientUnits="userSpaceOnUse"
       y1="0"
       y2="0"
       spreadMethod="pad">
      <stop
         stop-color="#f8130d"
         offset="0"
         id="stop4495"
         style="stop-color:#dc143c;stop-opacity:1;" />
      <stop
         stop-color="#ea142d"
         offset="0"
         id="stop4497"
         style="stop-color:#dc143c;stop-opacity:1" />
      <stop
         style="stop-color:#000000;stop-opacity:0;"
         id="stop5951"
         offset="0"
         stop-color="#ea142d" />
      <stop
         stop-color="#ea142d"
         offset="0"
         id="stop5953"
         style="stop-color:#000000;stop-opacity:0;" />
      <stop
         style="stop-color:#000000;stop-opacity:0;"
         id="stop5955"
         offset="0"
         stop-color="#ea142d" />
      <stop
         stop-color="#ea142d"
         offset="0"
         id="stop5957"
         style="stop-color:#000000;stop-opacity:0;" />
      <stop
         stop-color="#ce2e8d"
         offset="0"
         id="stop4501" />
      <stop
         stop-color="#d84b9c"
         offset=".2348"
         id="stop4503" />
      <stop
         stop-color="#df61a7"
         offset=".387"
         id="stop4505" />
      <stop
         stop-color="#e471b0"
         offset=".5523"
         id="stop4507" />
      <stop
         stop-color="#e77ab4"
         offset=".7403"
         id="stop4509" />
      <stop
         stop-color="#e87db6"
         offset="1"
         id="stop4511" />
      <stop
         stop-color="#c485b8"
         offset="1"
         id="stop4513" />
      <stop
         stop-color="#a08dbb"
         offset="1"
         id="stop4515" />
      <stop
         stop-color="#8094bd"
         offset="1"
         id="stop4517" />
      <stop
         stop-color="#649abf"
         offset="1"
         id="stop4519" />
      <stop
         stop-color="#4e9fc0"
         offset="1"
         id="stop4521" />
      <stop
         stop-color="#3da2c2"
         offset="1"
         id="stop4523" />
      <stop
         stop-color="#32a5c2"
         offset="1"
         id="stop4525" />
      <stop
         stop-color="#2ba7c3"
         offset="1"
         id="stop4527" />
      <stop
         stop-color="#29a7c3"
         offset="1"
         id="stop4529" />
    </linearGradient>
    <linearGradient
       id="h"
       x1="135.25"
       x2="437.70999"
       gradientUnits="userSpaceOnUse"
       xlink:href="#f">
      <stop
         stop-color="#f8130d"
         offset="0"
         id="stop4532"
         style="stop-color:#f6ab12;stop-opacity:1;" />
      <stop
         style="stop-color:#e5a11d;stop-opacity:1;"
         id="stop5965"
         offset="0"
         stop-color="#f8130d" />
      <stop
         style="stop-color:#d49728;stop-opacity:1;"
         id="stop5963"
         offset="0"
         stop-color="#f8130d" />
      <stop
         style="stop-color:#b2833f;stop-opacity:1;"
         id="stop5961"
         offset="0"
         stop-color="#f8130d" />
      <stop
         stop-color="#6e5b6c"
         offset="0"
         id="stop4534" />
      <stop
         stop-color="#1987a6"
         offset="0"
         id="stop4536" />
      <stop
         stop-color="#1b8baa"
         offset=".0496"
         id="stop4538" />
      <stop
         stop-color="#239bb8"
         offset=".3054"
         id="stop4540" />
      <stop
         stop-color="#28a4c0"
         offset=".5969"
         id="stop4542" />
      <stop
         stop-color="#29a7c3"
         offset="1"
         id="stop4544" />
      <stop
         stop-color="#2aa7c1"
         offset="1"
         id="stop4546" />
      <stop
         stop-color="#2da8ba"
         offset="1"
         id="stop4548"
         style="stop-color:#f6ab12;stop-opacity:1;" />
      <stop
         stop-color="#32aaaf"
         offset="1"
         id="stop4550" />
      <stop
         stop-color="#39ac9e"
         offset="1"
         id="stop4552" />
      <stop
         stop-color="#42ae88"
         offset="1"
         id="stop4554" />
      <stop
         stop-color="#4db26c"
         offset="1"
         id="stop4556" />
      <stop
         stop-color="#5ab64c"
         offset="1"
         id="stop4558" />
      <stop
         stop-color="#6aba28"
         offset="1"
         id="stop4560" />
      <stop
         stop-color="#6cbb22"
         offset="1"
         id="stop4562" />
    </linearGradient>
    <linearGradient
       id="g"
       x1="115.53"
       x2="465.64001"
       gradientUnits="userSpaceOnUse"
       xlink:href="#f">
      <stop
         stop-color="#f8130d"
         offset="0"
         id="stop4565" />
      <stop
         stop-color="#695425"
         offset="0"
         id="stop4567" />
      <stop
         stop-color="#147a33"
         offset="0"
         id="stop4569" />
      <stop
         stop-color="#1d8131"
         offset=".0405"
         id="stop4571" />
      <stop
         stop-color="#3a962c"
         offset=".1907"
         id="stop4573" />
      <stop
         stop-color="#50a627"
         offset=".3517"
         id="stop4575" />
      <stop
         stop-color="#60b224"
         offset=".5265"
         id="stop4577" />
      <stop
         stop-color="#69b923"
         offset=".7253"
         id="stop4579" />
      <stop
         stop-color="#6cbb22"
         offset="1"
         id="stop4581" />
      <stop
         stop-color="#80c434"
         offset="1"
         id="stop4583" />
      <stop
         stop-color="#9fd251"
         offset="1"
         id="stop4585" />
      <stop
         stop-color="#bbde69"
         offset="1"
         id="stop4587" />
      <stop
         stop-color="#d1e77d"
         offset="1"
         id="stop4589" />
      <stop
         stop-color="#e2ef8c"
         offset="1"
         id="stop4591" />
      <stop
         stop-color="#edf497"
         offset="1"
         id="stop4593" />
      <stop
         stop-color="#f4f79d"
         offset="1"
         id="stop4595" />
      <stop
         stop-color="#f6f89f"
         offset="1"
         id="stop4597" />
    </linearGradient>
    <linearGradient
       id="f"
       x1="95.805"
       x2="493.51999"
       gradientUnits="userSpaceOnUse">
      <stop
         stop-color="#f8130d"
         offset="0"
         id="stop4600" />
      <stop
         stop-color="#e7860c"
         offset="0"
         id="stop4602" />
      <stop
         stop-color="#dbdb0c"
         offset="0"
         id="stop4604" />
      <stop
         stop-color="#e1e12d"
         offset=".0914"
         id="stop4606" />
      <stop
         stop-color="#e7e850"
         offset=".2088"
         id="stop4608" />
      <stop
         stop-color="#edee6d"
         offset=".3336"
         id="stop4610" />
      <stop
         stop-color="#f1f283"
         offset=".4662"
         id="stop4612" />
      <stop
         stop-color="#f4f693"
         offset=".6102"
         id="stop4614" />
      <stop
         stop-color="#f5f79c"
         offset=".7739"
         id="stop4616" />
      <stop
         stop-color="#f6f89f"
         offset="1"
         id="stop4618" />
      <stop
         stop-color="#f6f69e"
         offset="1"
         id="stop4620" />
      <stop
         stop-color="#f6ef9c"
         offset="1"
         id="stop4622" />
      <stop
         stop-color="#f6e499"
         offset="1"
         id="stop4624" />
      <stop
         stop-color="#f6d393"
         offset="1"
         id="stop4626" />
      <stop
         stop-color="#f7bd8c"
         offset="1"
         id="stop4628" />
      <stop
         stop-color="#f7a284"
         offset="1"
         id="stop4630" />
      <stop
         stop-color="#f79680"
         offset="1"
         id="stop4632" />
    </linearGradient>
    <linearGradient
       id="e"
       x1="76.084"
       x2="521.39001"
       gradientUnits="userSpaceOnUse">
      <stop
         stop-color="#f8130d"
         offset="0"
         id="stop4635" />
      <stop
         stop-color="#f64d16"
         offset="0"
         id="stop4637" />
      <stop
         stop-color="#f3a122"
         offset="0"
         id="stop4639" />
      <stop
         stop-color="#f7d17f"
         offset="1"
         id="stop4641" />
      <stop
         stop-color="#f79680"
         offset="1"
         id="stop4643" />
    </linearGradient>
    <linearGradient
       id="d"
       x1="56.362999"
       x2="549.33002"
       gradientUnits="userSpaceOnUse">
      <stop
         stop-color="#f8130d"
         offset="0"
         id="stop4646" />
      <stop
         stop-color="#fb0f0c"
         offset="0"
         id="stop4648" />
      <stop
         stop-color="#f79680"
         offset="1"
         id="stop4650" />
      <stop
         stop-color="#f8130d"
         offset="1"
         id="stop4652" />
    </linearGradient>
    <linearGradient
       id="c"
       x1="42.966999"
       x2="52.272999"
       y1="98.623001"
       y2="107.93"
       gradientUnits="userSpaceOnUse">
      <stop
         stop-color="#f8130d"
         offset="0"
         id="stop4655" />
      <stop
         stop-color="#f84236"
         offset=".1781"
         id="stop4657" />
      <stop
         stop-color="#f79680"
         offset=".5088"
         id="stop4659" />
      <stop
         stop-color="#f8130d"
         offset="1"
         id="stop4661" />
    </linearGradient>
    <linearGradient
       id="b"
       x1="78.096001"
       x2="87.402"
       y1="133.75"
       y2="143.06"
       gradientUnits="userSpaceOnUse">
      <stop
         stop-color="#dbdb0c"
         offset="0"
         id="stop4664" />
      <stop
         stop-color="#e7e74b"
         offset=".2132"
         id="stop4666" />
      <stop
         stop-color="#f6f89f"
         offset=".5088"
         id="stop4668" />
      <stop
         stop-color="#dbdb0c"
         offset="1"
         id="stop4670" />
    </linearGradient>
    <linearGradient
       id="a"
       x1="60.723"
       x2="70.028"
       y1="115.57"
       y2="124.87"
       gradientUnits="userSpaceOnUse">
      <stop
         stop-color="#f3a122"
         offset="0"
         id="stop4673" />
      <stop
         stop-color="#f3a62b"
         offset=".0474"
         id="stop4675" />
      <stop
         stop-color="#f7d17f"
         offset=".5088"
         id="stop4677" />
      <stop
         stop-color="#f3a122"
         offset="1"
         id="stop4679" />
    </linearGradient>
    <linearGradient
       id="l"
       x1="96.174004"
       x2="105.48"
       y1="151.83"
       y2="161.14"
       gradientUnits="userSpaceOnUse">
      <stop
         stop-color="#147a33"
         offset="0"
         id="stop4682" />
      <stop
         stop-color="#187d32"
         offset=".0219"
         id="stop4684" />
      <stop
         stop-color="#6cbb22"
         offset=".5088"
         id="stop4686" />
      <stop
         stop-color="#147a33"
         offset="1"
         id="stop4688" />
    </linearGradient>
    <linearGradient
       id="k"
       x1="114.59"
       x2="123.9"
       y1="170.25"
       y2="179.55"
       gradientUnits="userSpaceOnUse">
      <stop
         stop-color="#1987a6"
         offset="0"
         id="stop4691" />
      <stop
         stop-color="#29a7c3"
         offset=".5088"
         id="stop4693" />
      <stop
         stop-color="#1987a6"
         offset="1"
         id="stop4695" />
    </linearGradient>
    <linearGradient
       id="j"
       x1="132.50999"
       x2="141.81"
       y1="188.16"
       y2="197.47"
       gradientUnits="userSpaceOnUse">
      <stop
         stop-color="#c71781"
         offset="0"
         id="stop4698" />
      <stop
         stop-color="#cd298a"
         offset=".087"
         id="stop4700" />
      <stop
         stop-color="#e87db6"
         offset=".5088"
         id="stop4702" />
      <stop
         stop-color="#c71781"
         offset="1"
         id="stop4704" />
    </linearGradient>
    <clipPath
       clipPathUnits="userSpaceOnUse"
       id="clipPath6206">
      <rect
         style="opacity:1;fill:#ff2289;fill-opacity:1;fill-rule:evenodd;stroke:#2a898f;stroke-width:0.10106548;stroke-linecap:round;stroke-linejoin:round;stroke-miterlimit:4;stroke-dasharray:none;stroke-opacity:1"
         id="rect6208"
         width="380.69241"
         height="363.87369"
         x="-729.84424"
         y="220.60645"
         transform="scale(-1,1)" />
    </clipPath>
    <clipPath
       clipPathUnits="userSpaceOnUse"
       id="clipPath6206-9">
      <rect
         style="opacity:1;fill:#ff2289;fill-opacity:1;fill-rule:evenodd;stroke:#2a898f;stroke-width:0.10106548;stroke-linecap:round;stroke-linejoin:round;stroke-miterlimit:4;stroke-dasharray:none;stroke-opacity:1"
         id="rect6208-3"
         width="380.69241"
         height="363.87369"
         x="-729.84424"
         y="220.60645"
         transform="scale(-1,1)" />
    </clipPath>
    <clipPath
       clipPathUnits="userSpaceOnUse"
       id="clipPath6206-9-7">
      <rect
         style="opacity:1;fill:#ff2289;fill-opacity:1;fill-rule:evenodd;stroke:#2a898f;stroke-width:0.10106548;stroke-linecap:round;stroke-linejoin:round;stroke-miterlimit:4;stroke-dasharray:none;stroke-opacity:1"
         id="rect6208-3-9"
         width="380.69241"
         height="363.87369"
         x="-729.84424"
         y="220.60645"
         transform="scale(-1,1)" />
    </clipPath>
    <clipPath
       clipPathUnits="userSpaceOnUse"
       id="clipPath6206-9-7-2">
      <rect
         style="opacity:1;fill:#ff2289;fill-opacity:1;fill-rule:evenodd;stroke:#2a898f;stroke-width:0.10106548;stroke-linecap:round;stroke-linejoin:round;stroke-miterlimit:4;stroke-dasharray:none;stroke-opacity:1"
         id="rect6208-3-9-2"
         width="380.69241"
         height="363.87369"
         x="-729.84424"
         y="220.60645"
         transform="scale(-1,1)" />
    </clipPath>
    <clipPath
       clipPathUnits="userSpaceOnUse"
       id="clipPath6206-9-8">
      <rect
         style="opacity:1;fill:#ff2289;fill-opacity:1;fill-rule:evenodd;stroke:#2a898f;stroke-width:0.10106548;stroke-linecap:round;stroke-linejoin:round;stroke-miterlimit:4;stroke-dasharray:none;stroke-opacity:1"
         id="rect6208-3-97"
         width="380.69241"
         height="363.87369"
         x="-729.84424"
         y="220.60645"
         transform="scale(-1,1)" />
    </clipPath>
    <linearGradient
       gradientTransform="matrix(-1.0002731,0,0,1.0012759,860.35498,98.993568)"
       inkscape:collect="always"
       xlink:href="#linearGradient15154"
       id="linearGradient15160"
       x1="312.51044"
       y1="449.18039"
       x2="828.59332"
       y2="399.98938"
       gradientUnits="userSpaceOnUse" />
    <linearGradient
       id="linearGradient15154">
      <stop
         style="stop-color:#000000;stop-opacity:1;"
         offset="0"
         id="stop15156" />
      <stop
         style="stop-color:#000000;stop-opacity:0;"
         offset="1"
         id="stop15158" />
    </linearGradient>
    <linearGradient
       gradientTransform="matrix(-1.0002731,0,0,1.0012759,860.35498,98.993568)"
       inkscape:collect="always"
       xlink:href="#linearGradient15154"
       id="linearGradient15162"
       x1="-99.639206"
       y1="687.93671"
       x2="802.92902"
       y2="399.98926"
       gradientUnits="userSpaceOnUse" />
    <linearGradient
       gradientTransform="matrix(-1.0002731,0,0,1.0012759,860.35498,98.993568)"
       inkscape:collect="always"
       xlink:href="#linearGradient15154"
       id="linearGradient15164"
       x1="277.25616"
       y1="373.59607"
       x2="777.27325"
       y2="399.99124"
       gradientUnits="userSpaceOnUse" />
    <linearGradient
       gradientTransform="matrix(-1.0002731,0,0,1.0012759,860.35498,-554.50527)"
       inkscape:collect="always"
       xlink:href="#linearGradient15154"
       id="linearGradient15166"
       x1="522.04584"
       y1="987.87225"
       x2="751.59277"
       y2="1052.6604"
       gradientUnits="userSpaceOnUse" />
    <linearGradient
       gradientTransform="matrix(-1.0002731,0,0,1.0012759,860.35498,98.993568)"
       inkscape:collect="always"
       xlink:href="#linearGradient15154"
       id="linearGradient15168"
       x1="277.25616"
       y1="373.59607"
       x2="725.92627"
       y2="399.98929"
       gradientUnits="userSpaceOnUse" />
    <linearGradient
       gradientTransform="matrix(-1.0002731,0,0,1.0012759,860.35498,98.993568)"
       inkscape:collect="always"
       xlink:href="#linearGradient15154"
       id="linearGradient15170"
       x1="277.25616"
       y1="373.59607"
       x2="700.28271"
       y2="399.99338"
       gradientUnits="userSpaceOnUse" />
    <linearGradient
       inkscape:collect="always"
       xlink:href="#linearGradient18827"
       id="linearGradient18833"
       x1="238.25252"
       y1="776.15662"
       x2="556.08917"
       y2="784.04559"
       gradientUnits="userSpaceOnUse"
       gradientTransform="matrix(0.99996862,0,0,1.3142028,-997.02131,-325.49967)" />
    <clipPath
       clipPathUnits="userSpaceOnUse"
       id="clipPath18974">
      <path
         style="opacity:1;fill:url(#linearGradient18978);fill-opacity:1;fill-rule:nonzero;stroke:none"
         d="M 3.051758e-5,78.347367 C -27.102069,74.117837 -55.700369,79.921207 -80.460869,97.062207 -126.15367,128.69095 -144.10227,188.59791 -127.20497,241.05245 c 1.7138,5.32026 3.7942,10.56174 6.2324,15.6914 -2.4388,-5.1295 -4.5179,-10.37126 -6.2324,-15.6914 -16.9051,-52.45734 1.0393,-112.3685 46.736301,-144.000003 24.7625,-17.141 53.3606,-22.94438 80.46289952,-18.71485 l 0,-25.91015 c -0.002,-2.5e-4 -0.004,2.3e-4 -0.006,0 l 0,-25.81446 0,-0.004 0,-25.78710984 C -40.775269,-3.1006828 -83.019069,6.9444372 -119.98437,32.530857 c -87.4209,60.51667 -112.1932,184.885263 -55.3926,277.882813 l -0.0117,0.004 c 13.1607,21.72073 7.3558,50.68868 -13.0313,64.80078 -20.387,14.11211 -47.6484,8.03161 -61.0039,-13.55273 -34.8973,-56.85545 -92.27807,-88.6971 -151.59567,-90.98243 l 0,0.0762 c -40.7555,-3.8812 -82.9949,6.07467 -119.9531,31.42773 -87.4207,59.97606 -112.1912,183.23338 -55.3906,275.40038 l -0.01,0 c 13.1608,21.5268 7.3538,50.2366 -13.0332,64.2227 -20.3871,13.9861 -47.6466,7.9598 -61.002,-13.4317 -34.8971,-56.3476 -92.2799,-87.903 -151.5976,-90.1679 l 0,25.4746 c 22.1485,0.9657 43.9716,6.6104 64.0586,16.6269 1.9131,0.954 3.8091,1.9475 5.6895,2.9805 1.8803,1.033 3.7446,2.1053 5.5898,3.2168 1.8452,1.1116 3.6728,2.2616 5.4805,3.4512 -1.8077,-1.1895 -3.6353,-2.3397 -5.4805,-3.4512 -1.8452,-1.1114 -3.7095,-2.1839 -5.5898,-3.2168 -1.8804,-1.0329 -3.7764,-2.0266 -5.6895,-2.9805 -20.087,-10.0154 -41.9101,-15.6573 -64.0586,-16.623 l 0,25.4434 c 0,10e-5 0,-10e-5 0.01,0 l 0,25.4667 -0.01,0.01 c 13.0207,0.7967 25.8519,3.8813 37.92,9.1269 -12.0658,-5.2426 -24.8946,-8.3226 -37.9122,-9.1191 l 0,25.5195 c 0.8628,0.066 1.724,0.1465 2.584,0.2383 -0.86,-0.092 -1.7213,-0.1697 -2.584,-0.2363 l 0,0 c 0,-10e-5 0,2e-4 -0.01,0 0,-2e-4 -0.01,2e-4 -0.01,0 l 0,25.4961 0.01,0 c 5.1177,0.5328 10.1673,1.6693 15.045,3.3867 1.6258,0.5725 3.2325,1.2095 4.8164,1.9102 -1.5838,-0.7005 -3.1907,-1.3381 -4.8164,-1.9102 -4.8773,-1.7162 -9.926,-2.8501 -15.043,-3.3828 l 0,25.6387 c 11.9283,1.934 23.0701,8.931 30.2168,20.3789 56.9973,92.034 173.9816,118.0425 261.4023,58.0664 87.4207,-59.976 112.1932,-183.2331 55.3926,-275.4024 l 0.01,0 c -8.0876,-13.2287 -9.0029,-29.1666 -3.7832,-42.7363 a 45.087843,32.520429 0 0 1 17.1347,-21.6894 c 1.6616,-1.0931 3.502,-1.941 5.4727,-2.5879 a 45.087843,32.520429 0 0 1 22.0937,-4.2188 45.087843,32.520429 0 0 1 20.9239,3.7383 l -0.016,-0.055 a 45.087843,32.520429 0 0 1 21.7286,17.957 c 0.2114,0.305 0.4211,0.6259 0.6308,0.9649 56.99727,92.8633 173.98347,119.1063 261.40427,58.5898 87.420701,-60.5165 112.1931005,-184.88494 55.392601,-277.88475 l 0.01,-0.004 c -13.1608,-21.72072 -7.3557,-50.68669 13.0312,-64.79883 12.6689,-8.76833 27.974,-9.71801 40.95509952,-4.00586 l 0,-26.96875 c -0.004,-0.001 -0.008,-9.3e-4 -0.0117,-0.002 l 0,-26.24219 c -1.75660002,-0.34765 -3.52170002,-0.64247 -5.29500002,-0.88281 1.7775,0.24041 3.5479,0.53434 5.30860002,0.88281 l 0,-26.025393 z M -802.00184,691.27319 l 0,0 0,0 0,0 z M -39.896369,132.56221 c -4.9001,1.86636 -9.6763,4.36489 -14.2305,7.51758 -31.559,21.8458 -40.5257,66.71462 -20.0938,100.31445 l 16.5274,-11.44336 -16.5313,11.44922 c 49.5272,81.11845 27.9148,189.58439 -48.334001,242.36719 -8.3417,5.7743 -16.9926,10.6412 -25.8496,14.627 8.8537,-3.9857 17.5007,-8.8542 25.8399,-14.627 76.248801,-52.7828 97.865201,-161.25071 48.337901,-242.36914 l 0,-0.004 c -20.432,-33.59982 -11.4652,-78.46865 20.0937,-100.31445 4.5574,-3.15481 9.3368,-5.65157 14.2403,-7.51758 z m -56.004,202.44141 c 0.2262,40.78279 -18.458701,80.83895 -52.990201,104.74417 -32.8245,22.7213 -72.404,25.6146 -106.2832,11.4824 33.8776,14.1265 73.456,11.2287 106.2774,-11.4902 53.905001,-37.31322 69.193401,-113.9816 34.2128,-171.34184 l 0,-0.004 c -1.0906,-1.78849 -2.1317,-3.59762 -3.125,-5.42187 0.9954,1.82843 2.0397,3.63913 3.1329,5.43164 l 0,0.002 c 12.5704,20.61303 18.648501,43.7195 18.775301,66.59766 z m -24.148401,0.19726 c 0.002,0.34536 -0.006,0.68995 -0.008,1.03516 0.003,-0.67013 -0.004,-1.34109 -0.0137,-2.01172 0.005,0.32545 0.0198,0.65122 0.0215,0.97656 z m -0.0156,1.89453 c -0.01,0.73956 -0.0276,1.47825 -0.0527,2.2168 0.025,-0.73852 0.0433,-1.47727 0.0527,-2.2168 z m -0.0352,-4.24023 c -0.0173,-0.62527 -0.0397,-1.24961 -0.0683,-1.875 0.0285,0.62521 0.051,1.24992 0.0683,1.875 z m -0.0449,7.20312 c -0.0326,0.7924 -0.0745,1.58423 -0.125,2.375 0.0505,-0.79065 0.0925,-1.58272 0.125,-2.375 z m -0.0937,-10.40234 c -0.0374,-0.63864 -0.0759,-1.27757 -0.125,-1.91601 0.0491,0.63865 0.0876,1.27717 0.125,1.91601 z m -0.0684,13.38867 c -0.0604,0.86538 -0.1331,1.72894 -0.2148,2.5918 0.0816,-0.86308 0.1545,-1.7262 0.2148,-2.5918 z m -0.1719,-16.60742 c -0.0593,-0.66136 -0.1174,-1.32356 -0.1894,-1.98437 0.072,0.66092 0.1302,1.3229 0.1894,1.98437 z m -0.0801,19.59766 c -0.1995,2.02472 -0.455,4.04276 -0.7714,6.04882 -0.153,0.96976 -0.3219,1.93606 -0.502,2.9004 0.1799,-0.96401 0.3491,-1.93097 0.502,-2.9004 0.3163,-2.00623 0.572,-4.02393 0.7714,-6.04882 z m -0.2304,-22.5918 c -0.0885,-0.74383 -0.1766,-1.48774 -0.2813,-2.23047 0.1047,0.74274 0.1929,1.48662 0.2813,2.23047 z m -0.3809,-2.86914 c -0.4063,-2.75753 -0.922,-5.50495 -1.5547,-8.23633 0.6324,2.7312 1.1486,5.47899 1.5547,8.23633 z m -0.789,35.0625 c -0.1498,0.77474 -0.3055,1.54764 -0.4727,2.31836 0.1671,-0.77045 0.323,-1.54389 0.4727,-2.31836 z m -0.6348,3.03516 c -0.1577,0.7026 -0.3201,1.40464 -0.4922,2.10351 0.1721,-0.69902 0.3346,-1.40076 0.4922,-2.10351 z m -0.2383,-46.8125 c -0.1709,-0.7222 -0.358,-1.44249 -0.5449,-2.16211 0.1869,0.71984 0.374,1.43969 0.5449,2.16211 z m -0.5,49.88086 c -0.1633,0.63698 -0.3305,1.27271 -0.5058,1.90624 0.1753,-0.63372 0.3425,-1.26907 0.5058,-1.90624 z m -0.3144,-53.08594 c -0.1769,-0.65278 -0.3685,-1.30281 -0.5586,-1.95313 0.1901,0.65043 0.3817,1.30024 0.5586,1.95313 z m -0.4747,55.99414 c -0.1801,0.6263 -0.3666,1.25045 -0.5585,1.87304 0.1918,-0.62258 0.3784,-1.24676 0.5585,-1.87304 z m -0.4492,-59.18555 c -0.197,-0.64358 -0.405,-1.28497 -0.6152,-1.92578 0.2102,0.6409 0.4182,1.28212 0.6152,1.92578 z m -0.4043,62.00586 c -0.1985,0.62278 -0.4049,1.24259 -0.6152,1.86133 0.2102,-0.61849 0.4168,-1.2388 0.6152,-1.86133 z m -0.5996,-65.09961 c -0.2246,-0.65766 -0.4567,-1.31242 -0.6953,-1.9668 0.2385,0.65424 0.4708,1.30928 0.6953,1.9668 z m -0.3613,67.9707 c -0.2182,0.62057 -0.4458,1.23738 -0.6758,1.85352 0.23,-0.61622 0.4577,-1.23287 0.6758,-1.85352 z m -0.7559,-71.07421 c -0.2519,-0.66627 -0.5107,-1.33168 -0.7773,-1.99415 0.2667,0.66283 0.5253,1.32751 0.7773,1.99415 z m -0.2519,73.81835 c -0.2468,0.64266 -0.504,1.28051 -0.7637,1.91797 0.2596,-0.63739 0.517,-1.27538 0.7637,-1.91797 z m -0.9414,-76.82421 c -0.2832,-0.68221 -0.5703,-1.36326 -0.8692,-2.04102 0.2988,0.67762 0.5861,1.35894 0.8692,2.04102 z m -0.1778,79.61914 c -0.3753,0.89751 -0.761,1.7914 -1.1621,2.67773 0.401,-0.88642 0.7868,-1.78012 1.1621,-2.67773 z m -1.1582,-82.69336 c -0.3026,-0.66596 -0.6078,-1.33095 -0.9257,-1.99219 0.3179,0.66127 0.6231,1.3262 0.9257,1.99219 z m -1.3828,-2.91797 c -0.3483,-0.70589 -0.6983,-1.41129 -1.0644,-2.11133 0.3662,0.70024 0.716,1.40523 1.0644,2.11133 z m -1.3906,-2.71484 c -0.4147,-0.78008 -0.8326,-1.55979 -1.2695,-2.33204 -0.5347,-0.94511 -1.0862,-1.88375 -1.6543,-2.8164 l 0,-0.004 c -25.3784,-41.58615 -28.8571,-91.5863 -13.4883,-134.65234 -15.3656,43.06561 -11.8831,93.0662 13.4941,134.65039 l 0,0.004 c 0.568,0.93227 1.1139,1.87365 1.6485,2.81836 0.4371,0.77263 0.8546,1.55157 1.2695,2.33204 z m -89.4727,197.64264 c -4.0052,-0.2745 -7.9946,-0.7311 -11.957,-1.3653 3.9624,0.6348 7.9517,1.0903 11.957,1.3653 z m -11.9589,-1.3653 c -38.3093,-6.1323 -74.0783,-28.9574 -96.92187,-66.14652 -12.0744,-19.6229 -29.632,-33.1157 -49.127,-39.73043 19.5012,6.61273 37.065,20.10393 49.1426,39.73043 22.84177,37.18282 58.60347,60.00992 96.90627,66.14652 z m -36.2207,-108.16211 -0.004,0.002 c -30.268,-49.30018 -79.92747,-77.00529 -131.34957,-79.27344 l 0,-0.006 c 51.4228,2.26684 101.08437,29.9772 131.35357,79.27734 z m -6.5313,64.06841 c -1.3847,-0.9585 -2.7517,-1.9501 -4.1016,-2.9746 1.3499,1.0244 2.7169,2.0161 4.1016,2.9746 z m -82.48047,-80.69927 c -2.6657,-1.30877 -5.3718,-2.50873 -8.1152,-3.59766 -10.9736,-4.3557 -22.517,-6.94023 -34.2129,-7.66406 l 0,-0.006 c 11.6962,0.72488 23.2394,3.31261 34.2129,7.66992 2.7434,1.08933 5.4494,2.2885 8.1152,3.59766 z m -23.0742,18.18359 c -1.5107,-0.46804 -3.0301,-0.89527 -4.5605,-1.28125 -1.5304,-0.38598 -3.0703,-0.72996 -4.6172,-1.0332 1.5472,0.30305 3.0864,0.64738 4.6172,1.0332 1.5295,0.38552 3.0506,0.81377 4.5605,1.28125 z m -19.2754,-29.63281 0,0.006 c -27.0958,-4.18537 -55.6875,1.56736 -80.4414,18.55078 -53.905,36.97993 -69.1955,112.96255 -34.2148,169.81055 34.9726,56.8457 19.6821,132.8304 -34.2207,169.8125 -42.6398,29.2518 -96.6784,25.3457 -134.8125,-5.6347 -1.2712,-1.0327 -2.525,-2.0949 -3.7598,-3.1875 1.2348,1.0924 2.4886,2.155 3.7598,3.1875 38.1342,30.9748 92.1711,34.8772 134.8086,5.6269 53.9049,-36.9799 69.1955,-112.9625 34.2148,-169.8105 -34.9807,-56.848 -19.69,-132.83062 34.2149,-169.81061 24.7585,-16.98506 53.353,-22.7385 80.4511,-18.55078 z m -47.6093,253.97069 c 0,0.3387 -0.01,0.677 -0.01,1.0157 -4e-4,-0.5431 -7e-4,-1.0856 -0.01,-1.6289 0,0.2043 0.011,0.4089 0.012,0.6132 z m -0.02,3.3496 c -0.01,0.4539 -0.01,0.9077 -0.019,1.3614 0.01,-0.4537 0.014,-0.9075 0.019,-1.3614 z m -1.7285,-199.11522 c -1.0715,0.6123 -2.1328,1.2581 -3.1836,1.9375 1.051,-0.6792 2.1118,-1.3254 3.1836,-1.9375 z m -2.2754,235.07422 c -0.9739,4.5721 -2.1228,9.1037 -3.4433,13.5821 -11.0048,37.3197 -33.961,70.9667 -67.4688,93.955 -25.4659,17.4705 -53.8082,26.5753 -82.1172,27.9649 -2.9799,0.1463 -5.9598,0.2075 -8.9355,0.1836 2.9757,0.024 5.9557,-0.037 8.9355,-0.1836 28.3084,-1.3905 56.6494,-10.4976 82.1153,-27.9688 33.5064,-22.9875 56.4647,-56.6324 67.4707,-93.9511 1.3207,-4.4783 2.4692,-9.0101 3.4433,-13.5821 z m -0.9121,-233.13472 c -0.5244,0.3391 -1.0457,0.687 -1.5644,1.0429 -31.559,21.65072 -40.5276,66.11822 -20.0957,99.41802 l 16.5253,-11.3379 -16.5273,11.3438 c 0,0 0,0 0,-0.01 -20.4319,-33.2998 -11.4633,-77.7653 20.0957,-99.41602 0.5203,-0.357 1.0442,-0.7049 1.5703,-1.0449 z m -67.4844,194.41792 c 0.01,1.1651 -0.014,2.3293 -0.047,3.4922 0.1019,-3.5747 0.018,-7.1629 -0.2559,-10.7461 -0.089,-1.1673 -0.2006,-2.3342 -0.3301,-3.5 0.1294,1.1659 0.241,2.3326 0.3301,3.5 0.1845,2.4181 0.2898,4.8373 0.3027,7.2539 z m -0.047,3.5196 c -0.029,0.9959 -0.081,1.9888 -0.1387,2.9824 0.057,-0.9932 0.11,-1.9869 0.1387,-2.9824 z m -0.1719,3.6425 c -0.057,0.8823 -0.1335,1.7628 -0.2129,2.6426 0.079,-0.8798 0.1562,-1.7602 0.2129,-2.6426 z m -0.3047,3.6836 c -0.08,0.793 -0.1774,1.5828 -0.2754,2.3731 0.098,-0.7904 0.1958,-1.5801 0.2754,-2.3731 z m -0.1543,-21.9765 c -0.12,-1.0449 -0.2536,-2.0882 -0.4063,-3.1309 0.1525,1.0425 0.2864,2.0862 0.4063,3.1309 z m -0.2852,25.6601 c -0.097,0.7055 -0.2071,1.4084 -0.3183,2.1114 0.1111,-0.7028 0.2218,-1.4061 0.3183,-2.1114 z m -0.205,-29.334 c -0.1502,-0.989 -0.3125,-1.9767 -0.4922,-2.9628 0.1796,0.9858 0.3421,1.9742 0.4922,2.9628 z m -0.3672,33.0215 c -0.1162,0.6667 -0.2458,1.3302 -0.375,1.9942 0.1291,-0.664 0.2589,-1.3275 0.375,-1.9942 z m -0.252,-36.6523 c -0.1743,-0.9214 -0.3602,-1.8416 -0.5605,-2.7598 0.2003,0.9185 0.3862,1.8381 0.5605,2.7598 z m -0.4433,40.25 c -0.1397,0.6613 -0.2888,1.3203 -0.4414,1.9785 0.1526,-0.6582 0.3017,-1.3171 0.4414,-1.9785 z m -0.3145,-43.877 c -0.2001,-0.8798 -0.4106,-1.7586 -0.6348,-2.6347 0.2242,0.8765 0.4347,1.7545 0.6348,2.6347 z m -0.5078,47.4493 c -0.1648,0.6622 -0.3376,1.3218 -0.5156,1.9804 0.1779,-0.6585 0.3508,-1.3183 0.5156,-1.9804 z m -0.3359,-50.8887 c -0.2426,-0.9169 -0.4984,-1.8321 -0.7676,-2.7442 0.2692,0.9124 0.525,1.8271 0.7676,2.7442 z m -0.6133,54.4238 c -0.1817,0.6322 -0.3687,1.2622 -0.5625,1.8906 0.1938,-0.6284 0.3809,-1.2584 0.5625,-1.8906 z m -0.3574,-57.8496 c -0.2808,-0.927 -0.5764,-1.8502 -0.8848,-2.7715 0.3082,0.921 0.6042,1.8448 0.8848,2.7715 z m -0.75,61.4453 c -0.194,0.5915 -0.391,1.1817 -0.5957,1.7695 0.2046,-0.5874 0.4019,-1.1783 0.5957,-1.7695 z m -0.3633,-64.9004 c -0.3199,-0.933 -0.6574,-1.8627 -1.0059,-2.789 0.3485,0.9265 0.686,1.8557 1.0059,2.789 z m -0.8281,68.3242 c -0.2198,0.5971 -0.439,1.1943 -0.67,1.7871 0.2309,-0.5927 0.4503,-1.19 0.67,-1.7871 z m -0.4004,-71.7109 c -0.3839,-1.0008 -0.7856,-1.9963 -1.2032,-2.9883 0.4175,0.992 0.8194,1.9874 1.2032,2.9883 z m -0.9219,75.1172 c -0.2489,0.6074 -0.499,1.214 -0.7598,1.8164 0.2608,-0.6026 0.5109,-1.2089 0.7598,-1.8164 z m -0.4219,-78.4414 c -0.451,-1.0606 -0.9203,-2.1167 -1.4101,-3.166 0.4897,1.0493 0.9592,2.1055 1.4101,3.166 z m -1.0312,81.8047 c -0.2624,0.5788 -0.5216,1.1586 -0.795,1.7324 0.2732,-0.5735 0.5328,-1.1539 0.795,-1.7324 z m -0.461,-85.1465 c -0.5217,-1.112 -1.0632,-2.2184 -1.6289,-3.3164 -1.1442,-2.2211 -2.3794,-4.4117 -3.7051,-6.5684 -25.7279,-41.7823 -28.9494,-92.1343 -12.8437,-135.20902 -16.1006,43.07252 -12.8759,93.42272 12.8496,135.20122 1.3265,2.158 2.5543,4.3537 3.6992,6.5762 0.5659,1.0986 1.107,2.2039 1.6289,3.3164 z m -1.166,88.5625 c -0.2677,0.5355 -0.5312,1.0728 -0.8086,1.6035 0.2775,-0.5309 0.5409,-1.0679 0.8086,-1.6035 z m -1.7637,3.3633 c -0.2637,0.4804 -0.5192,0.9652 -0.791,1.4414 0.2718,-0.4762 0.5274,-0.9609 0.791,-1.4414 z m -1.8632,3.2461 c -0.2759,0.4601 -0.5427,0.9251 -0.8262,1.3808 0.2834,-0.4555 0.5505,-0.9209 0.8262,-1.3808 z m -9.7774,-249.06842 c -1.2932,2.8961 -2.495,5.8302 -3.6055,8.8008 1.1105,-2.9699 2.3123,-5.9053 3.6055,-8.8008 z m -63.1445,345.19922 c -3.1783,0.1211 -6.3555,0.1286 -9.5254,0.024 3.1703,0.1053 6.3467,0.097 9.5254,-0.024 z m -10.7774,25.4356 c -2.9711,-0.1085 -5.9357,-0.3017 -8.8925,-0.5782 2.9567,0.2764 5.9214,0.4697 8.8925,0.5782 z m -3.5,-25.6543 c -42.6882,-2.9358 -83.5812,-26.2689 -108.7656,-66.9024 -6.3421,-10.215 -14.1951,-18.7546 -23.0488,-25.5097 8.8553,6.7551 16.7114,15.2938 23.0547,25.5097 25.1839,40.6294 66.0746,63.964 108.7597,66.9024 z m -19.7109,-82.7012 c -1.4916,-0.7282 -2.9611,-1.5143 -4.4043,-2.3574 -2.1644,-1.2645 -4.2697,-2.6588 -6.3066,-4.1778 2.0372,1.5196 4.1419,2.9129 6.3066,4.1778 1.4431,0.8432 2.9128,1.6292 4.4043,2.3574 z m -10.7129,-6.5352 c -2.7165,-2.0258 -5.3086,-4.276 -7.7519,-6.7441 -3.665,-3.7022 -6.9937,-7.8945 -9.8946,-12.5586 l 0,0 c 2.9007,4.6638 6.2279,8.858 9.8926,12.5605 2.4427,2.4679 5.0361,4.7183 7.7519,6.7441 z m -95.1641,-29.3476 c -1.6735,-1.0681 -3.3748,-2.0782 -5.0918,-3.0527 1.7169,0.9747 3.4184,1.9845 5.0918,3.0527 z m -9.4257,-5.4063 c -2.1392,-1.095 -4.3089,-2.1193 -6.502,-3.0722 2.1934,0.9534 4.3625,1.9767 6.502,3.0722 z"
         id="path18976"
         inkscape:connector-curvature="0" />
    </clipPath>
    <linearGradient
       inkscape:collect="always"
       xlink:href="#linearGradient15154"
       id="linearGradient18978"
       gradientUnits="userSpaceOnUse"
       gradientTransform="matrix(0,-1.0002729,1.0025165,0,-802.00324,828.81649)"
       x1="312.51044"
       y1="449.18039"
       x2="828.59332"
       y2="399.98938" />
  </defs>
  <g
     id="g15305"
     transform="matrix(1,0,0,-1.0012392,-31.535382,901.11627)">
    <path
       sodipodi:nodetypes="ccsscccccccsccccccccsccccccsccc"
       id="path70383"
       d="m 595.22401,98.993568 c 2.24236,51.364792 29.70661,100.972182 78.57223,131.206252 33.16678,20.60317 42.52161,62.76432 20.87093,94.2842 -15.98561,23.27246 -44.40965,34.24493 -71.5933,30.17987 -9.63355,-1.44061 -19.1113,-4.76978 -27.82447,-10.10936 l -0.004,0.004 c -80.39401,-49.46599 -187.89701,-27.88001 -240.20619,48.2744 -22.56306,32.84992 -31.13658,70.4807 -27.1832,106.64762 l 0.0684,0 0,0.006 c 2.26258,51.36475 29.97351,100.97211 79.27946,131.20625 33.46566,20.60315 42.90426,62.76434 21.05848,94.2842 -21.84579,31.51996 -66.71273,40.47915 -100.31254,20.07245 l -0.004,0 C 246.82737,695.58353 138.35551,717.16942 85.574966,793.32387 62.80368,826.18083 54.152238,863.8189 58.147559,899.99299 l -25.79024,0 C 28.434758,859.28002 38.47876,817.08798 64.065184,780.16844 124.58185,692.85573 248.95027,668.1135 341.94784,724.84378 l 0.004,-0.01 c 21.72073,13.14445 50.68879,7.34526 64.80089,-13.01659 14.1121,-20.36174 8.03177,-47.58834 -13.55252,-60.92724 -56.85545,-34.85411 -88.69654,-92.16554 -90.98187,-151.40973 l 0.0762,0 c -3.8812,-40.70507 6.07337,-82.89036 31.42643,-119.80281 59.97606,-87.3125 183.23431,-112.05272 275.40134,-55.32244 l 0.004,-0.008 c 21.52676,13.14451 50.23655,7.34523 64.22262,-13.01659 13.98608,-20.36181 7.96012,-47.58837 -13.4314,-60.92725 C 603.56974,215.54921 572.01321,158.23782 569.7483,98.993568 Z"
       style="opacity:1;fill:url(#linearGradient15160);fill-opacity:1;fill-rule:nonzero;stroke:none"
       inkscape:connector-curvature="0" />
    <path
       id="path70379"
       d="m 620.67041,98.993568 c 2.21533,43.487532 25.62304,85.382482 67.00657,111.000822 l -13.88074,20.20543 C 624.93062,199.96575 597.47028,150.35838 595.22791,98.993568 l 25.4425,0 z m 67.00657,111.000822 c 44.93979,27.86746 57.62188,84.96709 28.30656,127.64508 -29.31532,42.678 -89.53987,54.79145 -134.61488,27.12048 l -0.004,0.004 c -68.621,-42.20169 -160.36031,-23.77387 -205.00713,41.22244 -19.77201,28.787 -26.9619,61.87642 -22.9125,93.50001 l 0.15433,0 c 2.23529,43.48751 25.85381,85.38442 67.61025,111.00277 l -14.00577,20.20348 c -49.3002,-30.23074 -77.00535,-79.83028 -79.2735,-131.18873 l -0.0723,0 c -3.95964,-36.17629 4.61332,-73.81622 27.18124,-106.67109 52.31055,-76.15313 159.8087,-97.74104 240.20228,-48.2783 l 0.004,-0.002 c 33.30201,20.40881 77.77098,11.45138 99.42168,-20.06854 21.65069,-31.51989 12.2978,-73.68103 -20.86898,-94.2842 l 13.87879,-20.20543 z M 421.2097,610.48909 c 45.34476,27.86741 58.14197,84.96709 28.56249,127.64507 -29.57948,42.67809 -90.34887,54.78951 -135.83004,27.11854 l -0.004,0 c -69.23936,-42.20167 -161.8042,-23.77192 -206.85334,41.22441 -19.953869,28.79238 -27.206519,61.88674 -23.115692,93.51564 l -25.821499,0 C 54.152298,863.81646 62.80374,826.17849 85.575026,793.32363 138.35695,717.17049 246.82395,695.58259 327.94197,745.04531 l 0.004,0 c 33.60209,20.40881 78.47065,11.45142 100.31644,-20.06854 21.84578,-31.51986 12.40913,-73.68105 -21.05653,-94.2842 l 14.00382,-20.20348 z"
       style="opacity:1;fill:url(#linearGradient15162);fill-opacity:1;fill-rule:nonzero;stroke:none"
       inkscape:connector-curvature="0" />
    <path
       id="path70375"
       d="m 646.14612,98.993568 c 2.18152,35.605922 21.50623,69.794752 55.4077,90.797342 l 0.004,-0.004 c 56.71269,35.13176 72.72397,107.16771 35.74403,161.00594 -36.97993,53.83824 -112.96201,69.10984 -169.81002,34.17245 l -0.004,0.002 c -56.84799,-34.93732 -132.83203,-19.66569 -169.81198,34.17254 -16.98506,24.72777 -22.73771,53.28579 -18.54999,80.35043 l 0.17974,0 c 2.20236,35.60448 21.70017,69.79154 55.90589,90.79343 l 0.004,0 c 57.22382,35.13176 73.37965,107.16764 36.06649,161.00594 -37.31317,53.8382 -113.98143,69.10781 -171.34169,34.1705 l -0.004,0 c -57.36028,-34.93743 -134.02853,-19.66587 -171.34171,34.17244 -17.141,24.73191 -22.94362,53.29543 -18.71409,80.36412 l -25.911372,0 c -4.093107,-31.6267 3.159542,-64.72531 23.115692,-93.5176 45.04686,-64.99633 137.61593,-83.42423 206.8553,-41.22245 l 0.004,0 c 45.47889,27.67092 106.24633,15.55747 135.82808,-27.12054 29.57948,-42.68018 16.78226,-99.77766 -28.56249,-127.64506 -41.75208,-25.61567 -65.37072,-67.50451 -67.61025,-110.98713 l -0.15238,0 c -4.05655,-31.62671 3.13264,-64.72529 22.91055,-93.51761 44.64457,-64.99632 136.38613,-83.42412 205.00713,-41.22244 l 0.004,-0.004 c 45.07267,27.67104 105.29917,15.55955 134.61674,-27.11845 29.31532,-42.68013 16.63127,-99.77761 -28.30851,-127.64507 -41.38354,-25.61834 -64.79124,-67.51527 -67.00657,-111.002782 l 25.47571,0 z"
       style="opacity:1;fill:url(#linearGradient15164);fill-opacity:1;fill-rule:nonzero;stroke:none"
       inkscape:connector-curvature="0" />
    <path
       id="path70371"
       d="m 671.67261,98.995528 c 2.13871,27.717952 17.34481,54.205422 43.76195,70.588002 68.48579,42.39819 87.82822,129.36657 43.18366,194.36289 -44.64455,64.99632 -136.38612,83.42414 -205.00714,41.22245 l -0.004,0.006 c -45.075,-27.67096 -105.29761,-15.56161 -134.61292,27.11854 -14.20143,20.67317 -18.48404,44.71881 -14.07416,67.19504 l 0.14067,0 c 2.15797,27.71792 17.50139,54.20537 44.15658,70.58795 69.10292,42.39823 88.62126,129.36654 43.5744,194.36286 -45.04655,64.99592 -137.61611,83.423 -206.8553,41.22253 l -0.004,0.01 c -45.48118,-27.67096 -106.24667,-15.55963 -135.82615,27.12045 -14.33268,20.67795 -18.65384,44.72799 -14.19918,67.20864 l -26.02469,0 c -4.22953,-27.06856 1.5731,-55.63226 18.7141,-80.36207 37.31317,-53.83821 113.98143,-69.10987 171.3417,-34.17244 l 0.002,0 c 57.35799,34.93521 134.02625,19.66366 171.34169,-34.17245 37.31316,-53.8382 21.15766,-125.87228 -36.06844,-161.00406 l -0.002,0 C 401.00965,569.2902 381.51359,535.11025 379.30764,499.50989 l -0.17778,0 c -4.19176,-27.06859 1.55815,-55.63233 18.54608,-80.36213 36.97993,-53.83822 112.96397,-69.10984 169.81198,-34.17245 l 0.002,-0.004 c 56.84571,34.92934 132.82974,19.65773 169.81193,-34.17836 36.97994,-53.83823 20.96896,-125.87222 -35.74608,-161.00399 l -0.002,0.002 C 667.6523,168.78837 648.32953,134.60152 646.14802,98.995578 l 25.52454,0 z"
       style="opacity:1;fill:url(#linearGradient15166);fill-opacity:1;fill-rule:nonzero;stroke:none"
       inkscape:connector-curvature="0" />
    <path
       id="path70367"
       d="m 697.16981,98.993568 c 2.06658,19.825672 13.20623,38.619832 32.14353,50.384522 80.25881,49.66036 102.93659,151.56544 50.62515,227.71985 -52.31143,76.15444 -159.81219,97.74236 -240.2062,48.27636 l -0.004,0.002 c -33.29975,-20.40667 -77.76707,-11.44941 -99.41777,20.0705 -11.4282,16.63678 -14.16939,36.22644 -9.37365,54.05716 l -0.14653,0 c 2.09001,19.81918 13.32843,38.6057 32.43074,50.36691 80.982,49.66037 103.86316,151.56542 51.08035,227.71986 -52.78281,76.15444 -161.25046,97.74239 -242.36891,48.27636 l -0.004,0 c -33.59982,-20.4067 -78.46869,-11.44936 -100.31449,20.0705 -11.53117,16.6368 -14.29662,36.22438 -9.45766,54.0552 l -26.24935,0 c -4.45467,-22.48074 -0.13543,-46.53084 14.19723,-67.20868 29.57948,-42.68018 90.34723,-54.7895 135.82614,-27.11855 l 0.004,-0.01 c 69.23935,42.20177 161.80812,23.77191 206.85725,-41.22442 45.04685,-64.99631 25.5308,-151.96686 -43.5744,-194.36289 -26.64983,-16.37775 -41.98972,-42.85492 -44.15452,-70.56432 l -0.14066,0 c -4.41488,-22.48064 -0.13443,-46.53078 14.07024,-67.2087 29.31532,-42.68013 89.54017,-54.79144 134.61292,-27.12048 l 0.004,-0.006 c 68.62092,42.20238 160.36414,23.774 205.01095,-41.22231 44.64456,-64.99634 25.30243,-151.96686 -43.18561,-194.36292 -26.4194,-16.38257 -41.62324,-42.87201 -43.76195,-70.589952 l 25.4972,0 z"
       style="opacity:1;fill:url(#linearGradient15168);fill-opacity:1;fill-rule:nonzero;stroke:none;stroke-opacity:1"
       inkscape:connector-curvature="0" />
    <path
       id="path70363"
       d="m 722.81157,98.993568 c 1.93362,11.914182 8.93014,23.042762 20.37861,30.181042 92.03405,56.92679 118.04269,173.76626 58.06664,261.07877 -59.97606,87.31252 -183.23209,112.05465 -275.40136,55.32441 l -0.004,0.008 c -13.22866,-8.0776 -29.16655,-8.99147 -42.73627,-3.77826 a 32.520433,45.032045 0 0 0 -21.68951,17.11361 c -1.0931,1.65947 -1.9417,3.49576 -2.5886,5.46399 a 32.520433,45.032045 0 0 0 -4.21795,22.06718 32.520433,45.032045 0 0 0 3.73735,20.89773 l -0.0547,-0.0156 a 32.520433,45.032045 0 0 0 17.95803,21.70148 c 0.30501,0.21118 0.62417,0.4222 0.96315,0.63166 92.86337,56.92674 119.1067,173.76817 58.59021,261.08074 -60.51649,87.31245 -184.88465,112.05262 -277.88446,55.32244 l -0.004,0.01 c -21.72072,-13.14455 -50.68681,-7.34516 -64.79895,13.01658 -8.76833,12.65323 -9.71714,27.93866 -4.00499,40.90368 l -26.9683,0 c -4.83668,-17.83072 -2.0696,-37.42036 9.46157,-54.05716 21.8458,-31.51986 66.71466,-40.47709 100.31449,-20.0705 l -11.44258,16.50736 11.44843,-16.51126 c 81.11845,49.46592 189.58415,27.88003 242.36696,-48.2744 52.78053,-76.15445 29.90197,-178.05959 -51.08231,-227.71987 -19.10797,-11.76469 -30.34553,-30.55885 -32.43074,-50.38451 l 0.13089,-0.047 c -4.7712,-17.81464 -2.02413,-37.37646 9.39124,-53.99458 21.6507,-31.51991 66.11802,-40.47716 99.41777,-20.0705 l -11.33883,16.50498 11.34684,-16.50932 c 80.39441,49.46577 187.89086,27.87802 240.20229,-48.27636 52.30919,-76.15437 29.63395,-178.05946 -50.6271,-227.71981 -18.93731,-11.7647 -30.075,-30.55886 -32.14158,-50.384522 l 25.64176,0 z"
       style="opacity:1;fill:url(#linearGradient15170);fill-opacity:1;fill-rule:nonzero;stroke:none"
       inkscape:connector-curvature="0" />
  </g>
  <rect
     style="opacity:1;fill:url(#linearGradient18833);fill-opacity:1;fill-rule:evenodd;stroke:#2a898f;stroke-width:0.0893402;stroke-linecap:round;stroke-linejoin:round;stroke-miterlimit:4;stroke-dasharray:none;stroke-opacity:1"
     id="rect18825"
     width="363.44919"
     height="360.39798"
     x="-803.34961"
     y="516.83105"
     transform="matrix(0,-1,1,0,0,0)"
     clip-path="url(#clipPath18974)" />
</svg>
