<svg width="78" height="585" viewBox="0 0 78 585" version="1.1" xmlns="http://www.w3.org/2000/svg" xmlns:xlink="http://www.w3.org/1999/xlink">
<title>ruban</title>
<desc>Created using Figma</desc>
<g id="Canvas" transform="translate(-1314 -794)">
<g id="ruban">
<g id="layer1">
<g id="g46060">
<g id="g34285">
<g id="g34287">
<g id="path34329">
<use xlink:href="#path0_fill" transform="matrix(0.125 0 0 -0.125 1314.8 1191.5)" fill="#EB5757" fill-opacity="0.7"/>
</g>
</g>
</g>
<g id="g34331">
<g id="g34333">
<g id="path34375">
<use xlink:href="#path1_fill" transform="matrix(0.125 0 0 -0.125 1314.8 1027.56)" fill="#EB5757" fill-opacity="0.7"/>
</g>
</g>
</g>
<g id="g34377">
<g id="g34379">
<g id="path34421">
<use xlink:href="#path2_fill" transform="matrix(0.125 0 0 -0.125 1314.8 1311.67)" fill="#EB5757" fill-opacity="0.7"/>
</g>
</g>
</g>
<g id="g34423">
<g id="g34425">
<g id="path34467">
<use xlink:href="#path3_fill" transform="matrix(0.125 0 0 -0.125 1314.87 865.752)" fill="#EB5757" fill-opacity="0.7"/>
</g>
</g>
</g>
<g id="g34469">
<g id="g34471">
<g id="path34513">
<use xlink:href="#path4_fill" transform="matrix(0.125 0 0 -0.125 1314.55 1378.15)" fill="#EB5757" fill-opacity="0.7"/>
</g>
</g>
</g>
<g id="g34515">
<g id="g34517">
<g id="path34559">
<use xlink:href="#path5_fill" transform="matrix(0.125 0 0 -0.125 1314 1349.98)" fill="#EB5757" fill-opacity="0.7"/>
</g>
</g>
</g>
<g id="g34613">
<g id="g34615">
<g id="path34657">
<use xlink:href="#path6_fill" transform="matrix(0.125 0 0 -0.125 1314.73 1093.26)" fill="#EB5757" fill-opacity="0.7"/>
</g>
</g>
</g>
<g id="g34659">
<g id="g34661">
<g id="path34703">
<use xlink:href="#path7_fill" transform="matrix(0.125 0 0 -0.125 1314.82 947.825)" fill="#EB5757" fill-opacity="0.7"/>
</g>
</g>
</g>
<g id="g34705">
<g id="g34707">
<g id="path34749">
<use xlink:href="#path8_fill" transform="matrix(0.125 0 0 -0.125 1314.64 1275.59)" fill="#EB5757" fill-opacity="0.7"/>
</g>
</g>
</g>
<g id="g34751">
<g id="g34753">
<g id="path34795">
<use xlink:href="#path9_fill" transform="matrix(0.125 0 0 -0.125 1314 1367.3)" fill="#EB5757" fill-opacity="0.7"/>
</g>
</g>
</g>
</g>
</g>
</g>
</g>
<defs>
<path id="path0_fill" d="M 1.95312e-05 883.86C 1.95312e-05 883.86 49.3999 667.14 256.59 501.36C 463.77 335.63 590.36 207.03 616.37 128.44L 616.37 2.92969e-05C 616.37 103.57 460.98 270 253.82 435.76C 46.6398 601.51 1.95312e-05 759.8 1.95312e-05 759.8L 1.95312e-05 883.86Z"/>
<path id="path1_fill" d="M 1.95312e-05 682.98C 1.95312e-05 682.98 46.6398 560.04 253.82 418.33C 460.98 276.59 590.36 190.03 616.37 122.87L 616.37 3.90625e-05C 616.37 88.57 460.98 190.44 253.82 332.16C 46.6398 473.94 1.95312e-05 570.71 1.95312e-05 570.71L 1.95312e-05 682.98Z"/>
<path id="path2_fill" d="M 1.95312e-05 379.243C 1.95312e-05 379.243 13.7498 246.533 253.82 138.173C 359.03 90.6731 486.12 41.4532 616.37 55.4932L 616.37 3.54298C 506.79 -12.707 358.04 29.6331 253.82 75.6731C 24.1698 177.063 1.95312e-05 266.903 1.95312e-05 266.903L 1.95312e-05 379.243Z"/>
<path id="path3_fill" d="M 5.85937e-05 1298.13C 5.85937e-05 1298.13 70.4201 1063.11 253.83 777.609C 476.69 430.689 616.38 320.42 616.38 87.9899L 616.38 1.30968C 616.38 -19.8803 589.33 217.19 253.83 631.15C 40.1901 894.77 5.85937e-05 1118.21 5.85937e-05 1118.21L 5.85937e-05 1298.13Z"/>
<path id="path4_fill" d="M -0.000214844 60.91C -0.000214844 60.91 250.76 349.42 563.66 214.03L 563.66 161.98C 563.66 161.98 270.74 299.56 -0.000214844 7.8125e-05L -0.000214844 60.91Z"/>
<path id="path5_fill" d="M 0.0228698 69.1701C 0.0228698 69.1701 -4.89713 132.24 130.023 242.53C 286.633 370.6 506.553 361.75 620.463 361.75L 622.693 302.92C 622.693 302.92 462.153 325 303.323 272.37C 118.193 210.99 29.1026 101.95 34.4726 -0.000107422L 0.0228698 69.1701Z"/>
<path id="path6_fill" d="M 1.51254 52.29C 1.51254 52.29 -22.6577 195.28 122.252 293.72C 289.532 407.45 601.832 503.1 614.722 636.41L 617.502 525.78C 617.502 525.78 609.532 469.81 297.582 310.67C 194.752 258.17 6.87229 101.92 12.2523 -7.8125e-05L 1.51254 52.29Z"/>
<path id="path7_fill" d="M 0.755874 40.9599C 0.755874 40.9599 -29.8145 141.02 297.916 363.55C 540.866 528.46 611.416 674.65 616.746 768.69L 616.746 645.83C 616.746 645.83 616.746 492.23 275.366 288.36C 178.696 230.65 6.11562 87.1399 11.4956 -9.76563e-05L 0.755874 40.9599Z"/>
<path id="path8_fill" d="M 0.65642 79.69C 0.65642 79.69 -28.3539 186.43 299.376 408.98C 542.326 573.9 612.296 707.17 617.656 801.2L 617.656 672.76C 617.656 672.76 602.606 547.68 276.826 333.78C 182.736 272.01 -5.85352 86.12 1.46648 1.95312e-05L 0.65642 79.69Z"/>
<path id="path9_fill" d="M -0.000136719 213.42C -0.000136719 213.42 116.25 -74.9899 568.08 127.88L 568.08 71.3601C 568.08 71.3601 128.08 -135.06 -0.000136719 154.25L -0.000136719 213.42Z"/>
</defs>
</svg>
