<?xml version="1.0" encoding="UTF-8" standalone="no"?>
<!-- Created with Inkscape (http://www.inkscape.org/) -->

<svg
   xmlns:dc="http://purl.org/dc/elements/1.1/"
   xmlns:cc="http://creativecommons.org/ns#"
   xmlns:rdf="http://www.w3.org/1999/02/22-rdf-syntax-ns#"
   xmlns:svg="http://www.w3.org/2000/svg"
   xmlns="http://www.w3.org/2000/svg"
   xmlns:sodipodi="http://sodipodi.sourceforge.net/DTD/sodipodi-0.dtd"
   xmlns:inkscape="http://www.inkscape.org/namespaces/inkscape"
   width="100"
   height="100"
   viewBox="0 0 99.999997 99.999997"
   id="svg131450"
   version="1.1"
   inkscape:version="0.91 r13725"
   sodipodi:docname="star.svg">
  <defs
     id="defs131452" />
  <sodipodi:namedview
     id="base"
     pagecolor="#ffffff"
     bordercolor="#666666"
     borderopacity="1.0"
     inkscape:pageopacity="0.0"
     inkscape:pageshadow="2"
     inkscape:zoom="3.6679688"
     inkscape:cx="134.7152"
     inkscape:cy="173.4733"
     inkscape:document-units="px"
     inkscape:current-layer="layer1"
     showgrid="false"
     units="px"
     inkscape:window-width="1863"
     inkscape:window-height="1056"
     inkscape:window-x="57"
     inkscape:window-y="24"
     inkscape:window-maximized="1" />
  <metadata
     id="metadata131455">
    <rdf:RDF>
      <cc:Work
         rdf:about="">
        <dc:format>image/svg+xml</dc:format>
        <dc:type
           rdf:resource="http://purl.org/dc/dcmitype/StillImage" />
        <dc:title />
      </cc:Work>
    </rdf:RDF>
  </metadata>
  <g
     inkscape:label="Calque 1"
     inkscape:groupmode="layer"
     id="layer1"
     transform="translate(0,-952.36223)">
    <path
       inkscape:connector-curvature="0"
       id="path130130"
       style="fill:#e5c100;fill-opacity:1;fill-rule:nonzero;stroke:none"
       d="m 31.550971,952.36224 c -1.480918,0.0116 7.052502,27.00492 5.656843,38.60907 -0.664673,5.53417 -3.923318,8.15414 -7.254592,9.68319 -14.39707,6.6061 -30.27506668,12.4281 -29.94826068,14.5009 0.461013,2.9299 21.93901068,-4.3767 34.84728868,-3.594 7.57982,0.4586 10.895288,2.2358 13.523993,6.6995 7.120394,12.0833 13.96607,34.5392 17.287872,34.0948 1.785622,-0.2402 -4.548532,-21.8787 -4.982698,-39.4376 -0.135776,-5.542 2.841836,-9.2151 6.73358,-11.3844 12.436205,-6.93508 32.518567,-12.18933 32.584867,-15.0023 0.0647,-2.81447 -22.957346,3.96559 -37.288111,3.7237 -5.247927,-0.089 -10.099585,-1.07045 -13.110349,-4.34352 -5.118475,-5.56261 -14.957559,-33.57153 -18.050433,-33.54934" />
  </g>
</svg>
