<?xml version="1.0" encoding="UTF-8" standalone="no"?>
<!-- Created with Inkscape (http://www.inkscape.org/) -->

<svg
   xmlns:dc="http://purl.org/dc/elements/1.1/"
   xmlns:cc="http://creativecommons.org/ns#"
   xmlns:rdf="http://www.w3.org/1999/02/22-rdf-syntax-ns#"
   xmlns:svg="http://www.w3.org/2000/svg"
   xmlns="http://www.w3.org/2000/svg"
   xmlns:sodipodi="http://sodipodi.sourceforge.net/DTD/sodipodi-0.dtd"
   xmlns:inkscape="http://www.inkscape.org/namespaces/inkscape"
   width="100"
   height="100"
   viewBox="0 0 99.999997 99.999997"
   id="svg131450"
   version="1.1"
   inkscape:version="0.91 r13725"
   sodipodi:docname="star2.svg">
  <defs
     id="defs131452" />
  <sodipodi:namedview
     id="base"
     pagecolor="#ffffff"
     bordercolor="#666666"
     borderopacity="1.0"
     inkscape:pageopacity="0.0"
     inkscape:pageshadow="2"
     inkscape:zoom="1"
     inkscape:cx="197.01126"
     inkscape:cy="173.4733"
     inkscape:document-units="px"
     inkscape:current-layer="layer1"
     showgrid="false"
     units="px"
     inkscape:window-width="1863"
     inkscape:window-height="1056"
     inkscape:window-x="57"
     inkscape:window-y="24"
     inkscape:window-maximized="1" />
  <metadata
     id="metadata131455">
    <rdf:RDF>
      <cc:Work
         rdf:about="">
        <dc:format>image/svg+xml</dc:format>
        <dc:type
           rdf:resource="http://purl.org/dc/dcmitype/StillImage" />
        <dc:title></dc:title>
      </cc:Work>
    </rdf:RDF>
  </metadata>
  <g
     inkscape:label="Calque 1"
     inkscape:groupmode="layer"
     id="layer1"
     transform="translate(0,-952.36223)">
    <path
       inkscape:connector-curvature="0"
       id="path130130"
       style="fill:#e5c100;fill-opacity:1;fill-rule:nonzero;stroke:none"
       d="m 65.438358,967.23244 c -0.772857,-0.73463 -9.846917,17.5178 -16.371484,22.83245 -3.111175,2.5351 -6.109372,2.26339 -8.599891,1.39024 -10.762187,-3.77496 -21.899639,-8.6966 -22.76659,-7.45926 -1.225909,1.74852 13.555258,8.70066 19.852089,15.5596 3.698018,4.02713 4.527332,6.60553 3.657697,10.23253 -2.351686,9.8204 -10.031537,24.8779 -8.088228,26.3083 1.045232,0.7683 8.581411,-13.6099 17.134952,-22.9246 2.700392,-2.9394 6.079499,-3.3539 9.180446,-2.5322 9.910689,2.6242 22.942714,9.9419 24.383399,8.5176 1.440604,-1.4259 -13.877364,-9.4228 -21.181567,-16.7127 -2.674576,-2.66981 -4.697689,-5.60388 -4.621285,-8.80496 0.128992,-5.44109 9.034055,-24.87223 7.420462,-26.407" />
  </g>
</svg>
