<?xml version="1.0" encoding="iso-8859-1"?>
<!-- Generator: Adobe Illustrator 19.0.0, SVG Export Plug-In . SVG Version: 6.00 Build 0)  -->
<svg version="1.1" id="Layer_1" xmlns="http://www.w3.org/2000/svg" xmlns:xlink="http://www.w3.org/1999/xlink" x="0px" y="0px"
	 viewBox="0 0 512 512" style="enable-background:new 0 0 512 512;" xml:space="preserve">
<polyline style="fill:#FFCA54;" points="400.221,397.156 411.647,348.327 100.353,348.327 138.651,512 373.349,512 394.203,422.872 
	"/>
<polygon style="fill:#FCA21F;" points="100.353,348.327 138.651,512 164.912,512 126.613,348.327 "/>
<path style="fill:#7C5437;" d="M409.758,317.955c1.227-86.226-68.297-156.042-153.755-156.042
	c-84.936,0-153.788,68.854-153.788,153.787c0,0.753,0.017,1.502,0.027,2.254"/>
<path style="fill:#603D26;" d="M267.95,162.372c-90.541-6.952-166.996,65.19-165.709,155.583h64.293
	C170.305,249.971,210.507,191.707,267.95,162.372z"/>
<path style="fill:#FFCA54;" d="M254.904,0.139c-11.439,4.942-18.829,16.183-18.829,28.638c0,19.147,17.445,30.182,21.026,28.637
	c11.437-4.944,18.826-16.184,18.826-28.637C275.927,9.468,258.397-1.369,254.904,0.139z"/>
<path style="fill:#57BAE5;" d="M265.433,76.717c-13.133-3.72-28.847-0.198-28.847,12.96c0,11.551,0,64.967,0,73.475
	c12.969-1.637,25.645-1.664,38.829,0c0-7.47,0-65.666,0-73.475C275.415,82.492,270.943,78.706,265.433,76.717z"/>
<path style="fill:#078CD6;" d="M256,89.677c0-7.063,4.324-10.841,9.704-12.855c-9.37-3.481-29.118-2.016-29.118,12.855
	c0,11.551,0,64.967,0,73.475c6.36-0.803,12.837-1.238,19.414-1.238C256,154.311,256,96.3,256,89.677z"/>
<path style="fill:#FFC373;" d="M256.001,161.913c-63.124,0-117.354,38.036-141.048,92.435c0.378-0.2,0.724-0.392,1.022-0.567
	l24.823-16.129c0.002,0,0.002,0,0.002,0c11.347-7.372,21.362-2.792,24.746-0.793c28.385,18.443,30.538,21.196,39.697,21.01
	c8.948-0.094,13.362-4.261,37.92-20.216c0,0,5.523-4.041,12.896-4.041c7.345,0.058,12.774,4.041,12.774,4.041
	c42.262,27.46,34.136,27.46,77.617-0.793c3.385-1.999,13.398-6.579,24.745,0.792c0,0,0,0.001,0.003,0.001
	c26.665,17.325,24.761,16.127,25.851,16.696C373.353,199.948,319.124,161.913,256.001,161.913z"/>
<path style="fill:#EF9A4D;" d="M114.953,254.348c0.378-0.2,0.724-0.392,1.022-0.567l24.823-16.129c0.002,0,0.002,0,0.002,0
	c11.347-7.372,21.362-2.792,24.746-0.793c19.641,12.762,10.91,7.089,18.508,12.026c17.628-37.282,47.238-67.791,83.889-86.51
	c-1-0.035-5.501-0.461-11.943-0.461C194.303,161.913,139.22,198.624,114.953,254.348z"/>
<polygon style="fill:#F9D58C;" points="159.41,348.327 183.177,512 328.823,512 352.592,348.327 "/>
<polygon style="fill:#FFCA54;" points="220.767,348.327 229.438,512 282.562,512 291.231,348.327 "/>
<path style="fill:#F99841;" d="M331.893,317.955H98.644c-7.091,0-14.58,5.166-14.58,15.793c0,8.051,6.526,14.579,14.58,14.579
	h314.712c7.138,0,14.579-5.217,14.579-15.793c0-8.053-6.526-14.579-14.579-14.579h-53.232"/>
<path style="fill:#F26722;" d="M413.356,333.14H98.644c-5.521,0-10.322-3.07-12.797-7.594c-4.916,8.982,0.329,22.78,12.797,22.78
	h314.712c12.451,0,17.718-13.789,12.797-22.78C423.679,330.071,418.877,333.14,413.356,333.14z"/>
<ellipse transform="matrix(0.7071 -0.7071 0.7071 0.7071 -61.7355 275.028)" style="fill:#00CDB3;" cx="301.12" cy="212.035" rx="9.769" ry="10.784"/>
<circle style="fill:#0098FF;" cx="204.875" cy="215.577" r="10.783"/>
<path style="fill:#0593E2;" d="M197.25,207.957c-4.513,4.514-4.191,12.042,0.978,16.107c4.036-5.961,8.4-11.679,13.08-17.119
	C207.087,203.792,201.086,204.121,197.25,207.957z"/>
<path style="fill:#FF4B4E;" d="M251.669,207.462l-14.123-8.627c-3.913-2.391-5.147-7.502-2.757-11.416
	c2.391-3.914,7.503-5.148,11.416-2.757l14.123,8.627c3.914,2.391,5.148,7.502,2.757,11.416
	C260.69,208.626,255.575,209.849,251.669,207.462z"/>
<g>
</g>
<g>
</g>
<g>
</g>
<g>
</g>
<g>
</g>
<g>
</g>
<g>
</g>
<g>
</g>
<g>
</g>
<g>
</g>
<g>
</g>
<g>
</g>
<g>
</g>
<g>
</g>
<g>
</g>
</svg>
