<?xml version="1.0" encoding="iso-8859-1"?>
<!-- Generator: Adobe Illustrator 19.0.0, SVG Export Plug-In . SVG Version: 6.00 Build 0)  -->
<svg version="1.1" id="Layer_1" xmlns="http://www.w3.org/2000/svg" xmlns:xlink="http://www.w3.org/1999/xlink" x="0px" y="0px"
	 viewBox="0 0 511.999 511.999" style="enable-background:new 0 0 511.999 511.999;" xml:space="preserve">
<path style="fill:#956841;" d="M167.311,198.49l39.648-40.2l0,0c-7.401-7.299-19.316-7.217-26.615,0.184l-13.216,13.4
	C159.828,179.274,159.91,191.19,167.311,198.49L167.311,198.49z"/>
<path style="fill:#7C5437;" d="M167.314,198.493l7.712-7.819c-7.404-7.301-7.486-19.212-0.185-26.615l-7.711,7.819
	C159.828,179.28,159.91,191.19,167.314,198.493z"/>
<path style="fill:#2EBB4E;" d="M261.923,357.873l138.314,136.416c7.97,7.859,20.802,7.771,28.662-0.198l77.263-78.338
	c7.86-7.97,7.771-20.802-0.198-28.663L367.649,250.674c-13.56-13.373-32.464-19.857-51.373-17.624
	c-7.254,0.854-14.503,0.433-21.441-1.177c12.918,14.697,12.454,37.091-1.502,51.242c-13.957,14.151-36.343,14.924-51.216,2.21
	c1.705,6.916,2.226,14.159,1.472,21.424C241.618,325.669,248.361,344.499,261.923,357.873"/>
<path id="SVGCleanerId_0" style="fill:#44CC5E;" d="M485.41,366.819L367.652,250.678c-13.567-13.382-32.463-19.857-51.372-17.625
	c-7.254,0.855-14.503,0.433-21.448-1.183c12.924,14.703,12.46,37.097-1.496,51.248c-13.956,14.15-36.341,14.924-51.222,2.204
	c0.054,0.213,0.102,0.432,0.151,0.651C288.552,373.949,396.141,409.28,485.41,366.819z"/>
<path id="SVGCleanerId_1" style="fill:#FFCB51;" d="M294.835,231.874c-10.969-2.513-21.464-8.092-29.931-16.449l-45.546-44.92
	c3.65-3.701,3.608-9.658-0.092-13.308c-3.701-3.65-9.658-3.609-13.308,0.092l-39.648,40.2c-3.65,3.7-3.608,9.658,0.093,13.307
	c3.7,3.65,9.659,3.608,13.308-0.092c49.463,48.784,46.798,46.026,49.313,48.98c6.339,7.469,10.793,16.262,13.094,25.641
	c14.872,12.714,37.259,11.941,51.216-2.21C307.29,268.966,307.754,246.571,294.835,231.874z"/>
<g>
	<path id="SVGCleanerId_0_1_" style="fill:#44CC5E;" d="M485.41,366.819L367.652,250.678
		c-13.567-13.382-32.463-19.857-51.372-17.625c-7.254,0.855-14.503,0.433-21.448-1.183c12.924,14.703,12.46,37.097-1.496,51.248
		c-13.956,14.15-36.341,14.924-51.222,2.204c0.054,0.213,0.102,0.432,0.151,0.651C288.552,373.949,396.141,409.28,485.41,366.819z"
		/>
</g>
<g>
	<path id="SVGCleanerId_1_1_" style="fill:#FFCB51;" d="M294.835,231.874c-10.969-2.513-21.464-8.092-29.931-16.449l-45.546-44.92
		c3.65-3.701,3.608-9.658-0.092-13.308c-3.701-3.65-9.658-3.609-13.308,0.092l-39.648,40.2c-3.65,3.7-3.608,9.658,0.093,13.307
		c3.7,3.65,9.659,3.608,13.308-0.092c49.463,48.784,46.798,46.026,49.313,48.98c6.339,7.469,10.793,16.262,13.094,25.641
		c14.872,12.714,37.259,11.941,51.216-2.21C307.29,268.966,307.754,246.571,294.835,231.874z"/>
</g>
<path style="fill:#FFB537;" d="M242.118,285.326c4.391,3.75,9.433,6.329,14.719,7.737c1.873-18.967-4.96-37.616-18.364-50.837
	l-45.546-44.921l-13.215,13.4c49.463,48.784,46.798,46.026,49.313,48.98C235.364,267.153,239.818,275.947,242.118,285.326"/>
<path style="fill:#ECF1F9;" d="M307.104,349.566l80.399,79.295c7.397,7.295,19.314,7.219,26.615-0.184l26.432-26.8
	c7.302-7.404,7.213-19.32-0.184-26.615l-80.399-79.295c-7.404-7.301-19.314-7.219-26.615,0.184l-26.432,26.8
	C299.618,330.354,299.7,342.265,307.104,349.566z"/>
<path style="fill:#FFB537;" d="M173.079,213.509c4.965-0.035,6.325-2.487,16.586-12.891c-3.683,3.734-9.639,3.71-13.308,0.092
	c-3.705-3.655-3.746-9.603-0.091-13.308l-9.952,10.09C160.423,203.465,164.744,213.568,173.079,213.509z"/>
<path style="fill:#00A443;" d="M261.926,357.877l138.313,136.414c7.967,7.856,20.802,7.774,28.666-0.199l12.554-12.73
	c-7.863,7.973-20.699,8.055-28.665,0.199L274.481,345.147c-6.786-6.694-11.853-14.73-14.988-23.479
	c-4.788-13.327-3.599-23.326-3.246-28.764c-5.067-1.443-9.903-3.964-14.133-7.581c5.114,20.69-3.121,26.966,4.824,49.075
	C250.073,343.146,255.139,351.183,261.926,357.877z"/>
<path style="fill:#DFE4EA;" d="M307.104,349.566l80.399,79.295c7.397,7.295,19.314,7.219,26.615-0.184l11.24-11.397
	c-7.301,7.404-19.219,7.479-26.615,0.184l-80.399-79.295c-7.404-7.301-7.486-19.212-0.184-26.615l-11.24,11.397
	C299.618,330.354,299.7,342.265,307.104,349.566z"/>
<g>
	<path style="fill:#C2C3CA;" d="M338.742,354.335l26.432-26.799c2.738-2.777,2.706-7.245-0.069-9.982s-7.242-2.707-9.981,0.069
		l-26.432,26.8c-2.737,2.775-2.706,7.243,0.069,9.98S336.005,357.11,338.742,354.335"/>
	<path style="fill:#C2C3CA;" d="M365.541,380.767l26.432-26.8c2.739-2.776,2.707-7.244-0.068-9.981
		c-2.776-2.737-7.243-2.707-9.981,0.069l-26.432,26.8c-2.738,2.775-2.707,7.243,0.069,9.98
		C358.335,383.572,362.804,383.542,365.541,380.767"/>
</g>
<g>
	<path style="fill:#F99830;" d="M156.024,144.89c0.417-4.352-2.769-8.218-7.118-8.645l0,0c-2.133-0.212-52.269-5.707-55.575-48.382
		c-2.783-35.932-24.544-70.848-61.79-75.916c-4.328-0.59-8.331,2.449-8.922,6.786c-0.59,4.338,2.448,8.332,6.785,8.923
		c30.274,4.117,45.982,33.821,48.122,61.432c1.81,23.366,14.653,41.713,37.14,53.053c16.334,8.238,32.051,9.82,32.713,9.884
		C151.695,152.446,155.602,149.281,156.024,144.89z"/>
	<path style="fill:#F99830;" d="M129.829,186.828c6.933,0,10.55-8.35,5.736-13.424c-0.912-0.964-22.951-23.533-72.77-18.228
		c-38.576,4.113-46.773-32.899-47.104-34.476c-0.893-4.273-5.075-7.03-9.354-6.156c-4.276,0.878-7.041,5.034-6.18,9.314
		c0.108,0.538,2.761,13.326,11.847,25.432c8.635,11.504,24.749,24.604,52.468,21.649c41.47-4.413,58.925,12.702,59.648,13.432
		C125.671,186.007,127.747,186.828,129.829,186.828z"/>
	<path style="fill:#F99830;" d="M181.778,135.923c2.772-13.019-0.044-40.195-30.543-49.874
		c-26.781-8.499-36.226-40.328-24.917-62.668c1.978-3.906,0.414-8.675-3.491-10.652c-3.905-1.978-8.674-0.415-10.653,3.491
		c-15.506,30.632-2.292,73.337,34.266,84.938c23.863,7.573,20.306,29.082,19.822,31.511c-0.852,4.272,1.899,8.458,6.167,9.338
		C176.737,142.891,180.875,140.155,181.778,135.923z"/>
</g>
<ellipse style="fill:#00CDB3;" cx="24.519" cy="70.161" rx="16.92" ry="17.18"/>
<g>
	<ellipse style="fill:#FF4B4E;" cx="89.3" cy="217.961" rx="11.977" ry="12.162"/>
	<ellipse style="fill:#FF4B4E;" cx="254.09" cy="77.041" rx="11.976" ry="12.162"/>
</g>
<g>
	<path style="fill:#57BAE5;" d="M181.446,59.471c4.354-0.44,7.529-4.328,7.088-8.683l-1.875-18.571
		c-0.44-4.356-4.331-7.529-8.683-7.089c-4.355,0.44-7.53,4.327-7.089,8.683l1.877,18.571
		C173.202,56.726,177.077,59.908,181.446,59.471z"/>
	<path style="fill:#57BAE5;" d="M39.328,190.329c-0.219-4.372-3.941-7.739-8.312-7.52l-18.643,0.934
		c-4.372,0.219-7.739,3.944-7.52,8.313c0.219,4.371,3.941,7.739,8.312,7.519l18.643-0.933
		C36.206,198.423,39.551,194.669,39.328,190.329z"/>
</g>
<g>
</g>
<g>
</g>
<g>
</g>
<g>
</g>
<g>
</g>
<g>
</g>
<g>
</g>
<g>
</g>
<g>
</g>
<g>
</g>
<g>
</g>
<g>
</g>
<g>
</g>
<g>
</g>
<g>
</g>
</svg>
