<?xml version="1.0" encoding="iso-8859-1"?>
<!-- Generator: Adobe Illustrator 19.0.0, SVG Export Plug-In . SVG Version: 6.00 Build 0)  -->
<svg version="1.1" id="Layer_1" xmlns="http://www.w3.org/2000/svg" xmlns:xlink="http://www.w3.org/1999/xlink" x="0px" y="0px"
	 viewBox="0 0 512 512" style="enable-background:new 0 0 512 512;" xml:space="preserve">
<path style="fill:#00CDB3;" d="M229.926,1.523L229.926,1.523c-3.853-2.026-8.455-2.027-12.309-0.001l-0.001,0.001
	c-6.359,3.341,5.274-23.686-166.889,433.351h346C225.244-20.357,236.442,4.946,229.926,1.523z"/>
<path style="fill:#0EDBBD;" d="M264.099,82.766c-47.893,128.658,1.106,276.465,122.848,349.336h8.745
	C394.55,429.069,265.895,87.533,264.099,82.766z"/>
<path style="fill:#0DBAA1;" d="M229.926,1.523L229.926,1.523c-3.853-2.026-8.455-2.027-12.309-0.001l-0.001,0.001
	c-6.359,3.341,6.399-26.459-165.764,430.579h37.595L242.569,25.613C235.846,7.762,235.53,4.467,229.926,1.523z"/>
<polygon style="fill:#FC3842;" points="127.091,332.19 96.749,312.918 66.1,394.285 96.442,413.556 125.633,432.105 
	284.392,432.105 "/>
<g>
	<polygon style="fill:#FC4F60;" points="330.83,259.933 246.89,206.617 188.388,169.458 158.045,150.187 127.397,231.553 
		157.74,250.825 287.677,333.355 380.763,392.47 	"/>
	<path style="fill:#FC4F60;" d="M264.102,82.771l-21.527-57.153c-6.677-17.722-7.009-21.135-12.653-24.101
		c-5.362-2.819-12.028-1.64-16.06,2.953c-2.225,2.538-0.457-1.231-25.169,64.351l30.342,19.271l36.178,22.974l25.683,16.318
		C271.737,103.041,268.498,94.46,264.102,82.771z"/>
</g>
<path style="fill:#11A590;" d="M104.328,465.655H52.02c-8.124,0-14.711-6.587-14.711-14.71v-4.131
	c0-8.124,6.587-14.711,14.711-14.711h339.836c8.124,0,14.711,6.587,14.711,14.711v4.131c0,8.123-6.587,14.71-14.711,14.71H136.201"
	/>
<path style="fill:#0E8E78;" d="M391.856,451.33c-17.097,0-326.562,0-339.836,0c-6.329,0-11.709-4.005-13.785-9.614
	c-1.131,3.055-0.927,4.981-0.927,9.228c0,8.123,6.587,14.71,14.711,14.71c5.367,0,334.441,0,339.836,0
	c8.124,0,14.711-6.587,14.711-14.71c0-4.256,0.2-6.184-0.926-9.228C403.565,447.325,398.185,451.33,391.856,451.33z"/>
<polygon style="fill:#FC3842;" points="284.392,432.105 125.633,432.105 96.442,413.555 127.091,332.19 "/>
<path style="fill:#00CDB3;" d="M125.633,432.105H51.855l14.245-37.82C102.539,417.428,89.277,409.002,125.633,432.105z"/>
<g>
	<path style="fill:#FC3842;" d="M287.677,333.355l-129.938-82.53l30.648-81.367l58.502,37.159
		C250.507,252.75,264.948,295.841,287.677,333.355z"/>
	<path style="fill:#FC3842;" d="M264.102,82.771c-3.433,9.22-6.412,18.66-8.888,28.296l-36.178-22.974l23.539-62.474L264.102,82.771
		z"/>
</g>
<g>
	<path style="fill:#FC4F60;" d="M380.763,392.47l-93.085-59.115c-22.729-37.514-37.171-80.605-40.788-126.738l83.941,53.317
		L380.763,392.47z"/>
	<path style="fill:#FC4F60;" d="M280.898,127.385l-25.684-16.317c2.476-9.636,5.455-19.075,8.888-28.296
		C268.498,94.46,271.737,103.041,280.898,127.385z"/>
</g>
<polygon style="fill:#0EDBBD;" points="330.843,259.933 380.763,392.47 330.83,259.933 "/>
<polygon style="fill:#EF2235;" points="127.091,332.19 96.442,413.555 66.1,394.285 96.749,312.918 "/>
<polygon style="fill:#0DBAA1;" points="66.1,394.285 96.442,413.555 89.454,432.105 51.855,432.105 "/>
<g>
	<polygon style="fill:#EF2235;" points="188.388,169.458 157.74,250.825 127.397,231.553 158.045,150.187 	"/>
	<path style="fill:#EF2235;" d="M242.575,25.619l-23.539,62.474l-30.342-19.272c24.711-65.582,22.943-61.813,25.169-64.35
		c4.032-4.593,10.697-5.773,16.06-2.953C235.567,4.484,235.898,7.897,242.575,25.619z"/>
</g>
<path style="fill:#7C5437;" d="M474.707,447.638c0,35.491-28.871,64.362-64.362,64.362H221.966
	c-61.407,0-111.364-49.946-111.364-111.353c0-5.075,4.119-9.194,9.194-9.194c5.088,0,9.194,4.119,9.194,9.194
	c0,51.258,41.707,92.964,92.975,92.964h188.379c25.352,0,45.973-20.621,45.973-45.973s-20.621-45.973-45.973-45.973h-26.112
	l-6.928-18.389h33.04C445.836,383.276,474.707,412.147,474.707,447.638z"/>
<g>
</g>
<g>
</g>
<g>
</g>
<g>
</g>
<g>
</g>
<g>
</g>
<g>
</g>
<g>
</g>
<g>
</g>
<g>
</g>
<g>
</g>
<g>
</g>
<g>
</g>
<g>
</g>
<g>
</g>
</svg>
