<?xml version="1.0" encoding="UTF-8" standalone="no"?>
<!-- Generator: Adobe Illustrator 19.0.0, SVG Export Plug-In . SVG Version: 6.00 Build 0)  -->

<svg
   xmlns:dc="http://purl.org/dc/elements/1.1/"
   xmlns:cc="http://creativecommons.org/ns#"
   xmlns:rdf="http://www.w3.org/1999/02/22-rdf-syntax-ns#"
   xmlns:svg="http://www.w3.org/2000/svg"
   xmlns="http://www.w3.org/2000/svg"
   xmlns:sodipodi="http://sodipodi.sourceforge.net/DTD/sodipodi-0.dtd"
   xmlns:inkscape="http://www.inkscape.org/namespaces/inkscape"
   version="1.1"
   id="Capa_1"
   x="0px"
   y="0px"
   viewBox="0 0 60 60"
   style="enable-background:new 0 0 60 60;"
   xml:space="preserve"
   width="512px"
   height="512px"
   inkscape:version="0.91 r13725"
   sodipodi:docname="003-photo-camera.svg"><metadata
     id="metadata17064"><rdf:RDF><cc:Work
         rdf:about=""><dc:format>image/svg+xml</dc:format><dc:type
           rdf:resource="http://purl.org/dc/dcmitype/StillImage" /></cc:Work></rdf:RDF></metadata><defs
     id="defs17062" /><sodipodi:namedview
     pagecolor="#ffffff"
     bordercolor="#666666"
     borderopacity="1"
     objecttolerance="10"
     gridtolerance="10"
     guidetolerance="10"
     inkscape:pageopacity="0"
     inkscape:pageshadow="2"
     inkscape:window-width="640"
     inkscape:window-height="480"
     id="namedview17060"
     showgrid="false"
     inkscape:zoom="0.65359497"
     inkscape:cx="256"
     inkscape:cy="256"
     inkscape:window-x="57"
     inkscape:window-y="24"
     inkscape:window-maximized="0"
     inkscape:current-layer="Capa_1" /><g
     id="g17024"
     style="fill:#ffffff"><path
       d="M30,20.5c-6.617,0-12,5.383-12,12s5.383,12,12,12s12-5.383,12-12S36.617,20.5,30,20.5z"
       fill="#111111"
       id="path17026"
       style="fill:#ffffff" /><path
       d="M55.201,15.5h-8.524l-4-10H17.323l-4,10H12v-5H6v5H4.799C2.152,15.5,0,17.652,0,20.299v29.368   C0,52.332,2.168,54.5,4.833,54.5h50.334c2.665,0,4.833-2.168,4.833-4.833V20.299C60,17.652,57.848,15.5,55.201,15.5z M10,15.5H8v-3   h2V15.5z M30,50.5c-9.925,0-18-8.075-18-18s8.075-18,18-18s18,8.075,18,18S39.925,50.5,30,50.5z M52,27.5c-2.206,0-4-1.794-4-4   s1.794-4,4-4s4,1.794,4,4S54.206,27.5,52,27.5z"
       fill="#111111"
       id="path17028"
       style="fill:#ffffff" /></g><g
     id="g17030" /><g
     id="g17032" /><g
     id="g17034" /><g
     id="g17036" /><g
     id="g17038" /><g
     id="g17040" /><g
     id="g17042" /><g
     id="g17044" /><g
     id="g17046" /><g
     id="g17048" /><g
     id="g17050" /><g
     id="g17052" /><g
     id="g17054" /><g
     id="g17056" /><g
     id="g17058" /></svg>