<?xml version="1.0" encoding="iso-8859-1"?>
<!-- Generator: Adobe Illustrator 19.0.0, SVG Export Plug-In . SVG Version: 6.00 Build 0)  -->
<svg version="1.1" id="Layer_1" xmlns="http://www.w3.org/2000/svg" xmlns:xlink="http://www.w3.org/1999/xlink" x="0px" y="0px"
	 viewBox="0 0 512 512" style="enable-background:new 0 0 512 512;" xml:space="preserve">
<path style="fill:#FFCA54;" d="M257.982,0.802c-1.042-1.07-2.923-1.07-3.965,0c-70.109,72-70.147,186.451,0,258.495
	c1.086,1.116,2.88,1.116,3.965,0C328.587,186.783,327.606,72.31,257.982,0.802z"/>
<g>
	<path style="fill:#00CDB3;" d="M421.203,127.283c-54.478,0.723-98.375,44.586-99.1,99.099c-0.019,1.482,1.149,2.804,2.804,2.804
		c54.481-0.725,98.373-44.59,99.1-99.099C424.027,128.658,422.937,127.315,421.203,127.283z"/>
	<path style="fill:#00CDB3;" d="M90.795,127.283c-0.737,0.014-1.466,0.282-1.993,0.81c-0.528,0.528-0.82,1.247-0.811,1.994
		c0.753,56.413,47.332,99.099,99.138,99.099c1.546,0,2.788-1.267,2.768-2.804C189.17,171.903,145.308,128.007,90.795,127.283z"/>
</g>
<g>
	<g>
		<path id="SVGCleanerId_0" style="fill:#FC3842;" d="M69.862,362.634c-3.084,59.064,82.114,92.753,137.001,54.109
			C209.914,357.95,125.01,323.789,69.862,362.634z"/>
	</g>
	<path style="fill:#FC3842;" d="M442.136,362.634c3.066,58.709-81.766,92.997-137.001,54.109
		C302.064,357.545,387.379,324.064,442.136,362.634z"/>
	<path style="fill:#FC3842;" d="M424.048,253.986c-62.874-8.585-119.808,12.933-168.048,52.905
		c-82.654-68.487-171.308-64.603-236.489-31.432c0,0-18.144,9.521-18.144,32.403v115.876c0,23.349,9.913,34.764,17.433,37.502
		C62.969,471.738,61.732,512,157.353,512c48.34-0.001,73.268-23.201,86.075-48.713c0.006-0.011,4.592-7.444,12.572-7.444
		c7.986,0,12.573,7.447,12.573,7.447l0.001-0.002c21.218,42.278,58.319,50.385,104.964,48.116
		c79.203-5.254,84.187-44.702,117.442-49.593c14.797-4.088,19.653-22.715,19.653-38.072V307.861c0-14.053-6.941-27.013-21.93-34.284
		c-1.005-0.4-15.176-7.723-35.107-13.379"/>
</g>
<path style="fill:#FC4F60;" d="M467.478,264.669c-43.73-15.709-90.411-17.048-135.122-1.683
	c24.99,81.922,93.306,144.946,178.255,162.353c0.032-1.561,0.022,7.154,0.022-117.478
	C510.632,282.345,491.422,273.216,467.478,264.669z"/>
<g>
	<g>
		<path id="SVGCleanerId_0_1_" style="fill:#FC3842;" d="M69.862,362.634c-3.084,59.064,82.114,92.753,137.001,54.109
			C209.914,357.95,125.01,323.789,69.862,362.634z"/>
	</g>
	<g>
		<path id="SVGCleanerId_1" style="fill:#FC3842;" d="M442.136,362.634c3.066,58.709-81.766,92.997-137.001,54.109
			C302.064,357.545,387.379,324.064,442.136,362.634z"/>
	</g>
</g>
<g>
	<g>
		<path id="SVGCleanerId_0_2_" style="fill:#FF4B4E;" d="M69.862,362.634c-3.084,59.064,82.114,92.753,137.001,54.109
			C209.914,357.95,125.01,323.789,69.862,362.634z"/>
	</g>
	<g>
		<path id="SVGCleanerId_1_1_" style="fill:#FF4B4E;" d="M442.136,362.634c3.066,58.709-81.766,92.997-137.001,54.109
			C302.064,357.545,387.379,324.064,442.136,362.634z"/>
	</g>
</g>
<path style="fill:#F99830;" d="M255.999,0c-0.731,0-1.462,0.267-1.983,0.802c-70.109,72-70.147,186.451,0,258.495
	c0.521,0.535,1.236,0.838,1.983,0.838V0z"/>
<g>
	<path style="fill:#0DBAA1;" d="M89.046,127.897c-0.733,0.576-1.066,1.373-1.055,2.191c0.753,56.413,47.332,99.099,99.138,99.099
		c0.133,0,0.265-0.021,0.396-0.039L89.046,127.897z"/>
	<path style="fill:#0DBAA1;" d="M324.077,229.056l98.59-101.364c-1.757-1.038-40.347-1.832-71.165,28.988
		c-18.607,18.607-29.048,43.36-29.398,69.701C322.088,227.533,322.794,228.671,324.077,229.056z"/>
</g>
<path style="fill:#EF2235;" d="M149.914,255.245c-44.75-8.031-90.893,0.106-130.404,20.213c0,0-18.144,9.521-18.144,32.403v115.876
	c0,23.349,9.913,34.764,17.433,37.502C62.969,471.738,61.732,512,157.353,512c26.315,0,45.68-6.885,59.939-17.265
	C151.3,433.67,125.56,341.265,149.914,255.245z"/>
<g>
	<g>
		<path id="SVGCleanerId_0_3_" style="fill:#ECEEF0;" d="M69.862,362.634c-3.084,59.064,82.114,92.753,137.001,54.109
			C209.914,357.95,125.01,323.789,69.862,362.634z"/>
	</g>
	<g>
		<path id="SVGCleanerId_1_2_" style="fill:#ECEEF0;" d="M442.136,362.634c3.066,58.709-81.766,92.997-137.001,54.109
			C302.064,357.545,387.379,324.064,442.136,362.634z"/>
	</g>
</g>
<g>
</g>
<g>
</g>
<g>
</g>
<g>
</g>
<g>
</g>
<g>
</g>
<g>
</g>
<g>
</g>
<g>
</g>
<g>
</g>
<g>
</g>
<g>
</g>
<g>
</g>
<g>
</g>
<g>
</g>
</svg>
