<?xml version="1.0" encoding="iso-8859-1"?>
<!-- Generator: Adobe Illustrator 19.0.0, SVG Export Plug-In . SVG Version: 6.00 Build 0)  -->
<svg version="1.1" id="Layer_1" xmlns="http://www.w3.org/2000/svg" xmlns:xlink="http://www.w3.org/1999/xlink" x="0px" y="0px"
	 viewBox="0 0 512.001 512.001" style="enable-background:new 0 0 512.001 512.001;" xml:space="preserve">
<path style="fill:#BAD8E8;" d="M237.158,343.249L91.77,488.294c-4.241,4.244-4.241,11.124,0,15.365l1.281,1.28
	c4.244,4.241,11.12,4.241,15.363,0c132.725-132.413,93.713-93.479,169.86-169.52L237.158,343.249z"/>
<path style="fill:#7C5437;" d="M63.515,375.536c-0.005-4.54,3.673-8.224,8.212-8.229c1.132-0.024,29.777-1.096,45.997-42.447
	c8.426-21.484,26.878-34.199,53.362-36.77c18.934-1.842,35.367,2.22,36.057,2.394c4.403,1.108,7.074,5.576,5.965,9.979
	c-1.107,4.399-5.567,7.065-9.967,5.97l0,0c-0.144-0.037-14.709-3.588-30.862-1.939c-19.981,2.042-33.185,10.912-39.247,26.369
	c-20.489,52.241-59.63,52.885-61.286,52.887C67.208,383.755,63.52,380.081,63.515,375.536z"/>
<path style="fill:#FFCA54;" d="M373.406,44.662L168.769,249.301l0,0c-0.005,0.003-2.203,2.205-2.207,2.209
	c-5.794,6.803-5.976,15.167,2.221,23.365l85.016,85.016l217.416-217.418L373.406,44.662z"/>
<path style="fill:#00CDB3;" d="M471.217,142.472c4.385-4.383,0.879,4.797,40.437-132.249c1.344-4.655-1.342-7.339-5.998-5.996
	c-136.419,39.375-127.816,36.006-132.25,40.434L471.217,142.472z"/>
<path style="fill:#F99830;" d="M190.367,296.188c-10.098-10.391-5.208-19.106-1.881-23.011c0.004-0.004,2.202-2.205,2.207-2.208l0,0
	l204.51-204.511l-21.797-21.796L168.769,249.301l0,0c-0.005,0.003-2.203,2.205-2.207,2.209c-5.794,6.803-5.976,15.167,2.221,23.365
	l21.545,21.544C190.343,296.341,190.353,296.264,190.367,296.188z"/>
<path style="fill:#0DBAA1;" d="M395.331,66.329c4.393-4.386-2.3-1.601,109.94-33.996l6.383-22.11
	c1.344-4.655-1.342-7.339-5.998-5.996C369.237,43.603,377.841,40.233,373.406,44.662l97.81,97.811
	c0.043-0.043,0.083-0.089,0.125-0.132L395.331,66.329z"/>
<g>
	<path style="fill:#FFCA54;" d="M0.249,395.967c-1.105-4.404,1.57-8.87,5.974-9.975l31.609-7.93c4.405-1.108,8.869,1.57,9.975,5.974
		c1.104,4.403-1.57,8.869-5.974,9.974l-31.608,7.93C5.845,403.043,1.361,400.391,0.249,395.967z"/>
	<path style="fill:#FFCA54;" d="M32.904,439.964c-3.895-2.334-5.162-7.382-2.829-11.278l16.743-27.958
		c2.333-3.895,7.382-5.162,11.277-2.83c3.896,2.334,5.162,7.382,2.83,11.278l-16.744,27.958
		C41.851,441.029,36.799,442.295,32.904,439.964z"/>
	<path style="fill:#FFCA54;" d="M54.222,350.694l-7.932-31.609c-1.105-4.404,1.57-8.871,5.973-9.975
		c4.405-1.099,8.871,1.569,9.975,5.973l7.932,31.609c1.105,4.404-1.57,8.87-5.975,9.975
		C59.78,357.775,55.323,355.089,54.222,350.694z"/>
	<path style="fill:#FFCA54;" d="M77.131,442.01l-7.93-31.611c-1.105-4.404,1.569-8.871,5.972-9.976
		c4.405-1.108,8.871,1.57,9.976,5.974l7.93,31.611c1.104,4.404-1.572,8.87-5.973,9.975C82.714,449.09,78.238,446.424,77.131,442.01z
		"/>
	<path style="fill:#FFCA54;" d="M39.056,369.788l-27.959-16.746c-3.894-2.334-5.161-7.38-2.829-11.277
		c2.332-3.894,7.381-5.161,11.277-2.829l27.958,16.744c3.896,2.335,5.162,7.382,2.83,11.277
		C48,370.853,42.954,372.121,39.056,369.788z"/>
	<path style="fill:#FFCA54;" d="M119.826,418.158l-27.959-16.743c-3.894-2.334-5.161-7.382-2.829-11.278
		c2.333-3.895,7.381-5.162,11.277-2.83l27.958,16.746c3.896,2.333,5.163,7.381,2.83,11.277
		C128.771,419.221,123.724,420.491,119.826,418.158z"/>
</g>
<polyline style="fill:#FF4B4E;" points="407.033,152.185 420.01,193.682 384.442,229.249 337.84,80.23 373.406,44.662 399.156,127 
	"/>
<polygon style="fill:#EF3F48;" points="348.225,113.437 383.793,77.869 373.406,44.662 337.84,80.23 "/>
<polygon style="fill:#FF4B4E;" points="319.121,294.57 272.518,145.553 308.087,109.982 354.688,259.002 "/>
<path style="fill:#EF3F48;" d="M308.087,109.982c-17.055,17.058-8.1,8.103-35.569,35.571l10.384,33.205l35.57-35.569
	L308.087,109.982z"/>
<polygon style="fill:#FF4B4E;" points="253.8,359.891 207.197,210.874 242.765,175.306 289.367,324.323 "/>
<g>
	<polygon style="fill:#EF3F48;" points="242.765,175.306 207.197,210.874 217.582,244.079 253.149,208.511 	"/>
	<polygon style="fill:#EF3F48;" points="253.8,359.891 253.928,359.762 253.682,359.517 	"/>
</g>
<g>
</g>
<g>
</g>
<g>
</g>
<g>
</g>
<g>
</g>
<g>
</g>
<g>
</g>
<g>
</g>
<g>
</g>
<g>
</g>
<g>
</g>
<g>
</g>
<g>
</g>
<g>
</g>
<g>
</g>
</svg>
