<?xml version="1.0" encoding="iso-8859-1"?>
<!-- Generator: Adobe Illustrator 19.0.0, SVG Export Plug-In . SVG Version: 6.00 Build 0)  -->
<svg version="1.1" id="Layer_1" xmlns="http://www.w3.org/2000/svg" xmlns:xlink="http://www.w3.org/1999/xlink" x="0px" y="0px"
	 viewBox="0 0 512 512" style="enable-background:new 0 0 512 512;" xml:space="preserve">
<path style="fill:#FC3842;" d="M487.04,199.947H310.903H24.961v293.752c0,10.106,8.192,18.301,18.302,18.301h84.275h27.386h155.979
	h47.194h110.64c10.109,0,18.303-8.194,18.303-18.301V297.303v-26.295L487.04,199.947L487.04,199.947z"/>
<path style="fill:#EF2235;" d="M55.783,493.699V214.622H24.961v279.077c0,10.106,8.192,18.301,18.302,18.301h30.821
	C63.975,512,55.783,503.806,55.783,493.699z"/>
<path style="fill:#17DDC0;" d="M489.328,118.545h-131.23h-47.194H22.674c-10.107,0-18.301,8.195-18.301,18.303v64.626
	c0,7.262,5.887,13.148,13.147,13.148h293.383h47.194h136.384c7.261,0,13.147-5.887,13.147-13.148v-64.626
	C507.629,126.74,499.435,118.545,489.328,118.545z"/>
<path style="fill:#0DBAA1;" d="M35.194,201.474v-64.626c0-10.107,8.194-18.303,18.301-18.303H22.674
	c-10.107,0-18.301,8.195-18.301,18.303v64.626c0,7.262,5.887,13.148,13.147,13.148h30.822
	C41.08,214.622,35.194,208.735,35.194,201.474z"/>
<g>
	<path style="fill:#EF3A43;" d="M299.358,126.613c-4.532-0.238-8.012-4.106-7.774-8.638c0.239-4.532,4.104-8.045,8.639-7.773
		c48.487,2.553,94.907-19.103,124.174-57.934c2.73-3.624,7.883-4.351,11.508-1.617c3.625,2.731,4.349,7.884,1.616,11.508
		C404.941,105.391,353.241,129.472,299.358,126.613z"/>
	<path style="fill:#EF3A43;" d="M74.479,62.159c-2.731-3.624-2.009-8.776,1.617-11.508c3.622-2.731,8.775-2.007,11.507,1.617
		c29.267,38.831,75.689,60.483,124.176,57.934c4.535-0.265,8.4,3.241,8.64,7.773c0.237,4.531-3.242,8.399-7.774,8.638
		C158.826,129.474,107.096,105.44,74.479,62.159z"/>
</g>
<rect x="201.101" y="118.55" style="fill:#FFCA54;" width="109.81" height="393.45"/>
<rect x="201.101" y="118.55" style="fill:#F99830;" width="54.902" height="393.45"/>
<path style="fill:#FF4B4E;" d="M311.158,0c-23.627,0-44.261,13.005-55.157,32.224C245.103,13.005,224.469,0,200.842,0
	c-34.946,0-63.377,28.43-63.377,63.375c0,34.946,28.431,63.376,63.377,63.376h55.159h55.157c34.945,0,63.374-28.43,63.374-63.376
	C374.532,28.43,346.104,0,311.158,0z M247.783,110.316h-46.941c-25.884,0-46.942-21.058-46.942-46.941s21.059-46.94,46.942-46.94
	s46.941,21.058,46.941,46.94L247.783,110.316L247.783,110.316z M311.158,110.316h-46.94V63.375c0-25.883,21.058-46.94,46.94-46.94
	s46.939,21.058,46.939,46.94C358.098,89.259,337.041,110.316,311.158,110.316z"/>
<g>
</g>
<g>
</g>
<g>
</g>
<g>
</g>
<g>
</g>
<g>
</g>
<g>
</g>
<g>
</g>
<g>
</g>
<g>
</g>
<g>
</g>
<g>
</g>
<g>
</g>
<g>
</g>
<g>
</g>
</svg>
